<svg width="22" height="23" viewBox="0 0 22 23" fill="none" xmlns="http://www.w3.org/2000/svg">
<g clip-path="url(#clip0_378_1056)">
<path d="M21.3975 9.77976L16.0647 4.40913C14.4878 2.83546 12.351 1.95166 10.1232 1.95166C7.89535 1.95166 5.75853 2.83546 4.1816 4.40913L4.17068 4.42089L3.01286 5.61567C2.82679 5.80776 2.72465 6.06589 2.72891 6.33329C2.73316 6.60069 2.84346 6.85544 3.03555 7.04151C3.22764 7.22758 3.48577 7.32972 3.75317 7.32547C4.02056 7.32122 4.27532 7.21091 4.46139 7.01883L5.61332 5.82993C5.99469 5.4487 6.42299 5.11752 6.88792 4.84436L10.3756 8.33712L2.54907 16.1645C2.39295 16.3206 2.26911 16.5059 2.18462 16.7098C2.10013 16.9137 2.05664 17.1323 2.05664 17.353C2.05664 17.5737 2.10013 17.7923 2.18462 17.9962C2.26911 18.2002 2.39295 18.3854 2.54907 18.5415L4.28747 20.2799C4.60259 20.5949 5.02994 20.7719 5.47553 20.7719C5.92111 20.7719 6.34846 20.5949 6.66359 20.2799L14.4927 12.4542L14.6196 12.581L16.6067 14.569C16.7627 14.7251 16.948 14.8489 17.1519 14.9334C17.3558 15.0179 17.5744 15.0614 17.7951 15.0614C18.0159 15.0614 18.2344 15.0179 18.4384 14.9334C18.6423 14.8489 18.8276 14.7251 18.9836 14.569L21.3942 12.1576C21.5506 12.0017 21.6749 11.8166 21.7597 11.6127C21.8446 11.4088 21.8884 11.1902 21.8887 10.9694C21.889 10.7485 21.8458 10.5298 21.7615 10.3257C21.6773 10.1216 21.5536 9.93605 21.3975 9.77976ZM5.47553 18.6163L4.21521 17.356L9.45141 12.1181L10.7117 13.3784L5.47553 18.6163ZM12.1401 11.95L10.8798 10.6897L12.519 9.05046C12.613 8.95679 12.6876 8.84548 12.7385 8.72293C12.7894 8.60037 12.8156 8.46898 12.8156 8.33628C12.8156 8.20358 12.7894 8.07218 12.7385 7.94963C12.6876 7.82707 12.613 7.71577 12.519 7.6221L8.96745 4.0722C9.98427 3.88429 11.0315 3.94632 12.0191 4.25296C13.0066 4.5596 13.9048 5.10165 14.6364 5.83245L17.278 8.4934L15.3329 10.4376L15.206 10.3108C15.1124 10.2168 15.001 10.1422 14.8785 10.0913C14.7559 10.0404 14.6245 10.0142 14.4918 10.0142C14.3591 10.0142 14.2277 10.0404 14.1052 10.0913C13.9826 10.1422 13.8713 10.2168 13.7777 10.3108L12.1401 11.95ZM17.7964 12.9003L16.7613 11.866L18.7013 9.92596L19.7348 10.967L17.7964 12.9003Z" fill="#757575"/>
</g>
<defs>
<clipPath id="clip0_378_1056">
<rect width="21.5094" height="21.5094" fill="white" transform="translate(0.376953 0.943237)"/>
</clipPath>
</defs>
</svg>
