<svg width="22" height="22" viewBox="0 0 22 22" fill="none" xmlns="http://www.w3.org/2000/svg">
<path d="M14.7176 8.33004C14.7176 13.1069 7.5478 13.1069 7.5478 8.33004H9.34025C9.34025 10.723 12.9252 10.723 12.9252 8.33004M18.3025 16.3961V19.0848H3.96289V16.3961C3.96289 14.0032 8.73978 12.8112 11.1327 12.8112C13.5256 12.8112 18.3025 14.0032 18.3025 16.3961ZM16.5997 16.3961C16.5997 15.8225 13.7945 14.514 11.1327 14.514C8.47091 14.514 5.66572 15.8225 5.66572 16.3961V17.3819H16.5997M11.5808 2.05646C11.8318 2.05646 12.0289 2.25363 12.0289 2.50457V5.19325H12.9252V2.95268C13.5594 3.24622 14.0908 3.72361 14.4504 4.32291C14.81 4.92221 14.9811 5.61575 14.9417 6.31353C14.9417 6.31353 15.569 6.439 15.6138 7.43382H6.65157C6.65157 6.439 7.32374 6.31353 7.32374 6.31353C7.28426 5.61575 7.45542 4.92221 7.815 4.32291C8.17458 3.72361 8.70598 3.24622 9.34025 2.95268V5.19325H10.2365V2.50457C10.2365 2.25363 10.4336 2.05646 10.6846 2.05646" fill="#757575"/>
</svg>
