<svg width="22" height="23" viewBox="0 0 22 23" fill="none" xmlns="http://www.w3.org/2000/svg">
<path d="M19.5343 13.0912V12.0494C19.5297 10.3536 19.0141 8.69867 18.0549 7.30031C17.0957 5.90194 15.7373 4.82509 14.157 4.2102V3.98334C14.157 3.76267 14.1135 3.54415 14.0291 3.34027C13.9446 3.13639 13.8208 2.95114 13.6648 2.7951C13.5087 2.63906 13.3235 2.51528 13.1196 2.43083C12.9157 2.34638 12.6972 2.30292 12.4765 2.30292H9.78786C9.34219 2.30292 8.91477 2.47996 8.59963 2.7951C8.28448 3.11024 8.10744 3.53767 8.10744 3.98334V4.2102C6.52711 4.82509 5.16875 5.90194 4.20953 7.30031C3.25031 8.69867 2.73475 10.3536 2.73008 12.0494V13.0912C2.35052 13.1687 2.00938 13.375 1.76441 13.6751C1.51943 13.9752 1.38566 14.3507 1.38574 14.7381V16.7546C1.38574 17.2002 1.56279 17.6277 1.87793 17.9428C2.19307 18.2579 2.62049 18.435 3.06617 18.435H19.1982C19.6439 18.435 20.0713 18.2579 20.3865 17.9428C20.7016 17.6277 20.8787 17.2002 20.8787 16.7546V14.7381C20.8787 14.3507 20.745 13.9752 20.5 13.6751C20.255 13.375 19.9139 13.1687 19.5343 13.0912ZM17.5178 12.0494V13.0576H14.157V6.42584C15.1708 6.97471 16.018 7.78664 16.6094 8.77624C17.2008 9.76584 17.5146 10.8965 17.5178 12.0494ZM12.1405 4.31943V13.0576H10.124V4.31943H12.1405ZM8.10744 6.42584V13.0576H4.74659V12.0494C4.74979 10.8965 5.0636 9.76584 5.65503 8.77624C6.24645 7.78664 7.09362 6.97471 8.10744 6.42584ZM18.8622 16.4185H3.40225V15.0741H18.8622V16.4185Z" fill="#757575"/>
</svg>
