<svg width="28" height="28" viewBox="0 0 28 28" fill="none" xmlns="http://www.w3.org/2000/svg">
<path fill-rule="evenodd" clip-rule="evenodd" d="M8.75039 5.54167C8.75039 5.28675 11.3847 3.5 14.0004 3.5C16.6161 3.5 19.2504 5.28675 19.2504 5.54167C19.2504 6.45167 19.1536 6.99067 19.0719 7.28408C19.0176 7.47658 18.8374 7.58333 18.6373 7.58333H9.36347C9.16339 7.58333 8.98314 7.47658 8.92889 7.28408C8.84722 6.99067 8.75039 6.45167 8.75039 5.54167ZM13.1254 5.25C12.9707 5.25 12.8223 5.31146 12.7129 5.42085C12.6035 5.53025 12.5421 5.67862 12.5421 5.83333C12.5421 5.98804 12.6035 6.13642 12.7129 6.24581C12.8223 6.35521 12.9707 6.41667 13.1254 6.41667H14.8754C15.0301 6.41667 15.1785 6.35521 15.2879 6.24581C15.3973 6.13642 15.4587 5.98804 15.4587 5.83333C15.4587 5.67862 15.3973 5.53025 15.2879 5.42085C15.1785 5.31146 15.0301 5.25 14.8754 5.25H13.1254ZM9.35589 11.2105C7.41339 10.6097 7.90339 9.53633 8.64422 8.75H19.5187C20.1114 9.50717 20.4293 10.5286 18.6379 11.1399C18.6573 11.313 18.6671 11.4886 18.6671 11.6667C18.6668 12.2986 18.5382 12.9238 18.2891 13.5046C18.04 14.0853 17.6755 14.6094 17.2178 15.045C16.7601 15.4807 16.2187 15.8189 15.6263 16.0391C15.034 16.2592 14.4032 16.3568 13.772 16.3259C13.1409 16.295 12.5226 16.1362 11.9546 15.8592C11.3867 15.5822 10.8809 15.1927 10.468 14.7144C10.055 14.236 9.74354 13.6788 9.55238 13.0765C9.36122 12.4743 9.29437 11.8394 9.35589 11.2105ZM13.8417 11.6667C15.3829 11.6667 16.5776 11.585 17.4934 11.4427C17.4981 11.5166 17.5004 11.5912 17.5004 11.6667C17.5 12.1338 17.4061 12.5961 17.2242 13.0263C17.0423 13.4565 16.7762 13.846 16.4414 14.1718C16.1067 14.4976 15.7101 14.7531 15.2751 14.9232C14.8401 15.0933 14.3754 15.1746 13.9085 15.1624C13.4415 15.1501 12.9818 15.0445 12.5563 14.8518C12.1308 14.659 11.7482 14.3831 11.431 14.0402C11.1138 13.6973 10.8685 13.2944 10.7095 12.8552C10.5505 12.416 10.4809 11.9494 10.5051 11.4829C11.3585 11.6007 12.4522 11.6667 13.8417 11.6667ZM18.9103 20.1833C18.3827 19.3601 17.6565 18.6828 16.7985 18.2138C15.9404 17.7449 14.9782 17.4994 14.0004 17.5C13.0222 17.4993 12.0595 17.7448 11.2011 18.2139C10.3428 18.6831 9.61631 19.3608 9.08872 20.1845C8.89248 19.8833 8.59188 19.6651 8.24464 19.572L7.11764 19.2704C6.74409 19.1703 6.34606 19.2226 6.0111 19.4159C5.67614 19.6092 5.43167 19.9276 5.33147 20.3012L4.8788 21.9917C4.82923 22.1767 4.81658 22.3696 4.84158 22.5595C4.86658 22.7494 4.92874 22.9325 5.02451 23.0984C5.12028 23.2642 5.24778 23.4096 5.39974 23.5262C5.5517 23.6428 5.72513 23.7283 5.91014 23.7778L7.03655 24.08C7.22605 24.1308 7.42385 24.1428 7.6181 24.1153C7.81235 24.0879 7.99906 24.0215 8.16705 23.9202C8.16752 24.0749 8.22942 24.2231 8.33915 24.3321C8.44887 24.4412 8.59743 24.5022 8.75214 24.5017C8.90685 24.5013 9.05504 24.4394 9.1641 24.3297C9.27317 24.2199 9.33419 24.0714 9.33372 23.9167V23.3333C9.33372 23.1109 9.34889 22.8925 9.37922 22.6782L12.4149 23.492C12.5558 23.7936 12.7798 24.0488 13.0607 24.2275C13.3415 24.4063 13.6675 24.5013 14.0004 24.5013C14.3333 24.5013 14.6593 24.4063 14.9401 24.2275C15.221 24.0488 15.445 23.7936 15.5859 23.492L18.6216 22.6782C18.6515 22.8925 18.6667 23.1109 18.6671 23.3333V23.9167C18.6663 24.0714 18.727 24.2201 18.8358 24.33C18.9447 24.4399 19.0928 24.5021 19.2475 24.5029C19.4022 24.5037 19.5509 24.443 19.6608 24.3341C19.7707 24.2253 19.8329 24.0772 19.8337 23.9225C20.1604 24.1185 20.5641 24.1867 20.9613 24.08L22.0883 23.7784C22.2733 23.7289 22.4467 23.6434 22.5987 23.5268C22.7507 23.4102 22.8782 23.2648 22.9739 23.0989C23.0697 22.9331 23.1319 22.75 23.1569 22.5601C23.1819 22.3702 23.1692 22.1772 23.1196 21.9923L22.6664 20.3018C22.5662 19.9282 22.3217 19.6098 21.9868 19.4165C21.6518 19.2232 21.2538 19.1709 20.8802 19.271L19.7532 19.5726C19.4068 19.6654 19.1067 19.8832 18.9103 20.1833ZM9.68547 21.5518C10.0008 20.7899 10.5121 20.125 11.1675 19.6246C11.8229 19.1243 12.599 18.8062 13.4171 18.7028V21.0998C13.1555 21.1922 12.9196 21.3455 12.7289 21.547C12.5382 21.7486 12.3982 21.9925 12.3204 22.2588L9.68547 21.5518ZM18.3153 21.5518C18 20.7899 17.4887 20.125 16.8333 19.6246C16.1779 19.1243 15.4018 18.8062 14.5837 18.7028V21.0998C15.1111 21.2864 15.5229 21.7181 15.6804 22.2588L18.3153 21.5518ZM14.0004 23.3333C14.1551 23.3333 14.3035 23.2719 14.4129 23.1625C14.5223 23.0531 14.5837 22.9047 14.5837 22.75C14.5837 22.5953 14.5223 22.4469 14.4129 22.3375C14.3035 22.2281 14.1551 22.1667 14.0004 22.1667C13.8457 22.1667 13.6973 22.2281 13.5879 22.3375C13.4785 22.4469 13.4171 22.5953 13.4171 22.75C13.4171 22.9047 13.4785 23.0531 13.5879 23.1625C13.6973 23.2719 13.8457 23.3333 14.0004 23.3333Z" fill="#1B1F26"/>
</svg>
