<svg width="22" height="23" viewBox="0 0 22 23" fill="none" xmlns="http://www.w3.org/2000/svg">
<g clip-path="url(#clip0_378_1070)">
<path d="M10.4594 8.22393C10.4594 8.04566 10.5302 7.87469 10.6563 7.74863C10.7823 7.62258 10.9533 7.55176 11.1316 7.55176C11.3098 7.55176 11.4808 7.62258 11.6069 7.74863C11.7329 7.87469 11.8037 8.04566 11.8037 8.22393V16.9621C11.8037 17.1404 11.7329 17.3114 11.6069 17.4374C11.4808 17.5635 11.3098 17.6343 11.1316 17.6343C10.9533 17.6343 10.7823 17.5635 10.6563 17.4374C10.5302 17.3114 10.4594 17.1404 10.4594 16.9621V8.22393ZM15.8368 8.56001C15.8368 8.82742 15.7305 9.08387 15.5415 9.27296C15.3524 9.46204 15.0959 9.56827 14.8285 9.56827C14.5611 9.56827 14.3047 9.46204 14.1156 9.27296C13.9265 9.08387 13.8203 8.82742 13.8203 8.56001C13.8203 8.29261 13.9265 8.03615 14.1156 7.84707C14.3047 7.65798 14.5611 7.55176 14.8285 7.55176C15.0959 7.55176 15.3524 7.65798 15.5415 7.84707C15.7305 8.03615 15.8368 8.29261 15.8368 8.56001ZM13.6536 10.6121L13.2032 12.6219C13.1934 12.6696 13.1736 12.7146 13.145 12.754C13.1165 12.7934 13.0799 12.8262 13.0377 12.8504C12.9955 12.8746 12.9486 12.8895 12.9002 12.8941C12.8518 12.8988 12.8029 12.893 12.7569 12.8774C12.6587 12.8442 12.5762 12.7762 12.5248 12.6863C12.4734 12.5964 12.4567 12.4907 12.4779 12.3894L12.9774 10.1645L12.9888 10.1678C13.0346 10.0359 13.1204 9.92148 13.2342 9.84053C13.3481 9.75957 13.4843 9.7161 13.624 9.71614H16.033C16.1727 9.7161 16.309 9.75957 16.4228 9.84053C16.5366 9.92148 16.6224 10.0359 16.6682 10.1678L16.6797 10.1638L17.1791 12.3894C17.2001 12.4906 17.1834 12.5961 17.132 12.6859C17.0806 12.7757 16.9981 12.8435 16.9001 12.8767C16.8541 12.8923 16.8053 12.8979 16.757 12.8932C16.7087 12.8885 16.6619 12.8735 16.6198 12.8494C16.5776 12.8252 16.5411 12.7924 16.5126 12.7531C16.4841 12.7138 16.4643 12.6688 16.4545 12.6213L16.0035 10.6115H15.5793L16.3301 13.7492V13.8607C16.3301 13.9499 16.2947 14.0354 16.2317 14.0984C16.1687 14.1614 16.0832 14.1968 15.9941 14.1968H15.9544V16.5104C15.9544 16.61 15.9148 16.7055 15.8444 16.7759C15.774 16.8463 15.6786 16.8858 15.579 16.8858C15.4794 16.8858 15.3839 16.8463 15.3135 16.7759C15.2431 16.7055 15.2036 16.61 15.2036 16.5104V14.1968H14.4534V16.5104C14.4534 16.61 14.4139 16.7055 14.3435 16.7759C14.2731 16.8463 14.1776 16.8858 14.078 16.8858C13.9785 16.8858 13.883 16.8463 13.8126 16.7759C13.7422 16.7055 13.7026 16.61 13.7026 16.5104V14.1968H13.663C13.5738 14.1968 13.4883 14.1614 13.4253 14.0984C13.3623 14.0354 13.3269 13.9499 13.3269 13.8607V13.7492L14.0777 10.6121H13.6536ZM8.4429 8.56001C8.4429 8.82742 8.33667 9.08387 8.14759 9.27296C7.9585 9.46204 7.70205 9.56827 7.43464 9.56827C7.16724 9.56827 6.91078 9.46204 6.7217 9.27296C6.53261 9.08387 6.42639 8.82742 6.42639 8.56001C6.42639 8.29261 6.53261 8.03615 6.7217 7.84707C6.91078 7.65798 7.16724 7.55176 7.43464 7.55176C7.70205 7.55176 7.9585 7.65798 8.14759 7.84707C8.33667 8.03615 8.4429 8.29261 8.4429 8.56001ZM8.83477 10.0912C9.36041 10.0912 9.78724 10.518 9.78724 11.0444V13.2504C9.788 13.3617 9.74628 13.4691 9.67059 13.5506C9.59489 13.6322 9.49092 13.6818 9.3799 13.6893C9.32203 13.6922 9.26419 13.6832 9.2099 13.663C9.1556 13.6428 9.10598 13.6117 9.06405 13.5717C9.02212 13.5318 8.98875 13.4837 8.96598 13.4304C8.9432 13.3771 8.93149 13.3198 8.93156 13.2618V11.16C8.9285 11.1054 8.90468 11.0541 8.865 11.0166C8.82531 10.9791 8.77277 10.9582 8.71815 10.9582C8.66353 10.9582 8.61099 10.9791 8.5713 11.0166C8.53162 11.0541 8.5078 11.1054 8.50474 11.16V16.5346C8.50471 16.5925 8.49294 16.6498 8.47012 16.703C8.44731 16.7562 8.41393 16.8042 8.372 16.8441C8.33008 16.884 8.2805 16.915 8.22624 16.9352C8.17199 16.9553 8.11421 16.9643 8.0564 16.9615C7.94549 16.9538 7.84169 16.9041 7.76614 16.8225C7.69058 16.741 7.64896 16.6337 7.64974 16.5225V13.5334C7.64974 13.4766 7.62718 13.4222 7.58703 13.382C7.54688 13.3419 7.49243 13.3193 7.43565 13.3193C7.37887 13.3193 7.32442 13.3419 7.28427 13.382C7.24412 13.4222 7.22156 13.4766 7.22156 13.5334V16.5346C7.22154 16.5925 7.20977 16.6498 7.18695 16.703C7.16413 16.7562 7.13075 16.8042 7.08883 16.8441C7.04691 16.884 6.99732 16.915 6.94307 16.9352C6.88882 16.9553 6.83104 16.9643 6.77323 16.9615C6.66232 16.9538 6.55852 16.9041 6.48297 16.8225C6.40741 16.741 6.36578 16.6337 6.36656 16.5225V11.1613C6.36656 11.1044 6.34397 11.0499 6.30376 11.0097C6.26355 10.9695 6.20901 10.9469 6.15214 10.9469C6.09527 10.9469 6.04073 10.9695 6.00052 11.0097C5.96031 11.0499 5.93772 11.1044 5.93772 11.1613V13.2618C5.93779 13.3198 5.92608 13.3771 5.9033 13.4304C5.88053 13.4837 5.84716 13.5318 5.80523 13.5717C5.7633 13.6117 5.71368 13.6428 5.65939 13.663C5.60509 13.6832 5.54725 13.6922 5.48938 13.6893C5.37824 13.6818 5.27418 13.6321 5.19846 13.5504C5.12275 13.4687 5.08111 13.3611 5.08205 13.2497V11.0444C5.08205 10.518 5.50887 10.0912 6.03518 10.0912H8.83477Z" fill="#757575"/>
<path d="M3.7373 7.5517C3.7373 7.19516 3.87894 6.85322 4.13105 6.6011C4.38317 6.34899 4.7251 6.20736 5.08164 6.20736H17.1807C17.5372 6.20736 17.8792 6.34899 18.1313 6.6011C18.3834 6.85322 18.525 7.19516 18.525 7.5517V17.6342C18.525 17.9908 18.3834 18.3327 18.1313 18.5848C17.8792 18.8369 17.5372 18.9786 17.1807 18.9786H5.08164C4.7251 18.9786 4.38317 18.8369 4.13105 18.5848C3.87894 18.3327 3.7373 17.9908 3.7373 17.6342V7.5517ZM5.08164 6.87953C4.90337 6.87953 4.7324 6.95034 4.60635 7.0764C4.48029 7.20246 4.40947 7.37343 4.40947 7.5517V17.6342C4.40947 17.8125 4.48029 17.9835 4.60635 18.1095C4.7324 18.2356 4.90337 18.3064 5.08164 18.3064H17.1807C17.359 18.3064 17.5299 18.2356 17.656 18.1095C17.7821 17.9835 17.8529 17.8125 17.8529 17.6342V7.5517C17.8529 7.37343 17.7821 7.20246 17.656 7.0764C17.5299 6.95034 17.359 6.87953 17.1807 6.87953H5.08164ZM13.7748 5.53519C13.7453 5.58627 13.7029 5.6287 13.6518 5.65819C13.6007 5.68769 13.5428 5.70321 13.4838 5.70321C13.4248 5.70321 13.3668 5.68769 13.3157 5.65819C13.2646 5.6287 13.2222 5.58627 13.1927 5.53519L12.3189 4.0228C12.2894 3.97166 12.2738 3.91365 12.2739 3.8546C12.2739 3.79554 12.2895 3.73754 12.3191 3.68643C12.3486 3.63532 12.3912 3.59291 12.4423 3.56346C12.4935 3.53401 12.5516 3.51856 12.6106 3.51868H14.3569C14.4159 3.51868 14.4739 3.53421 14.525 3.56371C14.576 3.59321 14.6185 3.63563 14.648 3.68672C14.6775 3.73781 14.693 3.79577 14.693 3.85476C14.693 3.91376 14.6775 3.97171 14.648 4.0228L13.7748 5.53519ZM9.06963 3.68672C9.04013 3.63563 8.9977 3.59321 8.94661 3.56371C8.89552 3.53422 8.83757 3.51869 8.77858 3.51869C8.71959 3.51869 8.66163 3.53422 8.61054 3.56371C8.55945 3.59321 8.51703 3.63563 8.48753 3.68672L7.61371 5.1991C7.58418 5.25024 7.56865 5.30826 7.56868 5.36731C7.56871 5.42636 7.5843 5.48436 7.61387 5.53547C7.64345 5.58659 7.68597 5.629 7.73715 5.65845C7.78834 5.6879 7.84638 5.70335 7.90543 5.70323H9.65173C9.71072 5.70323 9.76868 5.6877 9.81977 5.6582C9.87086 5.6287 9.91328 5.58627 9.94278 5.53518C9.97228 5.48409 9.9878 5.42614 9.9878 5.36714C9.9878 5.30815 9.97227 5.25019 9.94278 5.1991L9.06963 3.68672Z" fill="#757575"/>
<path d="M1.04883 4.86305C1.04883 3.97169 1.40292 3.11685 2.0332 2.48657C2.66348 1.85629 3.51832 1.5022 4.40968 1.5022H17.8531C18.2944 1.5022 18.7315 1.58913 19.1392 1.75803C19.547 1.92693 19.9175 2.17448 20.2296 2.48657C20.5416 2.79865 20.7892 3.16915 20.9581 3.57691C21.127 3.98466 21.2139 4.42169 21.2139 4.86305V18.3064C21.2139 19.1978 20.8598 20.0526 20.2296 20.6829C19.5993 21.3132 18.7444 21.6673 17.8531 21.6673H4.40968C3.96832 21.6673 3.53129 21.5804 3.12354 21.4115C2.71578 21.2426 2.34528 20.995 2.0332 20.6829C1.40292 20.0526 1.04883 19.1978 1.04883 18.3064V4.86305ZM4.40968 2.84654C3.87487 2.84654 3.36196 3.05899 2.98379 3.43716C2.60562 3.81533 2.39317 4.32823 2.39317 4.86305V18.3064C2.39317 18.8413 2.60562 19.3542 2.98379 19.7323C3.36196 20.1105 3.87487 20.323 4.40968 20.323H17.8531C18.3879 20.323 18.9008 20.1105 19.279 19.7323C19.6571 19.3542 19.8696 18.8413 19.8696 18.3064V4.86305C19.8696 4.32823 19.6571 3.81533 19.279 3.43716C18.9008 3.05899 18.3879 2.84654 17.8531 2.84654H4.40968Z" fill="#757575"/>
</g>
<defs>
<clipPath id="clip0_378_1070">
<rect width="21.5094" height="21.5094" fill="white" transform="translate(0.376953 0.830017)"/>
</clipPath>
</defs>
</svg>
