<svg width="22" height="23" viewBox="0 0 22 23" fill="none" xmlns="http://www.w3.org/2000/svg">
<path d="M3.06602 3.33001C3.06602 3.15174 3.13684 2.98077 3.26289 2.85471C3.38895 2.72865 3.55992 2.65784 3.73819 2.65784H18.5259C18.7042 2.65784 18.8752 2.72865 19.0012 2.85471C19.1273 2.98077 19.1981 3.15174 19.1981 3.33001C19.1981 3.50828 19.1273 3.67925 19.0012 3.8053C18.8752 3.93136 18.7042 4.00218 18.5259 4.00218H16.5094C16.5094 4.3759 16.2379 4.67435 15.8977 4.67435H15.5012V6.75135C16.0725 6.90595 16.496 7.43696 16.496 8.05536C16.496 8.52319 16.254 8.93725 15.889 9.17788L16.5074 10.0517H19.5248C19.615 10.051 19.7019 10.0859 19.7666 10.1488C19.8312 10.2117 19.8685 10.2976 19.8703 10.3878C19.8703 10.4322 19.8615 10.4761 19.8444 10.517C19.8274 10.558 19.8024 10.5951 19.7709 10.6264C19.7394 10.6576 19.702 10.6823 19.6609 10.6991C19.6198 10.7158 19.5759 10.7242 19.5315 10.7239H19.1981V12.7404H19.5248C19.615 12.7397 19.7019 12.7745 19.7666 12.8375C19.8312 12.9004 19.8685 12.9863 19.8703 13.0765C19.8685 13.1667 19.8312 13.2526 19.7666 13.3155C19.7019 13.3784 19.615 13.4133 19.5248 13.4126H18.8405C18.8501 13.474 18.842 13.537 18.8173 13.5941C18.7925 13.6512 18.7521 13.7001 18.7007 13.7352C18.6402 13.7755 18.573 13.7957 18.5058 13.7957C18.3982 13.7957 18.2974 13.7486 18.2302 13.6545L18.0588 13.4126H12.2445L12.0731 13.6545C12.0059 13.7486 11.9051 13.7957 11.7975 13.7957C11.7303 13.7957 11.6631 13.7755 11.6026 13.7352C11.5512 13.7001 11.5108 13.6512 11.486 13.5941C11.4613 13.537 11.4532 13.474 11.4628 13.4126H10.8054C10.7152 13.4133 10.6283 13.3784 10.5636 13.3155C10.4989 13.2526 10.4617 13.1667 10.4599 13.0765C10.4599 12.8923 10.6158 12.7404 10.8054 12.7404H11.1321V10.7239H10.8054C10.7152 10.7246 10.6283 10.6897 10.5636 10.6268C10.4989 10.5639 10.4617 10.478 10.4599 10.3878C10.4599 10.2036 10.6158 10.0517 10.8054 10.0517H13.7965L14.4149 9.17788C14.2286 9.05579 14.0755 8.88928 13.9694 8.69334C13.8633 8.4974 13.8076 8.27817 13.8073 8.05536C13.8073 7.86715 13.9619 7.71928 14.1434 7.71928C14.3316 7.71928 14.4795 7.86715 14.4795 8.05536C14.4795 8.29734 14.6092 8.51109 14.8028 8.62939L14.8599 8.54873C14.8747 8.52415 14.8925 8.50156 14.913 8.48152C14.9443 8.45012 14.9815 8.42523 15.0225 8.40828C15.0634 8.39132 15.1073 8.38263 15.1516 8.38271C15.239 8.38204 15.3264 8.41632 15.3903 8.48152C15.411 8.50152 15.4291 8.52412 15.444 8.54873L15.5005 8.62939C15.6941 8.51109 15.8238 8.29734 15.8238 8.05536C15.8238 7.68567 15.5348 7.38991 15.1651 7.38319C15.0508 7.38319 14.9433 7.3227 14.8828 7.22859C14.8431 7.17647 14.8218 7.11263 14.8223 7.04711C14.8223 7.02022 14.8223 7.00005 14.829 6.97317V4.67435H14.4324C14.0923 4.67435 13.8207 4.3759 13.8207 4.00218H9.78772V18.1177H10.2918C10.7556 18.1177 11.1321 18.4942 11.1321 18.958V19.4621H19.2048C19.9442 19.4621 20.5424 20.0637 20.5424 20.8064H1.72168C1.72168 20.0637 2.31991 19.4621 3.0593 19.4621H3.73819V18.958C3.73819 18.4942 4.1146 18.1177 4.5784 18.1177H5.08253V4.00218H3.73819C3.55992 4.00218 3.38895 3.93136 3.26289 3.8053C3.13684 3.67925 3.06602 3.50828 3.06602 3.33001ZM5.7547 5.34652V6.81924L8.70015 5.34652H5.7547ZM6.1701 18.1177H9.11555V16.645L6.1701 18.1177ZM8.70015 16.1012H5.7547V17.574L8.70015 16.1012ZM6.1701 7.36303H9.11555V5.8903L6.1701 7.36303ZM8.70015 8.0352H5.7547V9.50792L8.70015 8.0352ZM6.1701 10.0517H9.11555V8.57898L6.1701 10.0517ZM8.70015 10.7239H5.7547V12.1966L8.70015 10.7239ZM6.1701 12.7404H9.11555V11.2677L6.1701 12.7404ZM8.70015 13.4126H5.7547V14.8853L8.70015 13.4126ZM6.1701 15.4291H9.11555V13.9563L6.1701 15.4291ZM15.0858 9.39836L14.6233 10.0517H15.68L15.2175 9.39836C15.1736 9.40051 15.1296 9.40051 15.0858 9.39836ZM13.3206 10.7239H11.8042V12.7404H11.893L13.3206 10.7239ZM12.7204 12.7404H17.5829L16.1559 10.7239H14.1474L12.7204 12.7404ZM16.9833 10.7239L18.4103 12.7404H18.5259V10.7239H16.9833Z" fill="#757575"/>
</svg>
