<svg width="22" height="22" viewBox="0 0 22 22" fill="none" xmlns="http://www.w3.org/2000/svg">
<path d="M16.3166 1.35052L15.1378 5.02255L16.3254 5.27213L16.1953 5.91708L14.0002 7.92699L11.8367 6.11528L10.8534 5.94334C11.1986 5.34132 11.4703 4.56665 11.5426 3.85986C11.9635 3.76408 13.0096 3.62145 13.479 3.43728C13.2691 3.0052 12.2104 2.72704 11.4331 2.75183C11.3603 1.88167 11.06 1.53125 9.99822 1.57965C8.93636 1.62801 8.61305 1.85696 8.73118 3.1098C7.93861 3.28318 7.13071 3.63981 7.06168 4.24762C7.39231 4.23472 8.44635 4.12596 8.77252 4.12112C8.80025 4.71347 8.95737 5.29099 9.19137 5.64926L7.71436 5.39195L4.83008 8.5703L8.07935 10.9176L8.14761 11.6253L6.71127 20.6891H8.32343L9.93306 13.5788L11.9442 20.6891H13.5184L13.3687 19.9998L14.0868 20.6891L16.7361 7.13929C16.9465 6.94857 17.1253 6.783 17.2441 6.66407C17.2516 6.2214 17.1375 5.8683 17.0301 5.63481L17.0709 5.42887L18.2152 5.66934L18.5699 1.75744L17.6102 4.64697L17.1544 4.5522L17.4332 1.49979L16.5271 4.42163L16.0559 4.32362L16.3166 1.35052ZM17.4332 1.49979L17.4333 1.49937H17.4332V1.49979ZM8.05834 6.78351L8.07279 9.47618L6.74946 8.47842L8.05834 6.78351ZM11.7566 7.67632L13.8939 9.60616C13.8939 9.60616 14.8598 8.7888 15.7791 7.98745L13.3661 19.9841L11.5675 11.6858L11.7566 7.67632Z" fill="#757575"/>
</svg>
