<svg width="22" height="23" viewBox="0 0 22 23" fill="none" xmlns="http://www.w3.org/2000/svg">
<g clip-path="url(#clip0_378_1026)">
<path d="M11.1643 3.9108C11.3451 3.91137 11.5242 3.87624 11.6914 3.80744C11.8586 3.73864 12.0105 3.63751 12.1385 3.50986C12.2666 3.38221 12.3681 3.23054 12.4374 3.06356C12.5067 2.89658 12.5423 2.71756 12.5422 2.53678C12.5422 1.7818 11.9271 1.16319 11.1643 1.16319C10.4016 1.16319 9.78644 1.7818 9.78644 2.53678C9.78644 2.71755 9.82211 2.89654 9.89141 3.06349C9.9607 3.23045 10.0623 3.38209 10.1903 3.50973C10.3183 3.63737 10.4702 3.7385 10.6373 3.80733C10.8045 3.87615 10.9836 3.91131 11.1643 3.9108ZM19.806 19.6592C19.413 19.4755 18.9845 19.3802 18.5507 19.38C18.117 19.3815 17.6888 19.4768 17.2954 19.6592C16.9267 19.8213 16.5133 19.9194 16.0805 19.9194C15.6478 19.9194 15.2292 19.8209 14.8597 19.6592C14.4807 19.4828 14.0531 19.38 13.6052 19.38C13.1574 19.38 12.7289 19.4828 12.3499 19.6592C11.9655 19.8289 11.5502 19.9175 11.1299 19.9194C10.7096 19.917 10.2942 19.8284 9.90948 19.6592C9.51661 19.4755 9.08828 19.3802 8.65462 19.38C8.22111 19.3816 7.79307 19.4768 7.39976 19.6592C7.01823 19.829 6.60554 19.9176 6.18792 19.9194C5.76753 19.9176 5.35204 19.829 4.96747 19.6592C4.58847 19.4828 4.16044 19.38 3.71261 19.38C3.26478 19.38 2.83675 19.4828 2.45775 19.6592C2.07321 19.8291 1.65773 19.9179 1.2373 19.9198V21.7395C1.6579 21.7396 2.07377 21.6509 2.45775 21.4793C2.83675 21.3029 3.26478 21.2001 3.71261 21.2001C4.16044 21.2001 4.58847 21.3029 4.96747 21.4793C5.3499 21.651 5.76438 21.7398 6.18361 21.7398C6.60285 21.7398 7.01733 21.651 7.39976 21.4793C7.79307 21.297 8.22111 21.2017 8.65462 21.2001C9.10244 21.2001 9.53048 21.3029 9.90948 21.4793C10.2934 21.6509 10.7092 21.7396 11.1297 21.7396C11.5502 21.7396 11.966 21.6509 12.3499 21.4793C12.7289 21.3029 13.1574 21.2001 13.6052 21.2001C14.0531 21.2001 14.4807 21.3029 14.8597 21.4793C15.2292 21.6462 15.6478 21.7395 16.0805 21.7395C16.5133 21.7395 16.9267 21.6462 17.2954 21.4793C17.6888 21.2969 18.117 21.2017 18.5507 21.2001C18.9985 21.2001 19.4261 21.3029 19.806 21.4793C20.1789 21.6462 20.5932 21.7395 21.026 21.7395V19.9198C20.6057 19.9178 20.1904 19.8291 19.806 19.6592ZM19.9195 1.10898C19.8206 1.06984 19.6709 1.09393 19.5917 1.16792L14.5512 6.24243C14.4725 6.20801 14.368 6.25275 14.2742 6.25275H12.3702C12.0449 5.82256 10.3229 4.14225 10.3229 4.14225C10.2347 4.05363 10.1211 3.97232 10.008 3.94307C9.61437 3.59935 9.01899 3.58816 8.63999 3.96587L5.69406 6.92126C5.58092 7.03397 5.53919 7.18282 5.53919 7.34973V9.26407H1.2373V10.1244H5.53919V15.0815C5.53919 15.695 5.99863 16.1905 6.61165 16.1905C7.2208 16.1905 7.69014 15.695 7.69014 15.0815V10.1244H10.7015V16.5773H1.2373V17.8678H11.5618V10.1244H12.8524V9.26407H7.69014V8.9096L10.4756 6.14305L11.6126 7.30929C11.7348 7.43663 11.912 7.54332 12.0944 7.54332H14.2737C14.6489 7.54332 15.0033 7.4861 15.0033 7.11313C15.0033 7.02451 15.0317 6.76166 15.0033 6.68294C16.1941 5.49562 19.3052 2.57593 19.7354 1.98227V17.8678H20.1656V1.35419C20.1656 1.24621 20.0176 1.15329 19.9195 1.10898Z" fill="#757575"/>
</g>
<defs>
<clipPath id="clip0_378_1026">
<rect width="21.5094" height="21.5094" fill="white" transform="translate(0.376953 0.660278)"/>
</clipPath>
</defs>
</svg>
