<svg width="24" height="24" viewBox="0 0 24 24" fill="none" xmlns="http://www.w3.org/2000/svg">
<path d="M7.65918 6.6075C8.00068 5.5315 8.86418 4.6415 9.99968 4.154V5.5C9.99968 5.63261 10.0524 5.75979 10.1461 5.85355C10.2399 5.94732 10.3671 6 10.4997 6C10.6323 6 10.7595 5.94732 10.8532 5.85355C10.947 5.75979 10.9997 5.63261 10.9997 5.5V3.5C10.9997 3.36739 11.0524 3.24021 11.1461 3.14645C11.2399 3.05268 11.3671 3 11.4997 3H12.4997C12.6323 3 12.7595 3.05268 12.8532 3.14645C12.947 3.24021 12.9997 3.36739 12.9997 3.5V5.5C12.9997 5.63261 13.0524 5.75979 13.1461 5.85355C13.2399 5.94732 13.3671 6 13.4997 6C13.6323 6 13.7595 5.94732 13.8532 5.85355C13.947 5.75979 13.9997 5.63261 13.9997 5.5V4.154C15.1517 4.6485 16.0232 5.5565 16.3547 6.6535C16.2262 6.7575 16.0117 6.8835 15.6772 7.0055C14.9312 7.2775 13.6797 7.5 11.7367 7.5C10.3372 7.5 9.21268 7.282 8.45418 7.005C8.08768 6.8715 7.82418 6.7305 7.65918 6.6075Z" fill="black"/>
<path fill-rule="evenodd" clip-rule="evenodd" d="M16.02 7.94501C16.4625 7.78301 16.8115 7.58901 17.0595 7.36601C17.343 7.63751 17.5 7.93601 17.5 8.25001C17.5 8.84901 16.928 9.39351 15.995 9.79651C15.9983 9.86385 16 9.93168 16 10C15.9995 10.5336 15.8923 11.0616 15.6847 11.5531C15.477 12.0446 15.1731 12.4896 14.7909 12.8619C14.4087 13.2341 13.9559 13.5262 13.4591 13.7208C12.9623 13.9154 12.4316 14.0087 11.8982 13.9951C11.3648 13.9815 10.8396 13.8614 10.3533 13.6418C9.86708 13.4221 9.4297 13.1074 9.06692 12.7162C8.70414 12.3249 8.42329 11.8651 8.24092 11.3636C8.05855 10.8622 7.97834 10.3294 8.005 9.79651C7.072 9.39351 6.5 8.84901 6.5 8.25001C6.5 7.92501 6.668 7.61651 6.9705 7.33801L7.027 7.38301C7.299 7.59351 7.671 7.78401 8.112 7.94451C8.9975 8.26801 10.2415 8.50001 11.737 8.50001C13.741 8.50001 15.1215 8.27251 16.02 7.94501ZM9.003 10.137C9.03754 10.9087 9.36838 11.6373 9.92664 12.1711C10.4849 12.7049 11.2276 13.0029 12 13.0029C12.7724 13.0029 13.5151 12.7049 14.0734 12.1711C14.6316 11.6373 14.9625 10.9087 14.997 10.137C14.135 10.367 13.105 10.5 12 10.5C10.895 10.5 9.865 10.3665 9.003 10.137ZM3 21H13.5V15.25L12.5 16V17.9485C12.3362 17.9866 12.1682 18.0039 12 18C11.7625 18 11.6025 17.975 11.5 17.9485V16.111L9.1765 14.304C6.26 14.864 3 16.169 3 18V21ZM6.5 20H10.5V17.59L7.2375 18.134L8.1755 15.555C7.60732 15.7015 7.04792 15.8801 6.5 16.09V20ZM4 20H5.5V16.5395L5.463 16.559C4.931 16.841 4.542 17.1285 4.297 17.399C4.057 17.665 4 17.8615 4 18V20Z" fill="black"/>
<path d="M16.285 12.8251C16.574 12.5301 16.975 12.8276 16.887 13.2311L16.874 13.2901C16.829 13.4957 16.8307 13.7088 16.879 13.9137C16.9273 14.1186 17.0208 14.3101 17.1528 14.4741C17.2848 14.6381 17.4519 14.7704 17.6418 14.8613C17.8317 14.9522 18.0395 14.9994 18.25 14.9994C18.4605 14.9994 18.6683 14.9522 18.8582 14.8613C19.0481 14.7704 19.2152 14.6381 19.3472 14.4741C19.4792 14.3101 19.5727 14.1186 19.621 13.9137C19.6693 13.7088 19.671 13.4957 19.626 13.2901L19.613 13.2311C19.525 12.8276 19.926 12.5306 20.215 12.8256C20.7191 13.3389 21.0011 14.03 21 14.7496C21.0001 15.2159 20.8816 15.6746 20.6557 16.0825C20.4298 16.4904 20.1038 16.8342 19.7085 17.0816C19.569 17.1686 19.5 17.3356 19.5 17.5001V20.0001C19.5 20.2653 19.3946 20.5196 19.2071 20.7072C19.0196 20.8947 18.7652 21.0001 18.5 21.0001H18C17.7348 21.0001 17.4804 20.8947 17.2929 20.7072C17.1054 20.5196 17 20.2653 17 20.0001V17.5001C17 17.3356 16.931 17.1686 16.7915 17.0816C16.3962 16.8342 16.0702 16.4904 15.8443 16.0825C15.6184 15.6746 15.4999 15.2159 15.5 14.7496C15.5 14.0006 15.7995 13.3206 16.285 12.8251Z" fill="black"/>
</svg>
