<svg width="20" height="19" viewBox="0 0 20 19" fill="none" xmlns="http://www.w3.org/2000/svg">
<path d="M19.879 8.4292C19.8774 7.09265 19.3458 5.81128 18.4007 4.8662C17.4556 3.92111 16.1742 3.38948 14.8377 3.38792C14.7537 3.38792 14.6738 3.38792 14.5923 3.39465C14.1644 2.58259 13.5228 1.90278 12.7369 1.42857C11.9509 0.954359 11.0504 0.703735 10.1325 0.703735C9.21456 0.703735 8.31406 0.954359 7.52811 1.42857C6.74216 1.90278 6.1006 2.58259 5.67264 3.39465C5.59534 3.38792 5.51132 3.38792 5.4273 3.38792C4.30302 3.39026 3.21177 3.76835 2.32705 4.46209C1.44232 5.15583 0.814878 6.1254 0.544471 7.21669C0.274064 8.30797 0.376208 9.45833 0.834667 10.4849C1.29313 11.5115 2.08158 12.3553 3.07471 12.8823V16.4952C3.07471 16.9409 3.25175 17.3683 3.56689 17.6835C3.88203 17.9986 4.30946 18.1757 4.75513 18.1757H15.5098C15.9555 18.1757 16.3829 17.9986 16.6981 17.6835C17.0132 17.3683 17.1903 16.9409 17.1903 16.4952V12.8823C18.0009 12.4546 18.6796 11.814 19.1533 11.0293C19.6271 10.2447 19.8779 9.34576 19.879 8.4292ZM15.1738 16.1592H5.09122V13.4579C5.20213 13.4654 5.31387 13.4705 5.4273 13.4705H14.8377C14.9511 13.4705 15.0629 13.4654 15.1738 13.4579V16.1592ZM14.8377 11.454H14.1126L14.4713 10.018C14.5311 9.76046 14.4872 9.48973 14.3492 9.26417C14.2113 9.03861 13.9902 8.87628 13.7337 8.81215C13.4772 8.74802 13.2057 8.78723 12.9778 8.92132C12.7499 9.05541 12.5838 9.27365 12.5153 9.52904L12.0339 11.454H11.1407V9.77354C11.1407 9.50613 11.0345 9.24968 10.8454 9.06059C10.6563 8.87151 10.3999 8.76528 10.1325 8.76528C9.86508 8.76528 9.60863 8.87151 9.41955 9.06059C9.23046 9.24968 9.12424 9.50613 9.12424 9.77354V11.454H8.23109L7.74965 9.52904C7.71941 9.39863 7.66351 9.27556 7.58521 9.16699C7.50691 9.05842 7.40777 8.96653 7.29358 8.89668C7.17939 8.82683 7.05244 8.78041 6.92012 8.76014C6.7878 8.73987 6.65278 8.74616 6.52291 8.77862C6.39305 8.81109 6.27095 8.86909 6.16374 8.94924C6.05653 9.02939 5.96635 9.13009 5.89847 9.24546C5.83058 9.36083 5.78635 9.48856 5.76835 9.62121C5.75035 9.75385 5.75895 9.88875 5.79363 10.018L6.1524 11.454H5.4273C4.65346 11.4537 3.90915 11.1568 3.34752 10.6245C2.78588 10.0921 2.44965 9.36474 2.40799 8.59202C2.36634 7.81929 2.62243 7.05999 3.12358 6.47034C3.62473 5.88069 4.33281 5.50554 5.10214 5.42208C5.09542 5.52794 5.09122 5.63381 5.09122 5.74052C5.09122 6.00792 5.19744 6.26438 5.38653 6.45346C5.57561 6.64255 5.83207 6.74877 6.09947 6.74877C6.36688 6.74877 6.62333 6.64255 6.81242 6.45346C7.0015 6.26438 7.10773 6.00792 7.10773 5.74052C7.10773 4.9383 7.42641 4.16894 7.99366 3.60169C8.56091 3.03443 9.33027 2.71575 10.1325 2.71575C10.9347 2.71575 11.7041 3.03443 12.2713 3.60169C12.8386 4.16894 13.1573 4.9383 13.1573 5.74052C13.1573 6.00792 13.2635 6.26438 13.4526 6.45346C13.6417 6.64255 13.8981 6.74877 14.1655 6.74877C14.4329 6.74877 14.6894 6.64255 14.8785 6.45346C15.0675 6.26438 15.1738 6.00792 15.1738 5.74052C15.1738 5.63381 15.1696 5.52794 15.1628 5.42208C15.9322 5.50554 16.6403 5.88069 17.1414 6.47034C17.6426 7.05999 17.8986 7.81929 17.857 8.59202C17.8153 9.36474 17.4791 10.0921 16.9175 10.6245C16.3558 11.1568 15.6115 11.4537 14.8377 11.454Z" fill="#757575"/>
</svg>
