<svg width="22" height="22" viewBox="0 0 22 22" fill="none" xmlns="http://www.w3.org/2000/svg">
<path fill-rule="evenodd" clip-rule="evenodd" d="M11.7656 2.35682L15.3505 5.94173C15.4864 6.07763 15.575 6.25362 15.6032 6.44371C15.6315 6.63381 15.5979 6.82795 15.5073 6.99749C15.286 7.41244 14.94 7.69206 14.6022 7.88206L17.143 10.4229C17.311 10.5909 17.4054 10.8188 17.4054 11.0565C17.4054 11.2941 17.311 11.5221 17.143 11.6901C16.7146 12.1185 16.1732 12.3802 15.6785 12.5433L18.0392 14.904C18.1472 15.0121 18.2259 15.146 18.2676 15.293C18.3093 15.4401 18.3127 15.5953 18.2775 15.7441C18.2423 15.8928 18.1696 16.03 18.0664 16.1428C17.9632 16.2555 17.8329 16.34 17.6879 16.3881C17.0677 16.5934 16.4287 16.7368 15.7888 16.8649C15.303 16.9617 14.7357 17.0585 14.1039 17.1392L14.6712 18.8393C14.716 18.9741 14.7283 19.1175 14.7068 19.2579C14.6854 19.3983 14.6309 19.5316 14.5478 19.6467C14.4647 19.7619 14.3555 19.8557 14.2291 19.9204C14.1026 19.9851 13.9627 20.0188 13.8206 20.0188H8.44329C8.30128 20.0188 8.1613 19.9851 8.03487 19.9204C7.90845 19.8557 7.7992 19.7619 7.71614 19.6467C7.63308 19.5316 7.57858 19.3983 7.55713 19.2579C7.53568 19.1175 7.54789 18.9741 7.59277 18.8393L8.16008 17.1392C7.5954 17.0676 7.03341 16.9761 6.47518 16.8649C5.99601 16.769 5.52041 16.656 5.04928 16.5262L4.57428 16.3881C4.42938 16.3398 4.29925 16.2551 4.19625 16.1423C4.09325 16.0295 4.0208 15.8922 3.98578 15.7435C3.95076 15.5948 3.95433 15.4396 3.99616 15.2927C4.03798 15.1458 4.11667 15.012 4.22475 14.904L6.58541 12.5433C6.09069 12.3811 5.54937 12.1185 5.12098 11.6901C4.95296 11.5221 4.85857 11.2941 4.85857 11.0565C4.85857 10.8188 4.95296 10.5909 5.12098 10.4229L7.66178 7.88206C7.3239 7.69206 6.97796 7.41244 6.75659 6.99749C6.66608 6.82795 6.63247 6.63381 6.66071 6.44371C6.68895 6.25362 6.77755 6.07763 6.91343 5.94173L10.4983 2.35682C10.6664 2.18881 10.8943 2.09442 11.132 2.09442C11.3696 2.09442 11.5975 2.18881 11.7656 2.35682ZM12.2693 17.3014C11.6355 17.3327 11.0008 17.3381 10.3666 17.3175L9.99466 17.3014L9.68636 18.2263H12.5776L12.2693 17.3014ZM11.132 4.25772L8.9165 6.47319L9.00612 6.49918L9.17371 6.53772L9.42107 6.57895C9.76433 6.6148 10.0637 6.83885 10.1829 7.16598C10.2408 7.32627 10.2519 7.49977 10.2148 7.66613C10.1776 7.8325 10.0938 7.98481 9.97315 8.10522L7.21546 10.8629C7.59456 10.9794 8.02654 11.0565 8.44508 11.0565C8.62216 11.0569 8.79515 11.1097 8.94222 11.2083C9.0893 11.307 9.20386 11.4469 9.27146 11.6106C9.33905 11.7743 9.35665 11.9543 9.32203 12.128C9.28741 12.3016 9.20211 12.4611 9.07692 12.5864L6.60334 15.0608L7.064 15.1531C8.11975 15.3521 9.53489 15.5376 11.132 15.5376C12.412 15.5353 13.6894 15.4219 14.9499 15.1989L15.4374 15.1065L15.6615 15.0608L13.187 12.5872C13.0681 12.4683 12.9851 12.3184 12.9473 12.1545C12.9096 11.9906 12.9188 11.8195 12.9737 11.6606C13.0287 11.5016 13.1273 11.3614 13.2582 11.2558C13.3891 11.1503 13.547 11.0837 13.714 11.0637L13.8198 11.0565C14.2363 11.0494 14.6499 10.9842 15.0485 10.8629L12.2908 8.10522C12.1773 7.99178 12.0964 7.84996 12.0564 7.69456C12.0164 7.53916 12.0189 7.37587 12.0636 7.22176C12.1083 7.06765 12.1935 6.92837 12.3104 6.81845C12.4273 6.70853 12.5716 6.632 12.7281 6.59687L13.0176 6.55206L13.1718 6.5198C13.2279 6.50785 13.2865 6.49231 13.3474 6.47319L11.132 4.25772Z" fill="#757575"/>
</svg>
