<svg width="24" height="24" viewBox="0 0 24 24" fill="none" xmlns="http://www.w3.org/2000/svg">
<path d="M14.4038 24H9.59615L9.11666 21.6926C7.4693 21.2395 5.9613 20.4007 4.72281 19.2486L2.40375 20.0036L0 15.9965L1.83648 14.4431C1.6306 13.6472 1.52636 12.8268 1.52636 12C1.52636 11.1732 1.6306 10.3528 1.83648 9.5569L0 8.00352L2.40385 3.99648L4.72281 4.75152C5.9614 3.59933 7.4694 2.76048 9.11666 2.30736L9.59615 0H14.4038L14.8833 2.30736C16.5307 2.76048 18.0386 3.59933 19.2772 4.75152L21.5961 3.99648L24 8.00352L22.1635 9.5569C22.3694 10.3528 22.4736 11.1732 22.4736 12C22.4736 12.8268 22.3694 13.6472 22.1635 14.4431L24 15.9965L21.5961 20.0035L19.2771 19.2485C18.0386 20.4007 16.5306 21.2394 14.8832 21.6925L14.4038 24ZM10.4139 23.04H13.5861L14.0276 20.9156L14.3325 20.8413C16.0223 20.4297 17.5627 19.573 18.787 18.3636L19.0064 18.1469L21.1412 18.8419L22.7273 16.198L21.0371 14.7683L21.1222 14.4772C21.357 13.6747 21.4762 12.8412 21.4762 12C21.4762 11.1588 21.357 10.3253 21.1222 9.52272L21.0371 9.23165L22.7273 7.80192L21.1412 5.15798L19.0065 5.85302L18.7871 5.63635C17.5626 4.42694 16.0223 3.57014 14.3326 3.15859L14.0276 3.08429L13.5861 0.96H10.4139L9.9724 3.08438L9.66737 3.15869C7.97772 3.57024 6.4374 4.42704 5.21288 5.63645L4.99353 5.85312L2.85881 5.15808L1.2727 7.80202L2.96294 9.23174L2.87776 9.52282C2.64295 10.3253 2.52385 11.1588 2.52385 12C2.52385 12.8412 2.64295 13.6747 2.87776 14.4773L2.96294 14.7684L1.2727 16.1981L2.85881 18.842L4.99363 18.147L5.21298 18.3636C6.4373 19.5731 7.97772 20.4298 9.66747 20.8414L9.9724 20.9157L10.4139 23.04ZM12 19.2C7.87488 19.2 4.51883 15.9701 4.51883 12C4.51883 8.02992 7.87488 4.8 12 4.8C16.1251 4.8 19.4812 8.02992 19.4812 12C19.4812 15.9701 16.1251 19.2 12 19.2ZM12 5.76C8.4249 5.76 5.51632 8.55926 5.51632 12C5.51632 15.4407 8.4249 18.24 12 18.24C15.5751 18.24 18.4837 15.4407 18.4837 12C18.4837 8.55926 15.5751 5.76 12 5.76Z" fill="#1B1F26"/>
<path d="M18.6901 13.44H5.30469V14.4H18.6901V13.44Z" fill="#1B1F26"/>
<path d="M12.0021 10.0801C13.1039 10.0801 13.9971 10.9397 13.9971 12.0001H16.9895C16.9895 9.34913 14.7566 7.20007 12.0021 7.20007C9.24763 7.20007 7.01465 9.34913 7.01465 12.0001H10.0071C10.0071 10.9397 10.9003 10.0801 12.0021 10.0801Z" fill="#1B1F26"/>
<path d="M17.4861 12.48H13.4961V12C13.4961 11.206 12.8249 10.56 11.9999 10.56C11.1748 10.56 10.5036 11.206 10.5036 12V12.48H6.51367V12C6.51367 9.08864 8.97478 6.72003 11.9999 6.72003C15.025 6.72003 17.4861 9.08864 17.4861 12V12.48ZM14.4435 11.52H16.4611C16.2122 9.3631 14.3065 7.68003 12 7.68003C9.69347 7.68003 7.78767 9.3631 7.53879 11.52H9.55641C9.78813 10.4259 10.7958 9.60003 12.0001 9.60003C13.2043 9.60003 14.2118 10.4259 14.4435 11.52Z" fill="#1B1F26"/>
<path d="M12.4994 8.64001H11.502V12.48H12.4994V8.64001Z" fill="#1B1F26"/>
</svg>
