<svg width="22" height="23" viewBox="0 0 22 23" fill="none" xmlns="http://www.w3.org/2000/svg">
<path d="M17.8893 5.25094C16.991 4.35827 15.9233 3.65421 14.749 3.18017C13.5746 2.70612 12.3174 2.47166 11.0511 2.49056C8.67416 2.48462 6.39222 3.42315 4.70726 5.0997C3.02231 6.77625 2.07238 9.05348 2.06643 11.4304C2.06049 13.8074 2.99903 16.0893 4.67558 17.7743C6.35213 19.4592 8.62935 20.4091 11.0063 20.4151C11.5185 20.4238 12.0191 20.2622 12.4295 19.9556C12.8399 19.649 13.1368 19.2148 13.2737 18.7212C13.361 18.3647 13.3601 17.9924 13.2711 17.6363C13.1821 17.2803 13.0077 16.9513 12.7629 16.6778C12.7063 16.6134 12.6694 16.5341 12.6565 16.4494C12.6436 16.3646 12.6553 16.2779 12.6902 16.1996C12.7251 16.1213 12.7818 16.0546 12.8534 16.0075C12.9251 15.9605 13.0088 15.9349 13.0945 15.934H14.5733C15.9651 15.9405 17.3078 15.4202 18.3318 14.4776C19.3559 13.535 19.9854 12.2399 20.094 10.8524C20.1274 9.81776 19.949 8.78726 19.5699 7.82406C19.1908 6.86085 18.6189 5.98524 17.8893 5.25094ZM14.6091 14.1415H13.1303C12.6985 14.1391 12.2752 14.262 11.9118 14.4954C11.5484 14.7287 11.2605 15.0625 11.0831 15.4563C10.9057 15.85 10.8463 16.2868 10.9122 16.7136C10.9781 17.1404 11.1665 17.5389 11.4544 17.8608C11.5105 17.9174 11.5501 17.9882 11.569 18.0655C11.588 18.1429 11.5855 18.2239 11.562 18.3C11.5171 18.4882 11.311 18.6047 11.0332 18.6226C10.0154 18.6096 9.01197 18.38 8.08978 17.949C7.16759 17.5181 6.34772 16.8958 5.68471 16.1234C5.02171 15.351 4.53077 14.4463 4.24454 13.4695C3.95832 12.4927 3.88337 11.4661 4.02469 10.458C4.28026 8.7641 5.12665 7.21514 6.41415 6.08509C7.70165 4.95504 9.34731 4.31671 11.0601 4.28301H11.1318C12.1453 4.26974 13.1511 4.45958 14.0901 4.84131C15.029 5.22305 15.882 5.78896 16.5987 6.50565C17.158 7.06526 17.5974 7.73291 17.8902 8.46789C18.1829 9.20288 18.3229 9.98979 18.3016 10.7807C18.2088 11.6975 17.7805 12.5478 17.0989 13.1682C16.4174 13.7885 15.5307 14.1351 14.6091 14.1415Z" fill="#757575"/>
<path d="M11.1324 7.86788C11.8749 7.86788 12.4768 7.266 12.4768 6.52354C12.4768 5.78108 11.8749 5.1792 11.1324 5.1792C10.39 5.1792 9.78809 5.78108 9.78809 6.52354C9.78809 7.266 10.39 7.86788 11.1324 7.86788Z" fill="#757575"/>
<path d="M14.0454 7.15097C13.8152 7.28393 13.6296 7.48215 13.5121 7.72057C13.3945 7.95899 13.3503 8.22691 13.385 8.49046C13.4197 8.75401 13.5317 9.00136 13.7069 9.20124C13.8822 9.40113 14.1127 9.54458 14.3695 9.61346C14.6262 9.68235 14.8976 9.67357 15.1494 9.58824C15.4011 9.50291 15.6219 9.34486 15.7839 9.13406C15.9458 8.92327 16.0416 8.6692 16.0592 8.40396C16.0768 8.13872 16.0154 7.87422 15.8827 7.64389C15.7945 7.49082 15.677 7.35663 15.5369 7.249C15.3968 7.14136 15.2368 7.0624 15.0662 7.01662C14.8956 6.97084 14.7176 6.95914 14.5424 6.9822C14.3673 7.00525 14.1984 7.0626 14.0454 7.15097ZM8.21992 7.15097C7.98959 7.01826 7.7251 6.95681 7.45986 6.97439C7.19462 6.99197 6.94054 7.08779 6.72975 7.24974C6.51896 7.41169 6.36091 7.6325 6.27558 7.88425C6.19025 8.136 6.18147 8.4074 6.25035 8.66415C6.31923 8.92089 6.46268 9.15145 6.66257 9.32668C6.86246 9.50191 7.10981 9.61395 7.37336 9.64863C7.6369 9.68332 7.90482 9.6391 8.14324 9.52155C8.38166 9.404 8.57988 9.21841 8.71284 8.98823C8.80121 8.83526 8.85856 8.66636 8.88162 8.4912C8.90467 8.31605 8.89297 8.13807 8.84719 7.96743C8.80141 7.7968 8.72245 7.63686 8.61482 7.49677C8.50718 7.35667 8.37299 7.23917 8.21992 7.15097ZM5.89869 10.7896C5.67819 10.9385 5.50683 11.1495 5.4063 11.3958C5.30577 11.6422 5.2806 11.9128 5.33396 12.1734C5.38733 12.4341 5.51684 12.673 5.70609 12.8601C5.89535 13.0471 6.13584 13.1737 6.39711 13.2239C6.65838 13.2742 6.92868 13.2458 7.1738 13.1423C7.41891 13.0388 7.62781 12.865 7.77405 12.6427C7.92028 12.4204 7.99728 12.1598 7.99528 11.8937C7.99329 11.6277 7.9124 11.3682 7.76284 11.1481C7.6646 11.0015 7.53824 10.8757 7.39109 10.7782C7.24394 10.6807 7.07892 10.6133 6.90556 10.58C6.7322 10.5466 6.55396 10.548 6.38113 10.584C6.20831 10.62 6.04433 10.6899 5.89869 10.7896Z" fill="#757575"/>
</svg>
