<svg width="24" height="24" viewBox="0 0 24 24" fill="none" xmlns="http://www.w3.org/2000/svg">
<path d="M4.86027 4.03003L2.03027 6.86003L5.21027 10.04V12.87L6.63027 14.28L12.2803 8.63003L10.8703 7.21003H8.04027L4.86027 4.03003ZM17.0003 6.00003V7.50003C18.0003 7.50003 18.8503 8.33003 18.8503 9.35003C18.8503 10.37 18.0003 11.2 17.0003 11.2V12.7C19.2403 12.7 21.0003 14.53 21.0003 16.77V21H22.5003V16.76C22.5003 14.54 21.2203 12.62 19.3503 11.73C19.9703 11.12 20.3503 10.28 20.3503 9.35003C20.3503 7.50003 18.8503 6.00003 17.0003 6.00003ZM11.9303 11.1L9.10027 13.93L14.0503 18.88L14.7603 18.17L16.8803 20.29L19.0003 21L18.2903 18.88L16.1703 16.76L16.8803 16.05L11.9303 11.1Z" fill="#F35507"/>
</svg>
