<svg width="22" height="23" viewBox="0 0 22 23" fill="none" xmlns="http://www.w3.org/2000/svg">
<g clip-path="url(#clip0_378_1101)">
<path d="M15.7006 18.8982C15.7876 18.8982 15.8582 18.8289 15.8582 18.7433C15.8582 18.6577 15.7876 18.5884 15.7006 18.5884C15.6135 18.5884 15.543 18.6577 15.543 18.7433C15.543 18.8289 15.6135 18.8982 15.7006 18.8982Z" fill="#757575"/>
<path d="M20.9 20.4472H20.2698L20.1438 17.8442L20.0174 15.2419L19.8914 12.6393L19.7657 10.037L19.6397 7.43434H19.5815C19.733 7.26333 19.8171 7.04305 19.8181 6.8146C19.8181 6.53733 19.6958 6.27787 19.4911 6.09941C19.499 6.04474 19.5029 5.99052 19.5029 5.93675C19.5029 5.2229 18.8926 4.63207 18.1723 4.6724C18.1282 4.57726 18.0754 4.48646 18.0144 4.40118C18.0191 4.35928 18.0214 4.31682 18.0214 4.2738C18.0214 3.26857 17.1923 2.45088 16.1733 2.45088C16.0993 2.45116 16.0254 2.45632 15.9521 2.46634C15.7805 2.17694 15.5362 1.93747 15.2434 1.77168C14.9506 1.6059 14.6196 1.51957 14.2831 1.52126C13.8358 1.52171 13.4025 1.67705 13.0568 1.96086C12.6765 1.67378 12.2125 1.51935 11.736 1.52126C11.3078 1.52138 10.889 1.64635 10.5308 1.88088C9.86733 1.40128 8.88361 1.41741 8.23026 1.93532C7.48684 1.45203 6.48699 1.39154 5.6861 1.79282C5.27608 1.61304 4.83314 1.52056 4.38545 1.52126C2.60621 1.52126 1.1587 2.94694 1.1587 4.69962C1.1587 6.4523 2.60621 7.87831 4.38545 7.87831C5.44512 7.87831 6.41876 7.37519 7.02439 6.52355C7.44496 6.49448 7.85162 6.36081 8.20741 6.13467C8.56321 5.90852 8.85687 5.59708 9.06173 5.22862C9.4185 5.2993 9.78821 5.26258 10.1241 5.12309C10.33 5.3449 10.5794 5.52181 10.8568 5.64274C11.1343 5.76366 11.4337 5.826 11.7363 5.82584C12.0425 5.82678 12.3455 5.76332 12.6256 5.63959C12.9058 5.51586 13.1567 5.33462 13.3623 5.10763C13.7557 5.32556 14.2141 5.39542 14.6545 5.30457C14.7574 5.45346 14.8804 5.58588 15.0198 5.69712C15.1872 6.44424 15.8614 6.99105 16.6468 6.99105C16.8851 6.99105 17.1177 6.94131 17.3324 6.84451C17.5059 7.01222 17.722 7.12682 17.9592 7.17556C17.9979 7.271 18.0523 7.35772 18.1182 7.43434H17.7495L17.6235 10.037L17.4971 12.6393L17.3711 15.2419L17.2454 17.8442L17.1194 20.4472V14.2505H13.3384L9.55746 11.1521V14.2505L5.7765 11.1521V14.2505L1.99555 11.1521V20.4469H1.36505C1.2822 20.4465 1.20257 20.4789 1.14352 20.537C1.08447 20.5951 1.05078 20.6742 1.0498 20.7571V21.3765C1.0498 21.5469 1.1913 21.6864 1.36505 21.6864H20.9C20.9827 21.6867 21.0623 21.6543 21.1213 21.5963C21.1803 21.5383 21.2139 21.4592 21.2149 21.3765V20.7571C21.2139 20.6743 21.1803 20.5953 21.1213 20.5373C21.0623 20.4792 20.9827 20.4469 20.9 20.4472ZM17.7011 6.23788L17.5153 5.93406L17.2225 6.13739C17.0535 6.25527 16.8523 6.3185 16.6462 6.31854C16.1467 6.31854 15.7226 5.95019 15.6598 5.4622L15.6399 5.31029L15.5125 5.22559C15.3416 5.10944 15.2042 4.95028 15.1143 4.76415L14.9835 4.49595L14.7016 4.59409C14.2395 4.75474 13.8348 4.65996 13.494 4.39244L13.2073 4.16625L13.006 4.47209C12.8677 4.68235 12.6791 4.85477 12.4574 4.97373C12.2356 5.09269 11.9876 5.15442 11.736 5.15333C11.4919 5.15367 11.2514 5.09535 11.0347 4.98328C10.8179 4.87122 10.6312 4.70869 10.4904 4.5094L10.3113 4.25431L10.0434 4.41361C9.72382 4.60384 9.37832 4.65122 8.99351 4.51309L8.69002 4.4042L8.5687 4.70264C8.28437 5.4017 7.60581 5.85508 6.83954 5.85777L6.65469 5.85844L6.55622 6.01472C6.0857 6.76016 5.27406 7.20547 4.38545 7.20547C2.97692 7.20547 1.83087 6.08093 1.83087 4.69895C1.83087 3.31764 2.97658 2.19343 4.38545 2.19343C4.79144 2.19343 5.18197 2.28653 5.54595 2.4697L5.71029 2.55237L5.86859 2.45861C6.54378 2.05833 7.44416 2.1326 8.04037 2.62866L8.28706 2.83368L8.5035 2.59707C8.61814 2.46975 8.75831 2.36801 8.91489 2.29846C9.07147 2.22892 9.24094 2.19313 9.41227 2.19343C9.73811 2.1921 10.0512 2.3201 10.2827 2.54935L10.5035 2.76747L10.7385 2.56447C11.0157 2.32508 11.3697 2.19339 11.736 2.19343C12.151 2.19343 12.5389 2.3561 12.8272 2.65185L13.0827 2.91333L13.3219 2.63673C13.4412 2.49842 13.5886 2.38728 13.7545 2.31081C13.9203 2.23434 14.1006 2.19432 14.2831 2.19343C14.8024 2.19343 15.2628 2.50028 15.4564 2.97483L15.569 3.25143L15.857 3.17178C15.978 3.13817 16.0785 3.12271 16.1733 3.12271C16.8219 3.12271 17.3493 3.63894 17.3493 4.27346C17.3493 4.32858 17.3402 4.38135 17.3301 4.44554L17.3069 4.59812L17.4074 4.71542C17.5146 4.8401 17.5862 4.97857 17.6205 5.12678L17.7011 5.47631L18.0443 5.37313C18.1128 5.3523 18.169 5.34289 18.2211 5.34289C18.5568 5.34289 18.8304 5.60907 18.8304 5.93641C18.8304 5.99859 18.8179 6.06312 18.7921 6.1347L18.6845 6.43012L18.9722 6.55682C19.0229 6.57848 19.0662 6.61434 19.097 6.66008C19.1278 6.70582 19.1447 6.75948 19.1456 6.8146C19.1456 6.97122 19.0135 7.09826 18.8515 7.09826C18.7792 7.09965 18.709 7.07353 18.6552 7.02518C18.6014 6.97684 18.5679 6.90987 18.5615 6.83779L18.536 6.5296L18.2029 6.52994C18.1015 6.52724 18.0024 6.49907 17.9147 6.44804C17.827 6.397 17.7536 6.32473 17.7011 6.23788ZM18.0258 12.1352L18.1031 10.5411H19.2851L19.3621 12.1352H18.0258ZM17.7741 17.3401L17.851 15.7461H19.5372L19.6145 17.3401H17.7741ZM16.4049 21.4269H14.0523V21.1513H16.4049V21.4269ZM16.4469 17.3488V19.7754H16.3417V17.3488H16.4469ZM14.4512 20.2792V17.5166H16.0056V20.2792H14.4512ZM14.3672 20.9829V20.6153H16.0896V20.9829H14.3672ZM5.93345 17.5038H9.3995V18.5887H5.93345V17.5038ZM5.61854 18.5883H2.66738V17.5034H5.61854V18.5883ZM9.71441 17.5038H13.0228V18.5887H9.71441V17.5038ZM9.71441 17.1939V16.1094H13.0228V17.1939H9.71441ZM9.3995 17.1939H5.93345V16.1094H9.3995V17.1939ZM5.61854 17.1939H2.66738V16.1094H5.61854V17.1939Z" fill="#757575"/>
<path d="M7.94882 3.73845C7.91097 3.70656 7.86972 3.67894 7.82581 3.65611C7.78196 3.62982 7.73571 3.60776 7.68768 3.59023C7.6309 3.56759 7.57218 3.55015 7.51224 3.53814C7.46975 3.35388 7.37459 3.18597 7.23833 3.05485C7.15255 2.96875 7.05321 2.89733 6.94426 2.84345C6.83524 2.78804 6.71991 2.74606 6.60078 2.71843C6.15614 2.6166 5.66243 2.74095 5.35391 3.01889L5.34483 3.01418C5.28613 2.99084 5.22537 2.97306 5.16335 2.96108C5.03965 2.9395 4.91302 2.94121 4.78996 2.96612C4.55302 3.0199 4.35506 3.16509 4.28516 3.34388C4.43614 3.22132 4.62578 3.1564 4.8202 3.16072C4.91128 3.16105 4.99766 3.18055 5.07462 3.21147C5.11932 3.22928 5.13142 3.236 5.18418 3.26524C5.21376 3.28272 5.24401 3.30893 5.27056 3.33346L5.38684 3.44L5.5317 3.31968C5.78779 3.10627 6.16051 3.02359 6.48987 3.09484C6.5292 3.10224 6.57289 3.11501 6.60818 3.12576C6.63876 3.13517 6.68144 3.15131 6.73185 3.17584C6.79403 3.20844 6.87267 3.2528 6.9325 3.30221C7.05819 3.40236 7.1486 3.53646 7.20405 3.68434L7.24909 3.80264L7.36101 3.80197C7.43864 3.80163 7.523 3.80264 7.59559 3.8144C7.66449 3.82146 7.76095 3.8544 7.83052 3.88196C7.98108 3.94682 8.11753 4.04865 8.22374 4.18578C8.20088 4.02177 8.10006 3.86011 7.94882 3.73845ZM17.1723 4.65596C17.1505 4.62482 17.1261 4.59559 17.0994 4.56858C17.0685 4.53529 17.0342 4.50522 16.9972 4.47884C17.0278 4.34147 17.0171 4.19816 16.9666 4.0668C16.9361 3.9819 16.8916 3.90272 16.8349 3.83255C16.8083 3.79812 16.7794 3.76545 16.7485 3.73475C16.7149 3.70177 16.6796 3.67059 16.6427 3.64132C16.3738 3.43463 16.0001 3.36606 15.7016 3.45849L15.6969 3.45244C15.6649 3.41813 15.6295 3.38727 15.5911 3.36035C15.5138 3.30774 15.4276 3.2696 15.3366 3.24776C15.1592 3.21079 14.9787 3.24776 14.8738 3.34724C15.0147 3.31089 15.1639 3.32565 15.295 3.38892C15.3565 3.41715 15.4089 3.45748 15.4509 3.50184C15.4758 3.52772 15.4815 3.53612 15.508 3.57208C15.5225 3.59326 15.5343 3.62048 15.5443 3.64502L15.5894 3.75323L15.7258 3.7166C15.9675 3.6514 16.2464 3.71089 16.4464 3.86112C16.4706 3.87859 16.4961 3.90044 16.5166 3.91859C16.5344 3.93438 16.558 3.95892 16.5842 3.99085C16.6161 4.03218 16.6548 4.08663 16.6793 4.13872C16.7321 4.2456 16.7509 4.36424 16.7411 4.48153L16.7337 4.57563L16.81 4.60991C16.8625 4.63378 16.9196 4.66033 16.9646 4.69091C17.12 4.79509 17.2297 4.95478 17.2711 5.13723C17.3091 5.01994 17.2927 4.87946 17.2291 4.75006C17.2133 4.71694 17.1942 4.68543 17.1723 4.65596Z" fill="#757575"/>
</g>
<defs>
<clipPath id="clip0_378_1101">
<rect width="21.5094" height="21.5094" fill="white" transform="translate(0.376953 0.84906)"/>
</clipPath>
</defs>
</svg>
