<svg width="22" height="22" viewBox="0 0 22 22" fill="none" xmlns="http://www.w3.org/2000/svg">
<g clip-path="url(#clip0_378_1087)">
<path d="M21.1443 10.6612L17.7835 3.93955C17.7276 3.82788 17.6417 3.73398 17.5354 3.66838C17.4292 3.60279 17.3068 3.56809 17.1819 3.56818H5.08282C4.95795 3.56809 4.83552 3.60279 4.72926 3.66838C4.623 3.73398 4.53711 3.82788 4.48123 3.93955L1.12038 10.6612C1.07411 10.7548 1.04996 10.8577 1.0498 10.962V15.6672C1.0498 16.0238 1.19144 16.3657 1.44355 16.6178C1.69567 16.8699 2.0376 17.0116 2.39414 17.0116H19.8706C20.2271 17.0116 20.569 16.8699 20.8211 16.6178C21.0733 16.3657 21.2149 16.0238 21.2149 15.6672V10.962C21.2147 10.8577 21.1906 10.7548 21.1443 10.6612ZM8.70078 4.91252L9.70903 6.92903H7.17831L6.17006 4.91252H8.70078ZM12.7338 4.91252L13.7421 6.92903H11.2113L10.2031 4.91252H12.7338ZM8.85874 10.2899L7.85048 8.27337H10.3812L11.3895 10.2899H8.85874ZM12.8918 10.2899L11.8835 8.27337H14.4142L15.4225 10.2899H12.8918ZM16.9248 10.2899L15.9165 8.27337H18.4472L19.4555 10.2899H16.9248ZM17.7751 6.92903H15.2444L14.2361 4.91252H16.7668L17.7751 6.92903ZM2.39414 11.1208L5.08282 5.74349L7.7715 11.1208V15.6672H2.39414V11.1208ZM9.11584 15.6672V11.6342H19.8706V15.6672H9.11584Z" fill="#757575"/>
</g>
<defs>
<clipPath id="clip0_378_1087">
<rect width="21.5094" height="21.5094" fill="white" transform="translate(0.376953 0.207367)"/>
</clipPath>
</defs>
</svg>
