<svg width="22" height="23" viewBox="0 0 22 23" fill="none" xmlns="http://www.w3.org/2000/svg">
<path d="M4.73359 4.14008L2.19727 6.6764L5.04727 9.5264V12.0627L6.31991 13.3264L11.3836 8.26272L10.1199 6.99008H7.58359L4.73359 4.14008ZM15.6138 5.90564V7.24998C16.51 7.24998 17.2718 7.99385 17.2718 8.908C17.2718 9.82215 16.51 10.566 15.6138 10.566V11.9104C17.6213 11.9104 19.1987 13.5505 19.1987 15.558V19.349H20.543V15.549C20.543 13.5594 19.3959 11.8387 17.7199 11.041C18.2756 10.4943 18.6161 9.74149 18.6161 8.908C18.6161 7.24998 17.2718 5.90564 15.6138 5.90564ZM11.0699 10.4764L8.53359 13.0127L12.9699 17.449L13.6062 16.8127L15.5062 18.7127L17.4062 19.349L16.7699 17.449L14.8699 15.549L15.5062 14.9127L11.0699 10.4764Z" fill="#757575"/>
</svg>
