<svg width="28" height="28" viewBox="0 0 28 28" fill="none" xmlns="http://www.w3.org/2000/svg">
<path d="M19.8333 9.91665C21.1283 9.91665 22.1667 10.955 22.1667 12.25V15.75C22.1667 17.045 21.1283 18.0833 19.8333 18.0833H17.2317L15.785 16.6483C14.91 15.75 13.7317 15.2833 12.4833 15.2833C11.235 15.2833 10.0683 15.75 9.18167 16.6483L7.74667 18.0833H5.83333C4.53833 18.0833 3.5 17.045 3.5 15.75V12.25C3.5 10.955 4.53833 9.91665 5.83333 9.91665H19.8333ZM19.8333 7.58331H5.83333C4.59566 7.58331 3.40867 8.07498 2.5335 8.95015C1.65833 9.82532 1.16667 11.0123 1.16667 12.25H0V15.75H1.16667C1.16667 16.9877 1.65833 18.1746 2.5335 19.0498C3.40867 19.925 4.59566 20.4166 5.83333 20.4166H8.75C8.79667 20.3466 8.855 20.2766 10.8383 18.2933C11.2933 17.8383 11.8883 17.6166 12.4833 17.6166C13.09 17.6166 13.685 17.8383 14.14 18.2933L16.2283 20.4166H19.8333C21.071 20.4166 22.258 19.925 23.1332 19.0498C24.0083 18.1746 24.5 16.9877 24.5 15.75H25.6667V12.25H24.5C24.5 11.0123 24.0083 9.82532 23.1332 8.95015C22.258 8.07498 21.071 7.58331 19.8333 7.58331Z" fill="#1B1F26"/>
</svg>
