<svg width="22" height="22" viewBox="0 0 22 22" fill="none" xmlns="http://www.w3.org/2000/svg">
<g clip-path="url(#clip0_378_1110)">
<path d="M11.2353 2.79186L9.56029 4.46691L10.7487 5.65531C10.8961 5.80273 10.9942 5.99222 11.0295 6.19771C11.0648 6.40319 11.0355 6.61456 10.9456 6.8027L11.8578 7.71551L13.1611 6.40343C13.0241 5.73308 13.0578 5.03902 13.2593 4.38513C13.4607 3.73124 13.8234 3.1385 14.3139 2.66146L14.3159 2.65945C14.8105 2.18124 15.4183 1.83613 16.0824 1.65629C16.7465 1.47646 17.4453 1.46777 18.1137 1.63103C18.9297 1.82999 19.2006 2.84093 18.6178 3.42438L17.1007 4.94214L17.7903 5.63178L19.3054 4.11671C19.9036 3.50638 20.9079 3.82432 21.1014 4.61748L21.1021 4.61949C21.2654 5.28769 21.2567 5.98635 21.077 6.65032C20.8974 7.31429 20.5525 7.92193 20.0745 8.4166C19.5965 8.91127 19.0011 9.27685 18.3437 9.47924C17.6863 9.68163 16.9883 9.71426 16.3149 9.57406L15.021 10.8781L19.8337 15.6908C20.088 15.9395 20.2903 16.2361 20.4292 16.5635C20.568 16.8909 20.6405 17.2426 20.6424 17.5982C20.6444 17.9538 20.5758 18.3062 20.4406 18.6352C20.3054 18.9641 20.1063 19.2629 19.8548 19.5143C19.6033 19.7658 19.3045 19.9648 18.9755 20.1C18.6466 20.2351 18.2941 20.3036 17.9385 20.3016C17.5829 20.2996 17.2312 20.227 16.9038 20.0882C16.5765 19.9493 16.2799 19.7469 16.0313 19.4926L11.232 14.6933L10.3077 15.6236C10.4373 16.289 10.399 16.9761 10.1963 17.623C9.9936 18.2699 9.63295 18.8561 9.14691 19.3286L9.14489 19.3306C8.65017 19.8089 8.04233 20.1541 7.37811 20.3339C6.71388 20.5138 6.01492 20.5224 5.34646 20.359C4.53112 20.1594 4.26023 19.1478 4.84233 18.5657L6.36076 17.0479L5.67112 16.3583L4.15672 17.8727C3.55849 18.4837 2.5536 18.1657 2.36001 17.3719L2.35934 17.3699C2.12034 16.391 2.25268 15.3582 2.73077 14.4712C3.20886 13.5841 3.99877 12.9058 4.94786 12.5672C4.92511 12.5492 4.90356 12.5296 4.88334 12.5088L0.623124 8.24921C0.54508 8.17119 0.48317 8.07855 0.440932 7.9766C0.398693 7.87465 0.376953 7.76537 0.376953 7.65501C0.376953 7.54466 0.398693 7.43538 0.440932 7.33343C0.48317 7.23147 0.54508 7.13884 0.623124 7.06082L1.15279 6.53115C1.37209 6.31187 1.639 6.14612 1.93278 6.04679C2.22656 5.94747 2.5393 5.91724 2.84666 5.95846C2.86503 5.93605 2.88498 5.91365 2.90648 5.89124L7.66074 1.13698C7.76713 1.03077 7.89593 0.949687 8.0377 0.899677C8.17947 0.849668 8.33063 0.831994 8.48012 0.84795L10.6311 1.07514C10.8208 1.09477 11.0011 1.16783 11.151 1.28582C11.3009 1.40381 11.4142 1.56191 11.4778 1.74174C11.5414 1.92157 11.5528 2.11576 11.5104 2.30177C11.4681 2.48777 11.3739 2.65795 11.2387 2.79254L11.2353 2.79186ZM4.09421 6.60576L6.71164 9.21915L9.56298 6.36714L8.48751 5.29166C8.34388 5.15306 8.23931 4.97907 8.18432 4.7872C8.12933 4.59533 8.12587 4.39235 8.17428 4.19872C8.2751 3.79138 8.55473 3.52655 9.05482 3.05334C9.2605 2.85841 9.50383 2.62718 9.78749 2.33681L8.49826 2.20237L4.09421 6.60576ZM6.24851 12.3313C6.56174 12.3259 6.87565 12.3568 7.18283 12.4234L8.06875 11.5314L7.18821 10.6509C7.16398 11.151 6.95457 11.6242 6.60073 11.9784L6.24851 12.3313ZM9.01651 10.5769L10.9107 8.66932L10.0355 7.79415L8.13462 9.69505L9.01651 10.5769ZM12.1784 13.7388L16.981 18.5415C17.2346 18.7864 17.5742 18.9219 17.9267 18.9188C18.2791 18.9157 18.6163 18.7744 18.8656 18.5251C19.1148 18.2758 19.2562 17.9387 19.2593 17.5862C19.2623 17.2337 19.1268 16.8941 18.8819 16.6406L14.0726 11.8319L12.1784 13.7388ZM2.10391 7.48227L1.93049 7.65569L5.47686 11.2021L5.65028 11.0286C5.77629 10.9026 5.84708 10.7316 5.84708 10.5534C5.84708 10.3752 5.77629 10.2042 5.65028 10.0782L3.05436 7.48227C2.92831 7.35625 2.75737 7.28546 2.57914 7.28546C2.4009 7.28546 2.22996 7.35625 2.10391 7.48227ZM15.2489 3.62804C14.8869 3.98165 14.6298 4.42852 14.5061 4.91918C14.3824 5.40984 14.3968 5.92517 14.5478 6.40814L14.6681 6.79464L7.56865 13.9425L7.17409 13.8121C6.69388 13.6536 6.17907 13.6316 5.68709 13.7486C5.19512 13.8657 4.74535 14.1171 4.38795 14.4748C4.11842 14.7437 3.90827 15.0661 3.77107 15.4212C3.63387 15.7762 3.57267 16.1562 3.59143 16.5364L4.91627 15.2115C5.33302 14.7948 6.00788 14.7948 6.42462 15.2115L7.50681 16.2937C7.92356 16.7105 7.92356 17.3847 7.50681 17.8021L6.18062 19.1283C6.55347 19.1458 6.92596 19.0869 7.27518 18.9551C7.6244 18.8234 7.94295 18.6215 8.21125 18.362C8.56964 18.0119 8.82528 17.5703 8.95042 17.0852C9.07555 16.6001 9.0654 16.0899 8.92106 15.6101L8.80679 15.227L15.9224 8.06168L16.3136 8.18603C16.7907 8.33806 17.3004 8.35589 17.787 8.23757C18.2735 8.11925 18.7182 7.86934 19.0722 7.5152C19.3417 7.24637 19.5518 6.92399 19.689 6.5689C19.8262 6.2138 19.8874 5.83388 19.8687 5.45366L18.5445 6.77783C18.4455 6.87703 18.3279 6.95573 18.1984 7.00943C18.069 7.06313 17.9302 7.09077 17.79 7.09077C17.6498 7.09077 17.5111 7.06313 17.3816 7.00943C17.2521 6.95573 17.1345 6.87703 17.0355 6.77783L15.9533 5.69564C15.8542 5.59669 15.7756 5.47918 15.722 5.34983C15.6684 5.22048 15.6408 5.08183 15.6408 4.9418C15.6408 4.80177 15.6684 4.66312 15.722 4.53377C15.7756 4.40442 15.8542 4.28691 15.9533 4.18796L17.2795 2.86177C16.9067 2.84413 16.5342 2.90294 16.185 3.03461C15.8358 3.16627 15.5172 3.36867 15.2489 3.62804Z" fill="#757575"/>
</g>
<defs>
<clipPath id="clip0_378_1110">
<rect width="21.5094" height="21.5094" fill="white" transform="translate(0.376953 0.16983)"/>
</clipPath>
</defs>
</svg>
