<svg width="25" height="24" viewBox="0 0 25 24" fill="none" xmlns="http://www.w3.org/2000/svg">
<path d="M5.90837 11.491C5.83489 12.887 5.91936 14.373 4.67213 15.3084C4.09164 15.7438 3.75 16.427 3.75 17.1527C3.75 18.1508 4.5318 19 5.55 19H19.95C20.9682 19 21.75 18.1508 21.75 17.1527C21.75 16.427 21.4084 15.7438 20.8279 15.3084C19.5806 14.373 19.6651 12.887 19.5916 11.491C19.4001 7.85223 16.3938 5 12.75 5C9.10617 5 6.09988 7.85222 5.90837 11.491Z" stroke="#757575" stroke-width="1.5" stroke-linecap="round" stroke-linejoin="round"/>
<path d="M11.25 3.125C11.25 3.95343 11.9216 5 12.75 5C13.5784 5 14.25 3.95343 14.25 3.125C14.25 2.29657 13.5784 2 12.75 2C11.9216 2 11.25 2.29657 11.25 3.125Z" stroke="#757575" stroke-width="1.5"/>
<path d="M15.75 19C15.75 20.6569 14.4069 22 12.75 22C11.0931 22 9.75 20.6569 9.75 19" stroke="#757575" stroke-width="1.5" stroke-linecap="round" stroke-linejoin="round"/>
</svg>
