<svg width="42" height="42" viewBox="0 0 42 42" fill="none" xmlns="http://www.w3.org/2000/svg">
<g clip-path="url(#clip0_1108_693)">
<path d="M41.2198 23.9145C40.3594 23.0367 39.0177 23.0941 38.1135 23.9145L31.376 29.9766C30.5521 30.723 29.524 31.125 28.4594 31.125H19.8333C19.1917 31.125 18.6667 30.5344 18.6667 29.8125C18.6667 29.0906 19.1917 28.5 19.8333 28.5H25.5427C26.7021 28.5 27.7812 27.6059 27.9708 26.318C28.2115 24.6773 27.0885 23.25 25.6667 23.25H14C12.0312 23.25 10.1281 24.0129 8.59688 25.4074L5.20625 28.5H1.16667C0.525 28.5 0 29.0906 0 29.8125V37.6875C0 38.4094 0.525 39 1.16667 39H27.1833C28.2406 39 29.2687 38.598 30.1 37.8516L41.125 27.9258C42.2333 26.9332 42.3208 25.0301 41.2198 23.9145Z" fill="#454545"/>
<path d="M20.5625 4.56519V2.59644V4.56519ZM8.3125 18.3464C8.80337 15.091 10.3028 12.1362 12.545 10.0056C14.7872 7.87495 17.6275 6.70607 20.5625 6.70607C23.4975 6.70607 26.3378 7.87495 28.58 10.0056C30.8222 12.1362 32.3216 15.091 32.8125 18.3464M6.5625 18.3464H34.5625H6.5625Z" fill="#454545"/>
</g>
<defs>
<clipPath id="clip0_1108_693">
<rect width="42" height="42" fill="white"/>
</clipPath>
</defs>
</svg>
