<svg width="20" height="18" viewBox="0 0 20 18" fill="none" xmlns="http://www.w3.org/2000/svg">
<path d="M17.5 3H14V2C13.9992 1.46981 13.7882 0.961564 13.4133 0.586663C13.0384 0.211762 12.5302 0.0007935 12 0H8C7.46981 0.0007935 6.96156 0.211762 6.58666 0.586663C6.21176 0.961564 6.00079 1.46981 6 2V3H2.5C1.83696 3 1.20107 3.26339 0.732233 3.73223C0.263392 4.20107 0 4.83696 0 5.5V15.5C0 16.163 0.263392 16.7989 0.732233 17.2678C1.20107 17.7366 1.83696 18 2.5 18H17.5C18.163 18 18.7989 17.7366 19.2678 17.2678C19.7366 16.7989 20 16.163 20 15.5V5.5C20 4.83696 19.7366 4.20107 19.2678 3.73223C18.7989 3.26339 18.163 3 17.5 3ZM7 2C7 1.73478 7.10536 1.48043 7.29289 1.29289C7.48043 1.10536 7.73478 1 8 1H12C12.2652 1 12.5196 1.10536 12.7071 1.29289C12.8946 1.48043 13 1.73478 13 2V3H7V2ZM19 15.5C19 15.8978 18.842 16.2794 18.5607 16.5607C18.2794 16.842 17.8978 17 17.5 17H2.5C2.10218 17 1.72064 16.842 1.43934 16.5607C1.15804 16.2794 1 15.8978 1 15.5V9.027L6.842 10.975C6.89298 10.9918 6.94633 11.0002 7 11H13C13.0537 11.0002 13.107 10.9918 13.158 10.975L19 9.027V15.5ZM19 8.006C18.9466 8.00418 18.8933 8.01093 18.842 8.026L12.919 10H7.081L1.158 8.025C1.10674 8.00993 1.0534 8.00318 1 8.005V5.5C1 5.10218 1.15804 4.72064 1.43934 4.43934C1.72064 4.15804 2.10218 4 2.5 4H17.5C17.8978 4 18.2794 4.15804 18.5607 4.43934C18.842 4.72064 19 5.10218 19 5.5V8.006Z" fill="#1B75BB"/>
</svg>
