<svg width="25" height="25" viewBox="0 0 25 25" fill="none" xmlns="http://www.w3.org/2000/svg">
<path d="M20.2381 6.31348C20.8181 6.31348 21.2881 6.51348 21.6581 6.90348C22.0381 7.31348 22.2381 7.76348 22.2381 8.31348V19.3135C22.2381 19.8635 22.0381 20.3135 21.6581 20.7235C21.2881 21.1135 20.8181 21.3135 20.2381 21.3135H4.23813C3.65813 21.3135 3.18813 21.1135 2.81813 20.7235C2.43813 20.3135 2.23813 19.8635 2.23813 19.3135V8.31348C2.23813 7.76348 2.43813 7.31348 2.81813 6.90348C3.18813 6.51348 3.65813 6.31348 4.23813 6.31348H8.23813V4.31348C8.23813 3.73348 8.43813 3.26348 8.81813 2.89348C9.18813 2.51348 9.65813 2.31348 10.2381 2.31348H14.2381C14.8181 2.31348 15.2881 2.51348 15.6581 2.89348C16.0381 3.26348 16.2381 3.73348 16.2381 4.31348V6.31348H20.2381ZM4.23813 8.31348V19.3135H20.2381V8.31348H4.23813ZM14.2381 6.31348V4.31348H10.2381V6.31348H14.2381Z" fill="#F16522"/>
</svg>
