<svg width="25" height="24" viewBox="0 0 25 24" fill="none" xmlns="http://www.w3.org/2000/svg">
<path d="M4.52762 11.9424C3.5796 10.2893 3.12185 8.93948 2.84584 7.57121C2.43762 5.54758 3.37181 3.57081 4.91938 2.30947C5.57345 1.77638 6.32323 1.95852 6.71 2.6524L7.58318 4.21891C8.27529 5.46057 8.62134 6.08139 8.5527 6.73959C8.48407 7.39779 8.01737 7.93386 7.08397 9.00601L4.52762 11.9424ZM4.52762 11.9424C6.44651 15.2883 9.45784 18.3013 12.8076 20.2224M12.8076 20.2224C14.4607 21.1704 15.8105 21.6282 17.1788 21.9042C19.2024 22.3124 21.1792 21.3782 22.4405 19.8306C22.9736 19.1766 22.7915 18.4268 22.0976 18.04L20.5311 17.1668C19.2894 16.4747 18.6686 16.1287 18.0104 16.1973C17.3522 16.2659 16.8161 16.7326 15.744 17.666L12.8076 20.2224Z" stroke="#757575" stroke-width="1.5" stroke-linejoin="round"/>
</svg>
