<svg width="18" height="18" viewBox="0 0 18 18" fill="none" xmlns="http://www.w3.org/2000/svg">
<path fill-rule="evenodd" clip-rule="evenodd" d="M14.5759 4.32573C14.9328 4.32562 15.2766 4.46041 15.5383 4.70309C15.8 4.94578 15.9603 5.27841 15.9871 5.63431L15.9906 5.74041V12.8138C15.9907 13.1707 15.8559 13.5145 15.6132 13.7762C15.3705 14.0379 15.0379 14.1982 14.682 14.225L14.5759 14.2285H3.25843C2.90153 14.2286 2.55776 14.0938 2.29606 13.8512C2.03436 13.6085 1.87405 13.2758 1.84729 12.9199L1.84375 12.8138V5.74041C1.84364 5.38351 1.97843 5.03974 2.22111 4.77804C2.4638 4.51634 2.79643 4.35603 3.15233 4.32927L3.25843 4.32573H14.5759ZM12.456 5.74041H5.37834L5.38046 5.82883C5.38046 6.09589 5.32786 6.36033 5.22566 6.60706C5.12346 6.85379 4.97367 7.07797 4.78483 7.26681C4.59599 7.45565 4.37181 7.60544 4.12508 7.70764C3.87835 7.80984 3.61391 7.86244 3.34685 7.86244L3.25843 7.86032V10.6939L3.34685 10.6918C3.8862 10.6918 4.40345 10.9061 4.78483 11.2874C5.16621 11.6688 5.38046 12.1861 5.38046 12.7254L5.37834 12.8138H12.456L12.4539 12.7254C12.4539 12.2068 12.6521 11.7077 13.0079 11.3304C13.3637 10.953 13.8502 10.7258 14.3679 10.6953L14.5321 10.6925L14.5759 10.6939V7.86032L14.4875 7.86244C13.9688 7.86243 13.4698 7.66426 13.0924 7.30846C12.7151 6.95266 12.4879 6.46612 12.4574 5.94837L12.4539 5.78427L12.456 5.74041ZM14.4875 12.1065C14.3987 12.1065 14.311 12.1256 14.2303 12.1625C14.1496 12.1993 14.0777 12.2532 14.0196 12.3202C13.9615 12.3873 13.9185 12.4661 13.8936 12.5513C13.8686 12.6365 13.8623 12.726 13.8749 12.8138H14.5759V12.1129C14.5466 12.1089 14.5171 12.1068 14.4875 12.1065ZM3.34685 12.1065C3.31728 12.1068 3.28774 12.1089 3.25843 12.1129V12.8138H3.95941C3.97209 12.726 3.96573 12.6365 3.94076 12.5513C3.91579 12.4661 3.8728 12.3873 3.8147 12.3202C3.7566 12.2532 3.68476 12.1993 3.60403 12.1625C3.52331 12.1256 3.4356 12.1065 3.34685 12.1065ZM8.91717 6.44776C9.66757 6.44776 10.3872 6.74585 10.9178 7.27646C11.4484 7.80707 11.7465 8.52673 11.7465 9.27712C11.7465 10.0275 11.4484 10.7472 10.9178 11.2778C10.3872 11.8084 9.66757 12.1065 8.91717 12.1065C8.16678 12.1065 7.44711 11.8084 6.91651 11.2778C6.3859 10.7472 6.0878 10.0275 6.0878 9.27712C6.0878 8.52673 6.3859 7.80707 6.91651 7.27646C7.44711 6.74585 8.16678 6.44776 8.91717 6.44776ZM8.91717 7.86244C8.54197 7.86244 8.18214 8.01149 7.91684 8.27679C7.65153 8.5421 7.50249 8.90193 7.50249 9.27712C7.50249 9.65232 7.65153 10.0122 7.91684 10.2775C8.18214 10.5428 8.54197 10.6918 8.91717 10.6918C9.29237 10.6918 9.6522 10.5428 9.9175 10.2775C10.1828 10.0122 10.3319 9.65232 10.3319 9.27712C10.3319 8.90193 10.1828 8.5421 9.9175 8.27679C9.6522 8.01149 9.29237 7.86244 8.91717 7.86244ZM3.95941 5.74041H3.25843V6.44139C3.34627 6.45407 3.43581 6.44771 3.52097 6.42274C3.60614 6.39777 3.68494 6.35478 3.75203 6.29668C3.81911 6.23858 3.87292 6.16674 3.9098 6.08601C3.94668 6.00529 3.96577 5.91758 3.96578 5.82883L3.96436 5.78427L3.95941 5.74041ZM14.5759 5.74041H13.8749C13.8623 5.82825 13.8686 5.91779 13.8936 6.00295C13.9185 6.08812 13.9615 6.16692 14.0196 6.23401C14.0777 6.30109 14.1496 6.3549 14.2303 6.39178C14.311 6.42866 14.3987 6.44775 14.4875 6.44776L14.5321 6.44634L14.5759 6.44068V5.74041Z" fill="#F16522"/>
</svg>
