<svg width="40" height="42" viewBox="0 0 40 42" fill="none" xmlns="http://www.w3.org/2000/svg">
<path d="M40 22C40 33.0457 25.5 37.5 20 42C12.5 35.5 0 33.0457 0 22C0 10.9543 8.9543 2 20 2C31.0457 2 40 10.9543 40 22Z" fill="#F35507"/>
<mask id="mask0_821_1357" style="mask-type:alpha" maskUnits="userSpaceOnUse" x="0" y="0" width="40" height="40">
<circle cx="20" cy="20" r="20" fill="black"/>
</mask>
<g mask="url(#mask0_821_1357)">
</g>
<path d="M20.4023 13.875C19.991 13.875 19.5823 14.0123 19.2302 14.2634L18.1404 15.0192L16.8847 15.1827H16.8643L16.8439 15.203C16.432 15.2951 16.0548 15.5014 15.7562 15.7981C15.4576 16.0947 15.2499 16.4695 15.1572 16.8788L15.1375 16.899V16.9193L14.9729 18.1865L14.2121 19.1672L14.1911 19.1875V19.2078C13.7311 19.9381 13.7107 20.881 14.2121 21.578L14.9933 22.6607L15.1993 23.7853L13.0809 26.9925L12.4023 27.9942H15.5488L16.3096 29.751L16.7827 30.875L17.4612 29.853L19.5382 26.7473C20.0963 26.9748 20.7261 26.9957 21.2664 26.7473L23.3434 29.853L24.022 30.875L24.4951 29.751L25.2559 27.9942H28.4023L27.7238 26.9925L25.6672 23.8873L25.8318 22.6614L26.5925 21.5786L26.6136 21.5583V21.5381C27.0736 20.8077 27.094 19.8852 26.5925 19.1882L25.8318 18.1047L25.585 16.8788H25.6054C25.6027 16.8631 25.5876 16.8526 25.585 16.8376C25.4665 15.9823 24.7854 15.288 23.9193 15.1827H23.8982L22.6643 15.0192L21.5744 14.2634C21.2342 14.0155 20.8243 13.8797 20.4023 13.875ZM20.4023 15.203C20.5537 15.203 20.7031 15.2487 20.8137 15.3259L21.9858 16.1635L22.1299 16.2655L22.2944 16.2864L23.7344 16.4904H23.7541C24.0503 16.5231 24.2556 16.7277 24.2892 17.022V17.0625L24.557 18.5134L24.5767 18.6566L24.6801 18.7788L25.5231 19.9433C25.6804 20.1604 25.7008 20.5285 25.5027 20.8424L24.5774 22.1298L24.5563 22.2933L24.351 23.7239V23.7435C24.3399 23.8457 24.3047 23.9438 24.2483 24.0299L24.2069 24.0508V24.0704C24.1091 24.1871 23.9688 24.2607 23.8166 24.2751H23.7752L22.274 24.5412L22.1095 24.5608L21.9858 24.6635L20.8137 25.501C20.5952 25.6573 20.2043 25.6776 19.8884 25.4808L18.8189 24.6635L18.6952 24.5615L18.5103 24.5405L17.0703 24.3365H17.0506C16.9576 24.3281 16.868 24.2977 16.7892 24.2479C16.7105 24.1981 16.6448 24.1303 16.5978 24.0502C16.5542 23.9747 16.5263 23.8913 16.5155 23.805V23.7644L16.2483 22.273L16.2273 22.1095L16.1246 21.9866L15.2816 20.8221C15.1243 20.605 15.1039 20.2167 15.302 19.9028L16.1246 18.8403L16.2273 18.7174L16.2477 18.5337L16.4333 17.1645C16.4359 17.1547 16.451 17.1547 16.4537 17.1442C16.4951 16.987 16.5779 16.8436 16.6935 16.7287C16.8092 16.6138 16.9535 16.5315 17.1118 16.4904C17.1223 16.4878 17.1223 16.4727 17.1322 16.4701L18.5103 16.2857L18.6748 16.2661L18.8189 16.1635L19.991 15.3259C20.1016 15.2494 20.251 15.203 20.4023 15.203ZM24.9473 25.1538L25.9555 26.6865H24.3708L24.2062 27.0951L23.7541 28.1367L22.3556 26.0117L22.6636 25.7874L23.9601 25.5625V25.5828C23.9752 25.5802 23.9851 25.5651 24.0009 25.5625C24.3473 25.5129 24.6745 25.3717 24.9473 25.1538ZM15.8574 25.1741C16.1432 25.4322 16.5022 25.5964 16.8854 25.6442H16.9058L18.1608 25.8077L18.4484 26.0326L17.0499 28.1367L16.5978 27.0951L16.4333 26.6865H14.8499L15.8574 25.1741Z" fill="white" stroke="white"/>
</svg>
