<svg width="18" height="18" viewBox="0 0 18 18" fill="none" xmlns="http://www.w3.org/2000/svg">
<path d="M14.6778 9.94107H12.4244V7.55182H13.6174C13.8635 7.55182 14.0995 7.45393 14.2735 7.27968C14.4475 7.10543 14.5453 6.8691 14.5453 6.62267V3.43701C14.5453 3.19058 14.4475 2.95425 14.2735 2.78C14.0995 2.60575 13.8635 2.50785 13.6174 2.50785H5.13404C4.88796 2.50785 4.65195 2.60575 4.47794 2.78C4.30393 2.95425 4.20617 3.19058 4.20617 3.43701V6.62267C4.20617 6.8691 4.30393 7.10543 4.47794 7.27968C4.65195 7.45393 4.88796 7.55182 5.13404 7.55182H6.32702V9.94107H4.07362C3.82754 9.94107 3.59153 10.039 3.41752 10.2132C3.24351 10.3875 3.14575 10.6238 3.14575 10.8702V11.9321C3.14575 12.1785 3.24351 12.4149 3.41752 12.5891C3.59153 12.7634 3.82754 12.8613 4.07362 12.8613H4.73639V15.6487C4.73639 15.7543 4.77828 15.8556 4.85286 15.9303C4.92743 16.005 5.02858 16.0469 5.13404 16.0469C5.23951 16.0469 5.34066 16.005 5.41523 15.9303C5.48981 15.8556 5.5317 15.7543 5.5317 15.6487V12.8613H13.2198V15.6487C13.2198 15.7543 13.2617 15.8556 13.3362 15.9303C13.4108 16.005 13.512 16.0469 13.6174 16.0469C13.7229 16.0469 13.824 16.005 13.8986 15.9303C13.9732 15.8556 14.0151 15.7543 14.0151 15.6487V12.8613H14.6778C14.9239 12.8613 15.1599 12.7634 15.3339 12.5891C15.508 12.4149 15.6057 12.1785 15.6057 11.9321V10.8702C15.6057 10.6238 15.508 10.3875 15.3339 10.2132C15.1599 10.039 14.9239 9.94107 14.6778 9.94107ZM5.00149 6.62267V3.43701C5.00149 3.4018 5.01546 3.36804 5.04031 3.34315C5.06517 3.31826 5.09889 3.30427 5.13404 3.30427H13.6174C13.6526 3.30427 13.6863 3.31826 13.7112 3.34315C13.736 3.36804 13.75 3.4018 13.75 3.43701V6.62267C13.75 6.65787 13.736 6.69164 13.7112 6.71653C13.6863 6.74142 13.6526 6.75541 13.6174 6.75541H5.13404C5.09889 6.75541 5.06517 6.74142 5.04031 6.71653C5.01546 6.69164 5.00149 6.65787 5.00149 6.62267ZM7.12234 7.55182H11.6291V9.94107H7.12234V7.55182ZM14.8104 11.9321C14.8104 11.9673 14.7964 12.0011 14.7716 12.026C14.7467 12.0509 14.713 12.0648 14.6778 12.0648H4.07362C4.03847 12.0648 4.00475 12.0509 3.97989 12.026C3.95503 12.0011 3.94107 11.9673 3.94107 11.9321V10.8702C3.94107 10.835 3.95503 10.8013 3.97989 10.7764C4.00475 10.7515 4.03847 10.7375 4.07362 10.7375H14.6778C14.713 10.7375 14.7467 10.7515 14.7716 10.7764C14.7964 10.8013 14.8104 10.835 14.8104 10.8702V11.9321Z" fill="#F16522"/>
</svg>
