<svg width="20" height="20" viewBox="0 0 20 20" fill="none" xmlns="http://www.w3.org/2000/svg">
<path d="M18.3334 9.63892C18.3334 14.0415 14.6019 17.6112 10.0001 17.6112C9.45899 17.6119 8.91945 17.5619 8.38793 17.462C8.00535 17.3902 7.81407 17.3543 7.68052 17.3747C7.54698 17.3951 7.35773 17.4957 6.97924 17.697C5.90853 18.2664 4.66004 18.4675 3.45934 18.2441C3.9157 17.6828 4.22737 17.0093 4.3649 16.2873C4.44823 15.8457 4.24175 15.4166 3.93249 15.1026C2.52786 13.6763 1.66675 11.7542 1.66675 9.63892C1.66675 5.2363 5.39823 1.66666 10.0001 1.66666C14.6019 1.66666 18.3334 5.2363 18.3334 9.63892Z" stroke="#757575" stroke-width="2" stroke-linejoin="round"/>
<path d="M9.99634 10H10.0038M13.3259 10H13.3334M6.66675 10H6.67422" stroke="#757575" stroke-width="3" stroke-linecap="round" stroke-linejoin="round"/>
</svg>
