<svg width="18" height="18" viewBox="0 0 18 18" fill="none" xmlns="http://www.w3.org/2000/svg">
<path d="M13.1542 11.3088H11.7403V12.7246H13.1542M13.1542 8.47706H11.7403V9.89291H13.1542M14.5681 14.1405H8.9125V12.7246H10.3264V11.3088H8.9125V9.89291H10.3264V8.47706H8.9125V7.06121H14.5681M7.4986 5.64536H6.08471V4.22951H7.4986M7.4986 8.47706H6.08471V7.06121H7.4986M7.4986 11.3088H6.08471V9.89291H7.4986M7.4986 14.1405H6.08471V12.7246H7.4986M4.67081 5.64536H3.25691V4.22951H4.67081M4.67081 8.47706H3.25691V7.06121H4.67081M4.67081 11.3088H3.25691V9.89291H4.67081M4.67081 14.1405H3.25691V12.7246H4.67081M8.9125 5.64536V2.81366H1.84302V15.5563H15.982V5.64536H8.9125Z" fill="#F16522"/>
</svg>
