<svg width="25" height="25" viewBox="0 0 25 25" fill="none" xmlns="http://www.w3.org/2000/svg">
<path d="M8.23813 14.4886C7.9548 14.4886 7.71746 14.3926 7.52613 14.2006C7.3348 14.0086 7.2388 13.7713 7.23813 13.4886C7.23746 13.2059 7.33346 12.9686 7.52613 12.7766C7.7188 12.5846 7.95613 12.4886 8.23813 12.4886C8.52013 12.4886 8.7578 12.5846 8.95113 12.7766C9.14446 12.9686 9.24013 13.2059 9.23813 13.4886C9.23613 13.7713 9.14013 14.0089 8.95013 14.2016C8.76013 14.3943 8.5228 14.4899 8.23813 14.4886ZM12.2381 14.4886C11.9548 14.4886 11.7175 14.3926 11.5261 14.2006C11.3348 14.0086 11.2388 13.7713 11.2381 13.4886C11.2375 13.2059 11.3335 12.9686 11.5261 12.7766C11.7188 12.5846 11.9561 12.4886 12.2381 12.4886C12.5201 12.4886 12.7578 12.5846 12.9511 12.7766C13.1445 12.9686 13.2401 13.2059 13.2381 13.4886C13.2361 13.7713 13.1401 14.0089 12.9501 14.2016C12.7601 14.3943 12.5228 14.4899 12.2381 14.4886ZM16.2381 14.4886C15.9548 14.4886 15.7175 14.3926 15.5261 14.2006C15.3348 14.0086 15.2388 13.7713 15.2381 13.4886C15.2375 13.2059 15.3335 12.9686 15.5261 12.7766C15.7188 12.5846 15.9561 12.4886 16.2381 12.4886C16.5201 12.4886 16.7578 12.5846 16.9511 12.7766C17.1445 12.9686 17.2401 13.2059 17.2381 13.4886C17.2361 13.7713 17.1401 14.0089 16.9501 14.2016C16.7601 14.3943 16.5228 14.4899 16.2381 14.4886ZM5.23813 22.4886C4.68813 22.4886 4.21746 22.2929 3.82613 21.9016C3.4348 21.5103 3.2388 21.0393 3.23813 20.4886V6.48859C3.23813 5.93859 3.43413 5.46792 3.82613 5.07659C4.21813 4.68525 4.6888 4.48925 5.23813 4.48859H6.23813V2.48859H8.23813V4.48859H16.2381V2.48859H18.2381V4.48859H19.2381C19.7881 4.48859 20.2591 4.68459 20.6511 5.07659C21.0431 5.46859 21.2388 5.93925 21.2381 6.48859V20.4886C21.2381 21.0386 21.0425 21.5096 20.6511 21.9016C20.2598 22.2936 19.7888 22.4893 19.2381 22.4886H5.23813ZM5.23813 20.4886H19.2381V10.4886H5.23813V20.4886ZM5.23813 8.48859H19.2381V6.48859H5.23813V8.48859Z" fill="#F16522"/>
</svg>
