<svg width="48" height="48" viewBox="0 0 48 48" fill="none" xmlns="http://www.w3.org/2000/svg">
<path d="M20 10H28C28 8.93913 27.5786 7.92172 26.8284 7.17157C26.0783 6.42143 25.0609 6 24 6C22.9391 6 21.9217 6.42143 21.1716 7.17157C20.4214 7.92172 20 8.93913 20 10ZM17 10C17 9.08075 17.1811 8.1705 17.5328 7.32122C17.8846 6.47194 18.4002 5.70026 19.0503 5.05025C19.7003 4.40024 20.4719 3.88463 21.3212 3.53284C22.1705 3.18106 23.0807 3 24 3C24.9193 3 25.8295 3.18106 26.6788 3.53284C27.5281 3.88463 28.2997 4.40024 28.9497 5.05025C29.5998 5.70026 30.1154 6.47194 30.4672 7.32122C30.8189 8.1705 31 9.08075 31 10H42.5C42.8978 10 43.2794 10.158 43.5607 10.4393C43.842 10.7206 44 11.1022 44 11.5C44 11.8978 43.842 12.2794 43.5607 12.5607C43.2794 12.842 42.8978 13 42.5 13H39.86L37.52 37.222C37.3405 39.078 36.4761 40.8005 35.0954 42.0537C33.7146 43.3068 31.9166 44.0007 30.052 44H17.948C16.0837 44.0002 14.2862 43.3061 12.9059 42.053C11.5256 40.7999 10.6615 39.0776 10.482 37.222L8.14 13H5.5C5.10218 13 4.72064 12.842 4.43934 12.5607C4.15804 12.2794 4 11.8978 4 11.5C4 11.1022 4.15804 10.7206 4.43934 10.4393C4.72064 10.158 5.10218 10 5.5 10H17ZM21 19.5C21 19.1022 20.842 18.7206 20.5607 18.4393C20.2794 18.158 19.8978 18 19.5 18C19.1022 18 18.7206 18.158 18.4393 18.4393C18.158 18.7206 18 19.1022 18 19.5V34.5C18 34.8978 18.158 35.2794 18.4393 35.5607C18.7206 35.842 19.1022 36 19.5 36C19.8978 36 20.2794 35.842 20.5607 35.5607C20.842 35.2794 21 34.8978 21 34.5V19.5ZM28.5 18C28.1022 18 27.7206 18.158 27.4393 18.4393C27.158 18.7206 27 19.1022 27 19.5V34.5C27 34.8978 27.158 35.2794 27.4393 35.5607C27.7206 35.842 28.1022 36 28.5 36C28.8978 36 29.2794 35.842 29.5607 35.5607C29.842 35.2794 30 34.8978 30 34.5V19.5C30 19.1022 29.842 18.7206 29.5607 18.4393C29.2794 18.158 28.8978 18 28.5 18Z" fill="#F35507"/>
</svg>
