<svg width="25" height="25" viewBox="0 0 25 25" fill="none" xmlns="http://www.w3.org/2000/svg">
<path d="M8.23813 18.4011H16.2381V16.4011H8.23813V18.4011ZM8.23813 14.4011H16.2381V12.4011H8.23813V14.4011ZM6.23813 22.4011C5.68813 22.4011 5.21746 22.2054 4.82613 21.8141C4.4348 21.4227 4.2388 20.9517 4.23813 20.4011V4.40106C4.23813 3.85106 4.43413 3.3804 4.82613 2.98906C5.21813 2.59773 5.6888 2.40173 6.23813 2.40106H14.2381L20.2381 8.40106V20.4011C20.2381 20.9511 20.0425 21.4221 19.6511 21.8141C19.2598 22.2061 18.7888 22.4017 18.2381 22.4011H6.23813ZM13.2381 9.40106V4.40106H6.23813V20.4011H18.2381V9.40106H13.2381Z" fill="#F16522"/>
</svg>
