<svg width="341" height="254" viewBox="0 0 341 254" fill="none" xmlns="http://www.w3.org/2000/svg">
<path d="M340.282 222.817H0V222.987H340.282V222.817Z" fill="#EBEBEB"/>
<path d="M237.061 230.412H229.929V230.582H237.061V230.412Z" fill="#EBEBEB"/>
<path d="M71.5817 227.009H44.189V227.179H71.5817V227.009Z" fill="#EBEBEB"/>
<path d="M125.449 227.513H85.1934V227.683H125.449V227.513Z" fill="#EBEBEB"/>
<path d="M183.072 227.513H171.482V227.683H183.072V227.513Z" fill="#EBEBEB"/>
<path d="M303.559 228.588H266.4V228.758H303.559V228.588Z" fill="#EBEBEB"/>
<path d="M155.7 231.392H140.346V231.562H155.7V231.392Z" fill="#EBEBEB"/>
<path d="M317.272 228.677H307.533V228.847H317.272V228.677Z" fill="#EBEBEB"/>
<path d="M161.294 192.464H29.8836C28.8542 192.462 27.8675 192.052 27.1402 191.323C26.4129 190.595 26.0044 189.607 26.0044 188.578V3.852C26.0134 2.82844 26.4258 1.84976 27.1521 1.12853C27.8785 0.40729 28.86 0.0017534 29.8836 0H161.294C162.325 0 163.313 0.40942 164.042 1.13819C164.771 1.86696 165.18 2.85539 165.18 3.88603V188.578C165.18 189.608 164.771 190.597 164.042 191.326C163.313 192.054 162.325 192.464 161.294 192.464ZM29.8836 0.136114C28.8993 0.137916 27.9559 0.530204 27.2605 1.22687C26.5651 1.92354 26.1745 2.86766 26.1745 3.852V188.578C26.1745 189.562 26.5651 190.506 27.2605 191.203C27.9559 191.9 28.8993 192.292 29.8836 192.294H161.294C162.279 192.292 163.223 191.9 163.919 191.203C164.616 190.507 165.008 189.563 165.01 188.578V3.852C165.008 2.86704 164.616 1.92293 163.919 1.22646C163.223 0.529983 162.279 0.137913 161.294 0.136114H29.8836Z" fill="#EBEBEB"/>
<path d="M308.507 192.464H177.09C176.06 192.462 175.072 192.052 174.344 191.324C173.615 190.595 173.205 189.608 173.204 188.578V3.852C173.214 2.82782 173.628 1.84915 174.356 1.1281C175.083 0.407052 176.065 0.00173428 177.09 0H308.507C309.529 0.003542 310.509 0.40987 311.234 1.13091C311.959 1.85196 312.37 2.82962 312.379 3.852V188.578C312.379 189.606 311.972 190.592 311.246 191.321C310.52 192.049 309.535 192.46 308.507 192.464ZM177.09 0.136114C176.105 0.137913 175.161 0.529983 174.464 1.22646C173.768 1.92293 173.376 2.86704 173.374 3.852V188.578C173.376 189.563 173.768 190.507 174.464 191.203C175.161 191.9 176.105 192.292 177.09 192.294H308.507C309.492 192.292 310.436 191.9 311.132 191.203C311.829 190.507 312.221 189.563 312.223 188.578V3.852C312.221 2.86704 311.829 1.92293 311.132 1.22646C310.436 0.529983 309.492 0.137913 308.507 0.136114H177.09Z" fill="#EBEBEB"/>
<path d="M49.5588 120.753L142.306 120.753V12.6789L49.5588 12.6789L49.5588 120.753Z" fill="#F5F5F5"/>
<path d="M47.034 120.753L141.122 120.753V12.6789L47.034 12.6789L47.034 120.753Z" fill="#F5F5F5"/>
<path d="M49.5588 126.803L142.306 126.803V120.746L49.5588 120.746V126.803Z" fill="#E6E6E6"/>
<path d="M35.505 126.803L124.081 126.803V120.746L35.505 120.746V126.803Z" fill="#F5F5F5"/>
<path d="M137.597 116.166V17.2591L50.566 17.2591V116.166H137.597Z" fill="#FAFAFA"/>
<path d="M125.074 116.166L104.358 17.2659H77.21L97.9196 116.166H125.074Z" fill="white"/>
<path d="M93.5232 116.166L72.8136 17.2659H60.5498L81.2662 116.166H93.5232Z" fill="white"/>
<path d="M51.0083 105.821L51.0083 16.6466H50.5591L50.5591 105.821H51.0083Z" fill="white"/>
<path d="M144.961 12.5224V51.0015H134.752C134.752 51.0015 116.459 39.0712 112.293 14.5233C112.195 13.9386 112.224 13.3395 112.38 12.7675C112.537 12.1955 112.815 11.6644 113.197 11.211C113.58 10.7577 114.056 10.393 114.593 10.1423C115.13 9.89158 115.716 9.76089 116.309 9.7593H142.17C142.535 9.75661 142.897 9.82605 143.235 9.96362C143.573 10.1012 143.88 10.3042 144.14 10.5609C144.399 10.8177 144.605 11.1231 144.746 11.4598C144.887 11.7964 144.96 12.1575 144.961 12.5224Z" fill="#E6E6E6"/>
<path d="M144.96 112.681V54.1049H134.752C134.752 54.1049 128.899 65.9331 123.06 79.5308C121.518 83.1519 120.898 87.0986 121.254 91.018C121.61 94.9374 122.932 98.7075 125.102 101.991C127.271 105.275 130.22 107.97 133.686 109.835C137.151 111.701 141.025 112.679 144.96 112.681Z" fill="#E6E6E6"/>
<path d="M135.065 54.1049H144.572C145.136 54.1049 145.593 53.6479 145.593 53.0841V52.0224C145.593 51.4586 145.136 51.0015 144.572 51.0015H135.065C134.501 51.0015 134.044 51.4586 134.044 52.0224V53.0841C134.044 53.6479 134.501 54.1049 135.065 54.1049Z" fill="#F5F5F5"/>
<path d="M44.1484 12.5224V51.0015H54.3569C54.3569 51.0015 72.6505 39.0712 76.8156 14.5233C76.9144 13.9386 76.8847 13.3395 76.7286 12.7675C76.5725 12.1955 76.2937 11.6644 75.9116 11.211C75.5294 10.7577 75.0532 10.393 74.5159 10.1423C73.9786 9.89158 73.3931 9.76089 72.8002 9.7593H46.9388C46.5739 9.75661 46.212 9.82605 45.8741 9.96362C45.5361 10.1012 45.2286 10.3042 44.9693 10.5609C44.71 10.8177 44.5041 11.1231 44.3632 11.4598C44.2223 11.7964 44.1493 12.1575 44.1484 12.5224Z" fill="#E6E6E6"/>
<path d="M44.1484 112.681V54.1049H54.3569C54.3569 54.1049 60.2098 65.9331 66.049 79.5308C67.5898 83.1498 68.2103 87.094 67.8553 91.0112C67.5003 94.9285 66.1808 98.6969 64.0146 101.98C61.8484 105.263 58.9029 107.958 55.4411 109.826C51.9793 111.693 48.109 112.674 44.1757 112.681H44.1484Z" fill="#E6E6E6"/>
<path d="M54.0366 51.0015H44.5291C43.9653 51.0015 43.5083 51.4586 43.5083 52.0224V53.0841C43.5083 53.6479 43.9653 54.1049 44.5291 54.1049H54.0366C54.6004 54.1049 55.0575 53.6479 55.0575 53.0841V52.0224C55.0575 51.4586 54.6004 51.0015 54.0366 51.0015Z" fill="#F5F5F5"/>
<path d="M251.373 99.6075H292.228V25.9499H251.373V99.6075Z" fill="#E0E0E0"/>
<path d="M246.8 99.6075H291.187V25.9499H246.8V99.6075Z" fill="#F5F5F5"/>
<path d="M286.606 95.0273V30.5233L251.374 30.5233V95.0273H286.606Z" fill="white"/>
<path d="M274.295 53.0705V43.5357H263.685V53.0705H274.295Z" fill="#F5F5F5"/>
<path d="M274.295 67.5393V58.0045H263.685V67.5393H274.295Z" fill="#F5F5F5"/>
<path d="M274.295 82.0081V72.4734H263.685V82.0081H274.295Z" fill="#F5F5F5"/>
<path d="M207.681 82.3484C213.541 82.2461 219.125 79.8468 223.232 75.6672C227.34 71.4876 229.641 65.862 229.641 60.002C229.641 54.142 227.34 48.5165 223.232 44.3368C219.125 40.1572 213.541 37.7579 207.681 37.6557H206.32V82.3484H207.681Z" fill="#E6E6E6"/>
<path d="M211.521 81.7337C223.521 78.8573 230.917 66.7978 228.041 54.798C225.164 42.7983 213.105 35.4024 201.105 38.2789C189.105 41.1553 181.709 53.2148 184.586 65.2146C187.462 77.2143 199.522 84.6102 211.521 81.7337Z" fill="#F5F5F5"/>
<path d="M209.027 76.6525C218.212 75.1501 224.439 66.4868 222.937 57.3025C221.434 48.1181 212.771 41.8906 203.587 43.3929C194.402 44.8953 188.175 53.5586 189.677 62.7429C191.18 71.9273 199.843 78.1548 209.027 76.6525Z" fill="white"/>
<path d="M199.337 66.2938L198.024 64.4087L205.034 59.5222L202.72 48.2657L204.966 47.8029L207.586 60.5362L199.337 66.2938Z" fill="#E6E6E6"/>
<path d="M97.6612 225.233H126.864L126.864 146.328H97.6612L97.6612 225.233Z" fill="#E6E6E6"/>
<path d="M105.46 225.226H97.6611V212.159H113.634L105.46 225.226Z" fill="#F0F0F0"/>
<path d="M272.736 225.233H301.939V146.328H272.736V225.233Z" fill="#F0F0F0"/>
<path d="M97.661 220.734L279.549 220.734V146.328L97.661 146.328V220.734Z" fill="#FAFAFA"/>
<path d="M271.75 225.226H279.549V212.159H263.569L271.75 225.226Z" fill="#F0F0F0"/>
<path d="M103.712 180.112L273.499 180.112V152.726L103.712 152.726V180.112Z" fill="#F0F0F0"/>
<path d="M103.712 214.113L273.499 214.113V186.727L103.712 186.727V214.113Z" fill="#F0F0F0"/>
<path d="M228.602 138.617C231.97 138.617 234.7 135.887 234.7 132.52C234.7 129.152 231.97 126.422 228.602 126.422C225.234 126.422 222.504 129.152 222.504 132.52C222.504 135.887 225.234 138.617 228.602 138.617Z" fill="#F5F5F5"/>
<path d="M232.903 135.432C232.903 136.375 233.183 137.296 233.706 138.079C234.23 138.863 234.974 139.473 235.844 139.834C236.715 140.194 237.673 140.289 238.597 140.105C239.521 139.921 240.37 139.467 241.036 138.801C241.702 138.135 242.156 137.286 242.34 136.362C242.524 135.438 242.429 134.48 242.069 133.609C241.708 132.739 241.097 131.995 240.314 131.471C239.531 130.948 238.609 130.668 237.667 130.668C236.404 130.668 235.192 131.17 234.299 132.064C233.405 132.957 232.903 134.169 232.903 135.432Z" fill="#F5F5F5"/>
<path d="M218.169 141.523C221.536 141.523 224.267 138.793 224.267 135.426C224.267 132.058 221.536 129.328 218.169 129.328C214.801 129.328 212.071 132.058 212.071 135.426C212.071 138.793 214.801 141.523 218.169 141.523Z" fill="#F5F5F5"/>
<path d="M208.171 139.734C211.539 139.734 214.269 137.003 214.269 133.636C214.269 130.268 211.539 127.538 208.171 127.538C204.803 127.538 202.073 130.268 202.073 133.636C202.073 137.003 204.803 139.734 208.171 139.734Z" fill="#F5F5F5"/>
<path d="M254.456 134.432C254.456 134.432 253.619 146.321 221.531 146.321C189.442 146.321 188.605 134.432 188.605 134.432H254.456Z" fill="#E6E6E6"/>
<path d="M170.141 253.551C243.018 253.551 302.096 250.102 302.096 245.847C302.096 241.592 243.018 238.143 170.141 238.143C97.2647 238.143 38.1865 241.592 38.1865 245.847C38.1865 250.102 97.2647 253.551 170.141 253.551Z" fill="#F5F5F5"/>
<path d="M140.401 71.8949C140.489 72.1943 140.646 72.6503 140.782 73.0314L141.218 74.2496C141.517 75.0595 141.844 75.8626 142.191 76.6588C142.869 78.2348 143.633 79.7728 144.477 81.2663C146.152 84.1927 148.187 86.8401 150.603 88.5347L151.025 88.8273C151.025 88.8273 151.025 88.875 151.127 88.8886C151.587 88.8768 152.038 88.753 152.44 88.5279C153.835 87.7891 155.118 86.8565 156.251 85.758C157.561 84.5592 158.808 83.294 159.988 81.9672C161.199 80.6061 162.39 79.1973 163.513 77.8158L166.759 79.7758C165.073 83.3516 162.954 86.7069 160.45 89.7665C159.075 91.4675 157.445 92.9459 155.618 94.1494C154.418 94.9224 153.06 95.4177 151.644 95.599C150.743 95.6906 149.832 95.6075 148.962 95.354C148.514 95.2225 148.081 95.0446 147.669 94.8231L146.887 94.3876C144.984 93.2405 143.262 91.8186 141.776 90.1681C140.355 88.6155 139.087 86.9289 137.992 85.1319C136.917 83.3872 135.968 81.5677 135.154 79.6873C134.752 78.7618 134.371 77.8226 134.024 76.8766C133.847 76.4002 133.677 75.9238 133.52 75.4338C133.364 74.9438 133.221 74.4946 133.058 73.8889L140.401 71.8949Z" fill="#B97964"/>
<path d="M147.431 83.9205L138.727 88.7389C138.727 88.7389 138.468 88.3646 138.046 87.718C137.74 87.2416 137.366 86.6155 136.889 85.8805C134.33 81.7222 130.083 74.1271 131.193 70.9081C132.887 65.9536 139.135 66.0352 142.204 71.7792C143.688 74.6411 145.018 77.5809 146.186 80.5857C146.505 81.3888 146.771 82.0898 146.975 82.6274C147.268 83.4509 147.431 83.9205 147.431 83.9205Z" fill="#F35507"/>
<path opacity="0.2" d="M147.431 83.9205L138.727 88.7389C138.727 88.7389 138.468 88.3646 138.046 87.718C137.74 87.2416 137.366 86.6155 136.889 85.8805C134.33 81.7222 130.083 74.1271 131.193 70.9081C132.887 65.9536 139.135 66.0352 142.204 71.7792C143.688 74.6411 145.018 77.5809 146.186 80.5857C146.505 81.3888 146.771 82.0898 146.975 82.6274C147.268 83.4509 147.431 83.9205 147.431 83.9205Z" fill="black"/>
<path opacity="0.2" d="M147.002 82.6614L138.073 87.718C137.767 87.2416 137.392 86.6155 136.916 85.8805L146.213 80.6129C146.505 81.416 146.771 82.117 147.002 82.6614Z" fill="black"/>
<path opacity="0.2" d="M131.063 71.507C133.01 70.5678 135.255 71.3504 137.61 75.0799C139.965 78.8094 141.986 85.0706 142.238 86.8197L138.76 88.7389C138.76 88.7389 130.349 76.4683 131.063 71.507Z" fill="black"/>
<path d="M139.135 111.347H112.15C111.96 108.938 112.518 101.098 112.103 91.114C111.846 83.7139 110.949 76.3498 109.421 69.1046C109.299 68.5601 109.176 68.0225 109.047 67.478C109.047 67.478 110.408 67.199 112.375 66.9132C114.001 66.675 116.043 66.4299 118.044 66.3347C121.863 66.1167 125.692 66.1167 129.511 66.3347C131.274 66.498 132.996 66.7906 134.371 67.0561C136.127 67.41 137.324 67.7366 137.324 67.7366C137.324 67.7366 143.81 82.9745 139.135 111.347Z" fill="#F35507"/>
<path opacity="0.2" d="M139.135 111.347H112.15C111.96 108.938 112.518 101.098 112.103 91.114C111.846 83.7139 110.949 76.3498 109.421 69.1046C109.299 68.5601 109.176 68.0225 109.047 67.478C109.047 67.478 110.408 67.199 112.375 66.9132C114.001 66.675 116.043 66.4299 118.044 66.3347C121.863 66.1167 125.692 66.1167 129.511 66.3347C131.274 66.498 132.996 66.7906 134.371 67.0561C136.127 67.41 137.324 67.7366 137.324 67.7366C137.324 67.7366 143.81 82.9745 139.135 111.347Z" fill="black"/>
<path d="M102.337 231.977L106.339 235.557L113.947 227.629L109.952 224.049L102.337 231.977Z" fill="#B97964"/>
<path d="M116.037 239.43H121.08L121.74 227.744H116.69L116.037 239.43Z" fill="#B97964"/>
<path d="M113.947 227.635L110.02 231.719L106.019 228.139L109.945 224.049L113.947 227.635Z" fill="#A76755"/>
<path d="M116.69 227.751H121.74L121.399 233.774H116.35L116.69 227.751Z" fill="#A76755"/>
<path d="M138.876 111.089C138.876 111.089 144.191 147.88 146.008 167.909C147.465 183.97 112.722 231.882 112.722 231.882L105.998 225.56C105.998 225.56 131.376 182.609 129.423 164.724C127.531 147.397 121.12 111.068 121.12 111.068L138.876 111.089Z" fill="#F35507"/>
<path opacity="0.7" d="M138.876 111.089C138.876 111.089 144.191 147.88 146.008 167.909C147.465 183.97 112.722 231.882 112.722 231.882L105.998 225.56C105.998 225.56 131.376 182.609 129.423 164.724C127.531 147.397 121.12 111.068 121.12 111.068L138.876 111.089Z" fill="black"/>
<path d="M121.345 238.878H115.696C115.649 238.876 115.602 238.884 115.557 238.9C115.513 238.917 115.472 238.942 115.437 238.974C115.402 239.006 115.374 239.045 115.355 239.088C115.335 239.131 115.324 239.178 115.322 239.225L115.05 243.71C115.05 243.946 115.143 244.173 115.308 244.341C115.474 244.509 115.699 244.605 115.935 244.609C117.908 244.575 118.847 244.452 121.379 244.452C122.91 244.452 129.43 244.615 131.547 244.615C133.663 244.615 133.588 242.519 132.71 242.329C128.682 241.478 123.693 240.287 122.271 239.191C122.009 238.98 121.681 238.869 121.345 238.878Z" fill="#263238"/>
<path d="M107.441 234.114L102.575 230.841C102.496 230.78 102.399 230.746 102.299 230.746C102.199 230.746 102.102 230.78 102.024 230.841L98.3077 234.591C98.234 234.673 98.1794 234.771 98.148 234.877C98.1166 234.983 98.1091 235.095 98.126 235.204C98.1429 235.314 98.1839 235.418 98.2459 235.509C98.3079 235.601 98.3895 235.678 98.4847 235.734C101.588 238.123 103.827 239.92 105.59 241.907C107.631 244.234 108.741 244.561 113.505 244.561C115.71 244.561 116.955 242.703 116.057 242.417C108.115 239.906 110.238 238.81 108.312 235.128C108.107 234.725 107.808 234.378 107.441 234.114Z" fill="#263238"/>
<path d="M162.914 78.6733L164.649 73.1199L169.154 76.4206C169.154 76.4206 166.691 81.3683 165.023 80.9192L162.914 78.6733Z" fill="#B97964"/>
<path d="M169.393 70.9965L171.931 74.1067L169.155 76.4206L164.649 73.1199L169.393 70.9965Z" fill="#B97964"/>
<path opacity="0.2" d="M112.103 91.114C111.846 83.7139 110.949 76.3498 109.421 69.1046C111.225 68.948 114.308 69.1046 114.818 72.0378C115.37 75.1684 114.675 82.5321 112.103 91.114Z" fill="black"/>
<path opacity="0.5" d="M129.423 164.738C128.45 155.815 126.272 141.837 124.4 130.389C125.38 128.47 128.123 124.591 128.123 124.591C130.587 133.105 135.943 165.194 128.307 208.539C120.344 221.374 112.722 231.896 112.722 231.896L111.681 215.344C119.038 201.502 130.777 177.117 129.423 164.738Z" fill="black"/>
<path d="M113.94 74.8077L112.749 76.8494C112.341 77.5572 111.946 78.2718 111.565 78.9932C110.789 80.436 110.043 81.8878 109.326 83.3488C108.645 84.812 107.965 86.282 107.359 87.752C106.774 89.202 106.263 90.6807 105.828 92.1825L105.746 92.4548L105.705 92.5977C105.683 92.635 105.669 92.6769 105.665 92.7202C105.644 92.9306 105.644 93.1426 105.665 93.3531C105.735 93.9956 105.869 94.6294 106.066 95.2451C106.538 96.7221 107.113 98.164 107.788 99.5598C109.149 102.486 110.803 105.46 112.457 108.332L109.469 110.667C106.987 108.143 104.743 105.395 102.765 102.459C101.716 100.906 100.806 99.2641 100.043 97.5522C99.6128 96.5756 99.2799 95.5589 99.0495 94.5169C98.9167 93.888 98.8483 93.2472 98.8453 92.6045C98.8403 92.2172 98.8676 91.8302 98.927 91.4475L98.9746 91.1685V90.9915L99.0495 90.6445C99.7826 87.0506 100.912 83.5492 102.418 80.2046C103.133 78.5576 103.916 76.9515 104.753 75.3794C105.175 74.5899 105.603 73.8141 106.052 73.0382C106.502 72.2624 106.944 71.5274 107.475 70.7039L113.94 74.8077Z" fill="#B97964"/>
<path d="M115.744 76.6656C114.486 80.1509 113.024 83.5596 111.368 86.8741C111.007 87.6227 110.687 88.2897 110.401 88.8273C109.925 89.7733 109.625 90.345 109.625 90.345L99.417 84.6827C99.417 84.6827 99.5463 84.2539 99.7777 83.5325C99.9546 82.9881 100.186 82.2735 100.458 81.45C102.16 76.5976 105.637 67.9408 109.047 67.444C114.144 66.7362 117.813 70.5474 115.744 76.6656Z" fill="#F35507"/>
<path opacity="0.2" d="M111.368 86.9081C111.007 87.6568 110.687 88.3237 110.401 88.8614L99.7642 83.5666C99.9411 83.0221 100.172 82.3075 100.445 81.484L111.368 86.9081Z" fill="black"/>
<path d="M123.135 239.722C122.676 239.712 122.22 239.652 121.774 239.545C121.751 239.539 121.73 239.527 121.713 239.51C121.697 239.494 121.685 239.473 121.678 239.45C121.676 239.428 121.68 239.405 121.689 239.384C121.699 239.364 121.714 239.347 121.733 239.334C121.889 239.219 123.325 238.245 123.938 238.484C124.008 238.511 124.07 238.557 124.117 238.615C124.165 238.673 124.197 238.743 124.21 238.817C124.241 238.928 124.244 239.044 124.218 239.156C124.191 239.268 124.137 239.371 124.06 239.457C123.795 239.655 123.465 239.749 123.135 239.722ZM122.114 239.375C123.019 239.552 123.679 239.525 123.918 239.293C123.966 239.236 124 239.167 124.014 239.093C124.028 239.019 124.023 238.943 123.999 238.872C123.994 238.835 123.98 238.801 123.957 238.772C123.934 238.743 123.904 238.721 123.87 238.708C123.536 238.579 122.699 239.001 122.114 239.375Z" fill="#F35507"/>
<path d="M121.821 239.559C121.804 239.565 121.785 239.565 121.767 239.559C121.75 239.549 121.735 239.535 121.725 239.519C121.714 239.502 121.707 239.483 121.706 239.464C121.706 239.402 121.59 237.953 122.1 237.463C122.164 237.398 122.243 237.35 122.329 237.322C122.416 237.293 122.507 237.286 122.597 237.299C122.697 237.304 122.793 237.341 122.871 237.405C122.948 237.469 123.002 237.556 123.026 237.653C123.142 238.205 122.386 239.259 121.883 239.559H121.821ZM122.502 237.517C122.455 237.516 122.409 237.524 122.365 237.542C122.322 237.56 122.283 237.586 122.25 237.619C121.97 238.103 121.853 238.663 121.917 239.219C122.352 238.851 122.856 238.048 122.781 237.687C122.781 237.619 122.726 237.538 122.556 237.517H122.502Z" fill="#F35507"/>
<path d="M110.708 236.837C109.808 236.699 108.948 236.366 108.19 235.863C108.169 235.851 108.153 235.833 108.143 235.811C108.133 235.789 108.13 235.764 108.135 235.741C108.14 235.717 108.153 235.694 108.171 235.677C108.189 235.66 108.212 235.649 108.237 235.646C108.509 235.646 110.898 235.469 111.361 236.013C111.398 236.06 111.424 236.116 111.436 236.175C111.448 236.234 111.445 236.295 111.429 236.353C111.409 236.447 111.367 236.535 111.305 236.609C111.243 236.682 111.164 236.739 111.075 236.775C110.957 236.818 110.833 236.838 110.708 236.837ZM108.666 235.857C109.755 236.455 110.612 236.714 110.993 236.537C111.05 236.514 111.099 236.478 111.138 236.432C111.178 236.386 111.205 236.331 111.218 236.272C111.229 236.252 111.235 236.23 111.235 236.207C111.235 236.184 111.229 236.162 111.218 236.142C110.932 235.884 109.626 235.836 108.652 235.877L108.666 235.857Z" fill="#F35507"/>
<path d="M108.251 235.904C108.231 235.904 108.211 235.899 108.193 235.89C108.175 235.88 108.16 235.867 108.149 235.85C108.14 235.832 108.136 235.812 108.136 235.792C108.136 235.772 108.14 235.752 108.149 235.734C108.189 235.652 109.101 233.801 110.265 234.373C110.585 234.53 110.619 234.72 110.592 234.849C110.469 235.394 108.952 235.897 108.258 235.918L108.251 235.904ZM109.823 234.495C109.204 234.495 108.673 235.285 108.462 235.652C109.19 235.557 110.292 235.108 110.36 234.788C110.36 234.713 110.306 234.645 110.163 234.57C110.057 234.519 109.941 234.494 109.823 234.495Z" fill="#F35507"/>
<path d="M111.102 107.264L116.125 106.393L113.546 112.205C113.546 112.205 108.959 112.205 109.17 109.816L111.102 107.264Z" fill="#B97964"/>
<path d="M119.868 109.312L117.513 114.008L113.545 112.205L116.125 106.393L119.868 109.312Z" fill="#B97964"/>
<path d="M105.59 225.192L113.131 232.284L115.553 229.677L106.937 221.823L105.59 225.192Z" fill="#F35507"/>
<path opacity="0.7" d="M105.59 225.192L113.131 232.284L115.553 229.677L106.937 221.823L105.59 225.192Z" fill="white"/>
<path d="M129.307 111.089C129.307 111.089 129.79 149.649 128.974 164.091C128.075 179.914 123.59 232.318 123.59 232.318H114.335C114.335 232.318 114.607 181.187 114.056 165.527C113.45 148.513 111.885 111.082 111.885 111.082L129.307 111.089Z" fill="#F35507"/>
<path opacity="0.7" d="M129.307 111.089C129.307 111.089 129.79 149.649 128.974 164.091C128.075 179.914 123.59 232.318 123.59 232.318H114.335C114.335 232.318 114.607 181.187 114.056 165.527C113.45 148.513 111.885 111.082 111.885 111.082L129.307 111.089Z" fill="black"/>
<path d="M113.947 232.318H123.931L124.489 228.813L113.464 229.357L113.947 232.318Z" fill="#F35507"/>
<path opacity="0.7" d="M113.947 232.318H123.931L124.489 228.813L113.464 229.357L113.947 232.318Z" fill="white"/>
<path opacity="0.2" d="M115.744 76.6656C114.486 80.1509 113.024 83.5596 111.368 86.8741C111.007 87.6227 110.687 88.2897 110.401 88.8273C109.925 89.7733 109.625 90.345 109.625 90.345L99.417 84.6827C99.417 84.6827 99.5463 84.2539 99.7777 83.5325C99.9546 82.9881 100.186 82.2735 100.458 81.45C102.16 76.5976 105.637 67.9408 109.047 67.444C114.144 66.7362 117.813 70.5474 115.744 76.6656Z" fill="black"/>
<path d="M133.819 70.2615C133.275 72.065 131.778 74.4742 127.592 75.706L126.503 76.0327L125.394 75.8353C116.853 74.3041 113.709 69.7103 113.144 68.8187L112 66.9132C113.627 66.675 115.669 66.4299 117.67 66.3347C121.489 66.1167 125.318 66.1167 129.137 66.3347C130.9 66.498 132.622 66.7906 133.996 67.0561C134.186 68.1239 134.126 69.2211 133.819 70.2615Z" fill="#F35507"/>
<path opacity="0.4" d="M133.819 70.2615C133.275 72.065 131.778 74.4742 127.592 75.706L126.503 76.0327L125.394 75.8353C116.853 74.3041 113.709 69.7103 113.144 68.8187L112 66.9132C113.627 66.675 115.669 66.4299 117.67 66.3347C121.489 66.1167 125.318 66.1167 129.137 66.3347C130.9 66.498 132.622 66.7906 133.996 67.0561C134.186 68.1239 134.126 69.2211 133.819 70.2615Z" fill="black"/>
<path d="M126.585 71.1463C119.739 69.9144 117.595 66.3823 117.595 66.3823C120.092 63.9187 119.133 57.1879 118.275 53.4924L121.345 56.0377L125.523 59.5086C125.399 60.0651 125.311 60.6288 125.258 61.1964C125.033 63.4627 125.619 65.5248 128.953 66.3143C128.967 66.2938 131.73 69.615 126.585 71.1463Z" fill="#B97964"/>
<path d="M125.537 59.4882C125.413 60.0446 125.324 60.6084 125.272 61.176C123.713 60.8629 121.63 59.2023 121.413 57.6098C121.336 57.0826 121.318 56.5485 121.358 56.0173L125.537 59.4882Z" fill="#A76755"/>
<path d="M128.375 40.5821C130.866 41.705 132.248 48.708 129.056 50.2189C125.864 51.7297 123.666 38.4519 128.375 40.5821Z" fill="#263238"/>
<path d="M117.057 48.1568C118.126 53.0637 118.5 55.9833 121.399 58.2223C122.334 58.9588 123.452 59.4259 124.633 59.5733C125.814 59.7207 127.013 59.5428 128.1 59.0587C129.187 58.5747 130.121 57.803 130.802 56.8268C131.482 55.8506 131.884 54.7071 131.962 53.5196C132.343 48.953 130.533 41.6982 125.367 40.3099C124.257 39.9791 123.08 39.946 121.954 40.214C120.827 40.482 119.791 41.0416 118.949 41.8366C118.107 42.6316 117.489 43.6341 117.157 44.7435C116.825 45.8528 116.791 47.03 117.057 48.1568Z" fill="#B97964"/>
<path d="M111.334 43.2907C108.945 44.3456 110.299 47.6123 111.926 49.688C114.179 52.5736 116.561 53.9212 118.18 52.5941C119.637 51.8659 120.596 47.5715 119.33 44.9241C121.569 43.4473 126.218 45.2712 127.667 42.8824C129.117 40.4936 130.151 40.691 132.704 42.2699C135.256 43.8488 137.297 37.608 130.662 36.4443C134.337 38.098 133.493 41.3171 130.805 38.0164C128.906 35.6888 124.353 33.1163 121.188 36.5872C118.854 39.1189 110.653 35.2056 111.334 43.2907Z" fill="#263238"/>
<path d="M115.894 53.2746C116.69 54.2321 117.79 54.8879 119.011 55.1326C120.555 55.3912 120.902 53.962 120.12 52.5736C119.439 51.3282 117.751 49.6881 116.37 50.0556C114.988 50.4231 114.893 52.07 115.894 53.2746Z" fill="#B97964"/>
<path d="M124.768 48.6468C124.829 49.0483 125.095 49.3274 125.36 49.3274C125.626 49.3274 125.789 48.9462 125.721 48.5447C125.653 48.1432 125.401 47.8641 125.136 47.8641C124.87 47.8641 124.707 48.2384 124.768 48.6468Z" fill="#263238"/>
<path d="M129.308 48.1023C129.369 48.5039 129.634 48.7829 129.9 48.7829C130.165 48.7829 130.328 48.395 130.267 47.9934C130.206 47.5919 129.941 47.3129 129.675 47.3129C129.41 47.3129 129.308 47.7008 129.308 48.1023Z" fill="#263238"/>
<path d="M127.946 48.4766C128.621 49.6519 129.45 50.7321 130.41 51.6889C130.159 51.9185 129.861 52.09 129.536 52.1911C129.211 52.2923 128.868 52.3207 128.532 52.2742L127.946 48.4766Z" fill="#A24E3F"/>
<path d="M127.014 53.5537C126.542 53.5594 126.075 53.4701 125.639 53.2912C125.203 53.1123 124.807 52.8474 124.475 52.5124C124.453 52.4896 124.441 52.4591 124.441 52.4273C124.441 52.3956 124.453 52.3651 124.475 52.3423C124.498 52.3202 124.529 52.3079 124.56 52.3079C124.592 52.3079 124.623 52.3202 124.645 52.3423C125.013 52.6984 125.455 52.9672 125.941 53.1287C126.426 53.2901 126.942 53.34 127.449 53.2746C127.465 53.2727 127.481 53.2741 127.496 53.2786C127.511 53.2832 127.526 53.2908 127.538 53.301C127.55 53.3112 127.56 53.3238 127.567 53.338C127.574 53.3522 127.578 53.3677 127.579 53.3835C127.582 53.3989 127.581 53.4147 127.578 53.4299C127.574 53.445 127.567 53.4592 127.557 53.4715C127.547 53.4838 127.535 53.4938 127.521 53.5009C127.507 53.5081 127.492 53.5121 127.477 53.5128C127.323 53.5359 127.169 53.5495 127.014 53.5537Z" fill="#263238"/>
<path d="M123.128 47.3401C123.09 47.3502 123.05 47.3502 123.012 47.3401C122.957 47.3086 122.916 47.2569 122.898 47.196C122.881 47.1351 122.887 47.0696 122.917 47.0134C123.096 46.6825 123.352 46.3997 123.664 46.1888C123.975 45.9779 124.333 45.8453 124.707 45.802C124.764 45.8116 124.816 45.8412 124.853 45.8854C124.89 45.9296 124.911 45.9857 124.911 46.0436C124.911 46.1015 124.89 46.1576 124.853 46.2018C124.816 46.2461 124.764 46.2756 124.707 46.2852C124.413 46.3188 124.133 46.4238 123.889 46.5911C123.646 46.7584 123.448 46.9829 123.312 47.2448C123.29 47.2731 123.262 47.2964 123.23 47.3128C123.198 47.3293 123.163 47.3386 123.128 47.3401Z" fill="#263238"/>
<path d="M131.057 46.2784C131.018 46.2774 130.979 46.267 130.945 46.248C130.91 46.2291 130.881 46.2021 130.859 46.1695C130.695 45.9114 130.473 45.6948 130.211 45.5366C129.949 45.3785 129.654 45.2829 129.349 45.2576C129.285 45.2576 129.225 45.2325 129.18 45.1878C129.135 45.1431 129.11 45.0825 129.11 45.0194C129.11 44.9562 129.135 44.8956 129.18 44.8509C129.225 44.8063 129.285 44.7812 129.349 44.7812C129.733 44.8031 130.106 44.9165 130.437 45.1118C130.769 45.3071 131.049 45.5787 131.254 45.9041C131.272 45.93 131.285 45.9591 131.292 45.99C131.298 46.0208 131.299 46.0526 131.293 46.0836C131.288 46.1147 131.276 46.1443 131.258 46.1707C131.241 46.1971 131.219 46.2198 131.193 46.2376C131.153 46.2643 131.105 46.2786 131.057 46.2784Z" fill="#263238"/>
<g opacity="0.9">
<path opacity="0.9" d="M202.087 125.04C202.666 123.59 203.654 122.341 204.932 121.444C206.209 120.547 207.721 120.042 209.281 119.99H269.279C272.873 119.99 275.302 122.903 274.724 126.503L255.743 239.824C255.408 241.616 254.473 243.241 253.091 244.43C251.709 245.619 249.963 246.301 248.141 246.365H97.6952C96.876 246.396 96.0605 246.24 95.3113 245.907C94.562 245.574 93.8991 245.074 93.3733 244.445C92.8475 243.816 92.4729 243.075 92.2783 242.279C92.0837 241.482 92.0742 240.652 92.2507 239.851L108.387 143.381C108.728 141.595 109.666 139.977 111.048 138.794C112.429 137.611 114.171 136.932 115.989 136.868H185.284C192.375 136.841 199.338 131.948 202.087 125.04Z" fill="#F35507"/>
</g>
<path opacity="0.5" d="M202.087 125.04C202.666 123.59 203.654 122.341 204.932 121.444C206.209 120.547 207.721 120.042 209.281 119.99H269.279C272.873 119.99 275.302 122.903 274.724 126.503L255.743 239.824C255.408 241.616 254.473 243.241 253.091 244.43C251.709 245.619 249.963 246.301 248.141 246.365H97.6952C96.876 246.396 96.0605 246.24 95.3113 245.907C94.562 245.574 93.8991 245.074 93.3733 244.445C92.8475 243.816 92.4729 243.075 92.2783 242.279C92.0837 241.482 92.0742 240.652 92.2507 239.851L108.387 143.381C108.728 141.595 109.666 139.977 111.048 138.794C112.429 137.611 114.171 136.932 115.989 136.868H185.284C192.375 136.841 199.338 131.948 202.087 125.04Z" fill="white"/>
<path opacity="0.9" d="M178.206 24.4255L132.806 182.18L236.66 212.064L282.054 54.3091L178.206 24.4255Z" fill="#F35507"/>
<path opacity="0.7" d="M178.206 24.4255L132.806 182.18L236.66 212.064L282.054 54.3091L178.206 24.4255Z" fill="white"/>
<g style="mix-blend-mode:multiply" opacity="0.9">
<path d="M176.192 31.4149L132.806 182.18L233.128 211.05L273.791 55.0101L176.192 31.4149Z" fill="#F35507"/>
</g>
<path opacity="0.6" d="M176.192 31.4149L132.806 182.18L233.128 211.05L273.791 55.0101L176.192 31.4149Z" fill="#F35507"/>
<g opacity="0.9">
<g style="mix-blend-mode:multiply" opacity="0.9">
<path d="M176.192 31.4149L132.806 182.18L233.128 211.05L273.791 55.0101L176.192 31.4149Z" fill="white"/>
</g>
<path opacity="0.6" d="M176.192 31.4149L132.806 182.18L233.128 211.05L273.791 55.0101L176.192 31.4149Z" fill="white"/>
</g>
<path d="M212.965 74.1262C219.772 66.3427 218.98 54.5148 211.196 47.708C203.413 40.9012 191.585 41.693 184.778 49.4766C177.971 57.2602 178.763 69.088 186.547 75.8948C194.33 82.7016 206.158 81.9098 212.965 74.1262Z" fill="#F35507"/>
<path d="M194.764 76.0395C191.946 75.2251 189.432 73.5934 187.541 71.3506C185.649 69.1078 184.466 66.3546 184.139 63.439C183.812 60.5235 184.357 57.5765 185.705 54.9706C187.052 52.3647 189.142 50.2169 191.711 48.7987C194.279 47.3804 197.21 46.7555 200.133 47.0028C203.057 47.2501 205.841 48.3585 208.135 50.188C210.428 52.0175 212.128 54.4859 213.018 57.2812C213.909 60.0765 213.951 63.0731 213.14 65.8923C212.601 67.7661 211.698 69.5152 210.482 71.0396C209.267 72.5641 207.763 73.8339 206.056 74.7764C204.349 75.7189 202.474 76.3156 200.536 76.5323C198.598 76.749 196.637 76.5816 194.764 76.0395Z" fill="white"/>
<path d="M206.092 91.6626L173.037 82.153L170.9 89.5829L203.955 99.0925L206.092 91.6626Z" fill="#F35507"/>
<path d="M173.275 149.916L155.054 144.673L146.745 173.556L164.966 178.798L173.275 149.916Z" fill="#F35507"/>
<path d="M237.752 168.468L219.53 163.226L211.221 192.108L229.443 197.351L237.752 168.468Z" fill="#F35507"/>
<path d="M205.51 159.195L187.289 153.953L178.979 182.835L197.201 188.078L205.51 159.195Z" fill="#F35507"/>
<path d="M232.802 99.3409L210.44 92.9077L208.303 100.338L230.664 106.771L232.802 99.3409Z" fill="#F35507"/>
<path d="M250.219 121.833L168.393 98.2919L167.512 101.353L249.339 124.894L250.219 121.833Z" fill="white"/>
<path d="M207.21 116.501L166.522 104.796L165.641 107.856L206.329 119.562L207.21 116.501Z" fill="white"/>
<path d="M241.384 126.333L214.17 118.504L213.289 121.565L240.504 129.394L241.384 126.333Z" fill="white"/>
<path d="M230.061 130.112L164.65 111.294L163.77 114.355L229.18 133.173L230.061 130.112Z" fill="white"/>
<path d="M237.14 140.108L162.032 118.202L161.14 121.26L236.248 143.166L237.14 140.108Z" fill="white"/>
<path d="M169.591 126.805L160.905 124.306L160.025 127.367L168.71 129.865L169.591 126.805Z" fill="white"/>
<path d="M214.94 139.853L176.561 128.811L175.68 131.872L214.059 142.914L214.94 139.853Z" fill="white"/>
<path d="M240.864 154.354L159.037 130.813L158.157 133.874L239.983 157.415L240.864 154.354Z" fill="white"/>
<path d="M166.119 29.9449L126.204 189.197L231.011 215.474L270.919 56.2215L166.119 29.9449Z" fill="#F35507"/>
<path opacity="0.8" d="M166.119 29.9449L126.204 189.197L231.011 215.474L270.919 56.2215L166.119 29.9449Z" fill="white"/>
<path d="M196.206 83.3864C205.517 78.8893 209.419 67.6958 204.922 58.3848C200.425 49.0739 189.231 45.1715 179.92 49.6686C170.61 54.1657 166.707 65.3592 171.204 74.6702C175.701 83.9811 186.895 87.8835 196.206 83.3864Z" fill="#F35507"/>
<path d="M202.644 69.2126C204.119 61.1526 198.781 53.4229 190.721 51.948C182.661 50.4731 174.931 55.8114 173.456 63.8714C171.981 71.9314 177.32 79.661 185.38 81.136C193.44 82.6109 201.169 77.2726 202.644 69.2126Z" fill="white"/>
<path d="M196.316 96.1598L162.952 87.7979L161.072 95.2972L194.436 103.659L196.316 96.1598Z" fill="#F35507"/>
<path d="M165.529 155.515L147.138 150.906L139.831 180.058L158.223 184.667L165.529 155.515Z" fill="#F35507"/>
<path d="M230.601 171.826L212.209 167.217L204.903 196.369L223.294 200.978L230.601 171.826Z" fill="#F35507"/>
<path d="M198.068 163.67L179.676 159.061L172.37 188.213L190.761 192.823L198.068 163.67Z" fill="#F35507"/>
<path d="M223.267 102.912L200.696 97.255L198.817 104.754L221.387 110.411L223.267 102.912Z" fill="#F35507"/>
<path d="M241.454 124.785L158.863 104.086L158.089 107.175L240.68 127.875L241.454 124.785Z" fill="white"/>
<path d="M198.289 120.941L157.222 110.648L156.447 113.738L197.515 124.03L198.289 120.941Z" fill="white"/>
<path d="M232.781 129.583L205.312 122.699L204.538 125.789L232.007 132.673L232.781 129.583Z" fill="white"/>
<path d="M221.595 133.76L155.573 117.213L154.799 120.302L220.82 136.849L221.595 133.76Z" fill="white"/>
<path d="M229.824 142.803L153.934 123.783L153.159 126.873L229.05 145.893L229.824 142.803Z" fill="white"/>
<path d="M161.05 132.551L152.283 130.354L151.509 133.443L160.276 135.641L161.05 132.551Z" fill="white"/>
<path d="M206.823 144.015L168.086 134.306L167.312 137.396L206.049 147.104L206.823 144.015Z" fill="white"/>
<path d="M233.23 157.611L150.639 136.912L149.864 140.001L232.455 160.701L233.23 157.611Z" fill="white"/>
<path opacity="0.5" d="M162.015 148.697C162.145 146.145 164.377 144.341 167.412 144.341H227.418C231.011 144.341 234.475 146.852 235.156 149.956L253.17 240.716C253.851 243.819 251.482 246.337 247.889 246.337H97.4229C93.8227 246.337 90.3587 243.819 89.6781 240.716L74.8622 164.499C74.1816 161.396 76.55 158.878 80.1502 158.878H149.418C156.53 158.878 161.73 154.658 162.015 148.697Z" fill="#F35507"/>
</svg>
