<svg width="40" height="42" viewBox="0 0 40 42" fill="none" xmlns="http://www.w3.org/2000/svg">
<path d="M40 22C40 33.0457 25.5 37.5 20 42C12.5 35.5 0 33.0457 0 22C0 10.9543 8.9543 2 20 2C31.0457 2 40 10.9543 40 22Z" fill="#F35507"/>
<mask id="mask0_823_2034" style="mask-type:alpha" maskUnits="userSpaceOnUse" x="0" y="0" width="40" height="40">
<circle cx="20" cy="20" r="20" fill="black"/>
</mask>
<g mask="url(#mask0_823_2034)">
</g>
<g clip-path="url(#clip0_823_2034)">
<path d="M30 16.5007V29H10V16.5007H16.25V15.2507C16.25 15.075 16.2826 14.9122 16.3477 14.7625C16.4128 14.6128 16.5007 14.4826 16.6113 14.3719C16.722 14.2612 16.8555 14.1701 17.0117 14.0985C17.168 14.0269 17.3307 13.9943 17.5 14.0008H22.5C22.6758 14.0008 22.8385 14.0334 22.9883 14.0985C23.138 14.1636 23.2682 14.2515 23.3789 14.3621C23.4896 14.4728 23.5807 14.6062 23.6523 14.7625C23.724 14.9187 23.7565 15.0815 23.75 15.2507V16.5007H30ZM17.5 16.5007H22.5V15.2507H17.5V16.5007ZM11.25 17.7506V19.5572L17.5 22.6722V21.5004H22.5V22.6722L28.75 19.5572V17.7506H11.25ZM18.75 22.7503V24.0003H21.25V22.7503H18.75ZM28.75 27.7501V20.9438L22.5 24.0784V25.2502H17.5V24.0784L11.25 20.9438V27.7501H28.75Z" fill="white" stroke="white"/>
</g>
<defs>
<clipPath id="clip0_823_2034">
<rect width="20" height="20" fill="white" transform="translate(10 12)"/>
</clipPath>
</defs>
</svg>
