<svg width="9" height="8" viewBox="0 0 9 8" fill="none" xmlns="http://www.w3.org/2000/svg">
<path d="M6.66176 3.19747C6.39738 3.25497 6.16926 3.40247 6.06238 3.65684C5.99801 3.81122 5.90801 4.20997 5.66113 4.10684C5.54301 4.05809 5.54488 3.88872 5.55863 3.78309C5.58801 3.56622 5.68551 3.36809 5.75238 3.16184C5.82113 2.94809 5.88051 2.73309 5.92301 2.51184C6.06551 1.77934 6.02613 0.93559 5.50801 0.349965C5.42051 0.249965 5.19988 0.0187153 5.05426 0.0137153C4.96426 0.0112153 5.05301 0.117465 5.07801 0.15309C5.12863 0.226215 5.17113 0.30559 5.20363 0.388715C5.58676 1.36622 4.64238 2.11059 4.02176 2.68997C3.72426 2.96809 3.48676 3.26309 3.27301 3.60747C3.25176 3.64059 3.20488 3.75184 3.14426 3.72872C3.07238 3.70122 3.06488 3.53684 3.04238 3.47559C2.99988 3.35809 2.93426 3.22997 2.84988 3.13809C2.68676 2.95934 2.45863 2.83872 2.21176 2.85497C2.20238 2.85559 2.17551 2.85997 2.14238 2.86747C2.09051 2.87872 1.95176 2.89684 1.98926 2.98059C2.00863 3.02372 2.06551 3.01997 2.10613 3.03184C2.62738 3.19184 2.61551 3.73809 2.53113 4.17684C2.37863 4.97559 1.95613 5.73059 2.25613 6.55184C2.60988 7.51997 3.71738 8.12434 4.72238 7.95809C4.99676 7.91309 5.31301 7.82434 5.55926 7.69184C5.82113 7.55059 6.10801 7.35747 6.31238 7.13997C6.57551 6.86059 6.74301 6.50247 6.79238 6.12309C6.85051 5.68434 6.71051 5.27059 6.58301 4.85622C6.42926 4.35622 6.25238 3.53997 6.89113 3.29559C6.92238 3.28309 6.98488 3.27372 7.00676 3.24059C7.08801 3.11934 6.69801 3.18997 6.66176 3.19747Z" fill="#ED6C30"/>
<path d="M4.75811 6.62943C4.89061 6.74068 5.07623 6.6863 5.20123 6.5913C5.26811 6.54068 5.32561 6.47568 5.36311 6.40005C5.37873 6.36755 5.39686 6.3263 5.39686 6.28943C5.39686 6.24005 5.36748 6.1913 5.37998 6.14068C5.48498 6.12005 5.61498 6.42193 5.62811 6.49193C5.73311 7.04381 5.21311 7.49881 4.71123 7.58693C3.86436 7.73505 3.37748 6.99318 3.47498 6.33443C3.53561 5.92443 3.81061 5.64255 4.09061 5.3613C4.32248 5.12818 4.53748 4.92818 4.61248 4.62505C4.62561 4.5713 4.62248 4.4888 4.60686 4.43568C4.59373 4.39005 4.56873 4.34818 4.56748 4.2988C4.56373 4.19505 4.66436 4.33068 4.68748 4.35693C4.96623 4.6713 5.04561 5.13568 4.97123 5.54193C4.92311 5.80443 4.73561 5.99193 4.66998 6.24318C4.63186 6.3863 4.63561 6.52568 4.75811 6.62943Z" fill="#FCC21B"/>
</svg>
