<?xml version="1.0" encoding="UTF-8"?>
<svg xmlns="http://www.w3.org/2000/svg" xmlns:xlink="http://www.w3.org/1999/xlink" width="158px" height="150px" viewBox="0 0 35 34" version="1.1">
<g id="surface1">
<path style="fill:none;stroke-width:3.3;stroke-linecap:butt;stroke-linejoin:miter;stroke:rgb(65.490196%,66.27451%,67.45098%);stroke-opacity:1;stroke-miterlimit:10;" d="M 53.586464 59.992423 L 17.221953 59.992423 C 13.793435 59.992423 10.968083 57.191215 10.968083 53.756214 L 10.968083 29.077413 C 10.968083 27.26993 11.761721 25.540692 13.150588 24.359177 L 31.348717 8.788215 C 33.682013 6.792941 37.126404 6.792941 39.459701 8.788215 L 57.657829 24.359177 C 59.03876 25.540692 59.840335 27.26993 59.840335 29.077413 L 59.840335 53.756214 C 59.840335 57.191215 57.030855 59.992423 53.586464 59.992423 Z M 53.586464 59.992423 " transform="matrix(0.492195,0,0,0.499227,0,0.136127)"/>
<path style="fill:none;stroke-width:3.3;stroke-linecap:butt;stroke-linejoin:miter;stroke:rgb(65.490196%,66.27451%,67.45098%);stroke-opacity:1;stroke-miterlimit:10;" d="M 25.967848 59.992423 L 25.967848 42.762645 C 25.967848 40.806494 27.570998 39.2181 29.523348 39.2181 L 41.277133 39.2181 C 43.229483 39.2181 44.832633 40.806494 44.832633 42.762645 L 44.832633 59.992423 " transform="matrix(0.492195,0,0,0.499227,0,0.136127)"/>
</g>
</svg>
