<svg width="25" height="24" viewBox="0 0 25 24" fill="none" xmlns="http://www.w3.org/2000/svg">
<g clip-path="url(#clip0_727_11427)">
<path d="M20.8666 5.33331H14.8666V22H22.1999V6.66665C22.1999 6.31302 22.0594 5.97389 21.8094 5.72384C21.5593 5.47379 21.2202 5.33331 20.8666 5.33331ZM17.5332 16.6666H16.1999V15.3333H17.5332V16.6666ZM17.5332 13.3333H16.1999V12H17.5332V13.3333ZM17.5332 9.99998H16.1999V8.66665H17.5332V9.99998ZM20.1999 16.6666H18.8666V15.3333H20.1999V16.6666ZM20.1999 13.3333H18.8666V12H20.1999V13.3333ZM20.1999 9.99998H18.8666V8.66665H20.1999V9.99998Z" fill="#1B75BB"/>
<path d="M12.12 2H4.28003C3.90519 2 3.54571 2.1489 3.28065 2.41396C3.0156 2.67901 2.8667 3.03849 2.8667 3.41333V22H6.20003V20H10.2V22H13.5334V3.41333C13.5334 3.03849 13.3845 2.67901 13.1194 2.41396C12.8544 2.1489 12.4949 2 12.12 2ZM6.20003 16.6667H4.8667V15.3333H6.20003V16.6667ZM6.20003 13.3333H4.8667V12H6.20003V13.3333ZM6.20003 10H4.8667V8.66667H6.20003V10ZM6.20003 6.66667H4.8667V5.33333H6.20003V6.66667ZM8.8667 16.6667H7.53337V15.3333H8.8667V16.6667ZM8.8667 13.3333H7.53337V12H8.8667V13.3333ZM8.8667 10H7.53337V8.66667H8.8667V10ZM8.8667 6.66667H7.53337V5.33333H8.8667V6.66667ZM11.5334 16.6667H10.2V15.3333H11.5334V16.6667ZM11.5334 13.3333H10.2V12H11.5334V13.3333ZM11.5334 10H10.2V8.66667H11.5334V10ZM11.5334 6.66667H10.2V5.33333H11.5334V6.66667Z" fill="#1B75BB"/>
</g>
<defs>
<clipPath id="clip0_727_11427">
<rect width="24" height="24" fill="white" transform="translate(0.199951)"/>
</clipPath>
</defs>
</svg>
