<svg width="40" height="42" viewBox="0 0 40 42" fill="none" xmlns="http://www.w3.org/2000/svg">
<path d="M40 22C40 33.0457 25.5 37.5 20 42C12.5 35.5 0 33.0457 0 22C0 10.9543 8.9543 2 20 2C31.0457 2 40 10.9543 40 22Z" fill="#F35507"/>
<mask id="mask0_820_907" style="mask-type:alpha" maskUnits="userSpaceOnUse" x="0" y="0" width="40" height="40">
<circle cx="20" cy="20" r="20" fill="black"/>
</mask>
<g mask="url(#mask0_820_907)">
</g>
<g clip-path="url(#clip0_820_907)">
<path d="M14.1662 14.9175H25.8328M12.917 16.1658V27.8333M27.082 16.1667V27.835M14.1662 29.0842H25.8328M14.1653 13.6667H11.667V16.165H14.1653V13.6667ZM14.1653 27.8333H11.667V30.3317H14.1653V27.8333ZM28.3312 13.6683H25.8337V16.1667H28.332L28.3312 13.6683ZM28.3312 27.835H25.8337V30.3333H28.332L28.3312 27.835Z" stroke="white" stroke-width="2" stroke-miterlimit="1.5" stroke-linecap="round" stroke-linejoin="round"/>
<path d="M19.9991 22.0008L22.4974 21.1683L16.6641 18.6683L19.1641 24.5017L19.9991 22.0008ZM19.9991 22.0008L22.4974 24.5017" stroke="white" stroke-miterlimit="1.5" stroke-linecap="round" stroke-linejoin="round"/>
</g>
<defs>
<clipPath id="clip0_820_907">
<rect width="20" height="20" fill="white" transform="translate(10 12)"/>
</clipPath>
</defs>
</svg>
