<svg width="25" height="24" viewBox="0 0 25 24" fill="none" xmlns="http://www.w3.org/2000/svg">
<g clip-path="url(#clip0_727_11814)">
<path d="M20.8668 5.33337H15.5334V6.66671H20.8668V20.6667H15.5334V22H22.2001V6.66671C22.2001 6.31309 22.0596 5.97395 21.8096 5.7239C21.5595 5.47385 21.2204 5.33337 20.8668 5.33337Z" fill="#595959"/>
<path d="M13.4534 2H4.28003C3.90519 2 3.54571 2.1489 3.28065 2.41396C3.0156 2.67901 2.8667 3.03849 2.8667 3.41333V22H14.8667V3.41333C14.8667 3.03849 14.7178 2.67901 14.4527 2.41396C14.1877 2.1489 13.8282 2 13.4534 2ZM13.5334 20.6667H11.5334V18.6667H6.20003V20.6667H4.20003V3.41333C4.20003 3.40283 4.2021 3.39242 4.20612 3.38272C4.21014 3.37301 4.21604 3.36419 4.22346 3.35676C4.23089 3.34934 4.23971 3.34344 4.24942 3.33942C4.25912 3.3354 4.26953 3.33333 4.28003 3.33333H13.4534C13.4639 3.33333 13.4743 3.3354 13.484 3.33942C13.4937 3.34344 13.5025 3.34934 13.5099 3.35676C13.5174 3.36419 13.5233 3.37301 13.5273 3.38272C13.5313 3.39242 13.5334 3.40283 13.5334 3.41333V20.6667Z" fill="#595959"/>
<path d="M5.53345 5.33337H6.86678V6.66671H5.53345V5.33337Z" fill="#595959"/>
<path d="M8.20007 5.33337H9.53341V6.66671H8.20007V5.33337Z" fill="#595959"/>
<path d="M10.8667 5.33337H12.2V6.66671H10.8667V5.33337Z" fill="#595959"/>
<path d="M5.53345 8.66663H6.86678V9.99996H5.53345V8.66663Z" fill="#595959"/>
<path d="M8.20007 8.66663H9.53341V9.99996H8.20007V8.66663Z" fill="#595959"/>
<path d="M10.8667 8.66663H12.2V9.99996H10.8667V8.66663Z" fill="#595959"/>
<path d="M5.53345 12H6.86678V13.3333H5.53345V12Z" fill="#595959"/>
<path d="M8.20007 12H9.53341V13.3333H8.20007V12Z" fill="#595959"/>
<path d="M10.8667 12H12.2V13.3333H10.8667V12Z" fill="#595959"/>
<path d="M5.53345 15.3334H6.86678V16.6667H5.53345V15.3334Z" fill="#595959"/>
<path d="M8.20007 15.3334H9.53341V16.6667H8.20007V15.3334Z" fill="#595959"/>
<path d="M10.8667 15.3334H12.2V16.6667H10.8667V15.3334Z" fill="#595959"/>
<path d="M15.5334 8.66663H16.8668V9.99996H15.5334V8.66663Z" fill="#595959"/>
<path d="M18.2001 8.66663H19.5334V9.99996H18.2001V8.66663Z" fill="#595959"/>
<path d="M15.5334 12H16.8668V13.3333H15.5334V12Z" fill="#595959"/>
<path d="M18.2001 12H19.5334V13.3333H18.2001V12Z" fill="#595959"/>
<path d="M15.5334 15.3334H16.8668V16.6667H15.5334V15.3334Z" fill="#595959"/>
<path d="M18.2001 15.3334H19.5334V16.6667H18.2001V15.3334Z" fill="#595959"/>
</g>
<defs>
<clipPath id="clip0_727_11814">
<rect width="24" height="24" fill="white" transform="translate(0.200073)"/>
</clipPath>
</defs>
</svg>
