<svg width="18" height="18" viewBox="0 0 18 18" fill="none" xmlns="http://www.w3.org/2000/svg">
<path fill-rule="evenodd" clip-rule="evenodd" d="M11.2073 6.10888C11.2968 6.08571 11.3918 6.0986 11.472 6.14479C11.5522 6.19097 11.611 6.26678 11.636 6.35594C11.7534 6.77672 11.772 7.21898 11.6903 7.64814C11.6086 8.0773 11.4288 8.4817 11.1651 8.82971C10.9013 9.17772 10.5607 9.4599 10.1699 9.65417C9.77916 9.84844 9.34879 9.94953 8.91251 9.94953C8.47623 9.94953 8.04586 9.84844 7.65509 9.65417C7.26431 9.4599 6.92372 9.17772 6.65997 8.82971C6.39622 8.4817 6.21646 8.0773 6.13475 7.64814C6.05304 7.21898 6.07161 6.77672 6.18899 6.35594C6.21398 6.26678 6.27287 6.19097 6.35302 6.14479C6.43318 6.0986 6.52822 6.08571 6.61776 6.10888C7.93339 6.44868 9.89163 6.44868 11.2073 6.10888ZM6.8058 6.87768C6.77201 7.17493 6.80132 7.47597 6.8918 7.76109C6.98228 8.04621 7.13189 8.30897 7.33084 8.53215C7.52979 8.75534 7.77358 8.93392 8.04624 9.05619C8.3189 9.17846 8.61429 9.24166 8.91304 9.24166C9.21179 9.24166 9.50718 9.17846 9.77984 9.05619C10.0525 8.93392 10.2963 8.75534 10.4952 8.53215C10.6942 8.30897 10.8438 8.04621 10.9343 7.76109C11.0248 7.47597 11.0541 7.17493 11.0203 6.87768C9.74176 7.13608 8.08397 7.13608 6.8058 6.87768Z" fill="#F35507"/>
<path fill-rule="evenodd" clip-rule="evenodd" d="M7.14521 10.1255C5.02896 10.4954 2.55005 11.4398 2.55005 12.7838V14.9075H15.2751V12.7838C15.2751 11.4398 12.7962 10.4954 10.68 10.1255V11.7219H7.14521V10.1255ZM5.02437 14.9075V11.7219H5.73132V14.9075H5.02437ZM12.4473 11.7219V14.9075H13.1543V11.7219H12.4473ZM9.26606 2.18542V3.75064C9.26606 3.84452 9.22882 3.93455 9.16253 4.00093C9.09624 4.06731 9.00633 4.1046 8.91258 4.1046C8.81884 4.1046 8.72893 4.06731 8.66264 4.00093C8.59635 3.93455 8.55911 3.84452 8.55911 3.75064V2.16489C8.19415 2.184 7.83531 2.26665 7.49869 2.40912V4.45856C7.49869 4.55244 7.46145 4.64247 7.39516 4.70885C7.32887 4.77524 7.23896 4.81253 7.14521 4.81253C7.05146 4.81253 6.96156 4.77524 6.89527 4.70885C6.82898 4.64247 6.79174 4.55244 6.79174 4.45856V2.8498C6.30748 3.26677 6.02823 3.80763 5.93951 4.28158L5.93103 4.33114L5.92396 4.33822C5.8925 4.56086 5.90982 4.74421 5.95506 4.87022C5.98404 4.95791 5.97765 5.05346 5.93725 5.13648C5.89685 5.21951 5.82564 5.28344 5.73883 5.31462C5.65201 5.3458 5.55646 5.34177 5.47257 5.30338C5.38868 5.26499 5.3231 5.19529 5.28983 5.10915L5.27286 5.05959C3.22024 7.74334 14.6162 7.74192 12.5488 5.05499L12.5318 5.10667C12.4992 5.19312 12.4342 5.26338 12.3505 5.30244C12.2669 5.3415 12.1713 5.34627 12.0843 5.31572C11.9972 5.28517 11.9255 5.22173 11.8845 5.13895C11.8434 5.05617 11.8364 4.96062 11.8648 4.8727C11.9157 4.72616 11.9305 4.54352 11.903 4.34176L11.8966 4.33716C11.8203 3.8586 11.5297 3.32942 11.0334 2.91246V4.45856C11.0334 4.55244 10.9962 4.64247 10.9299 4.70885C10.8636 4.77524 10.7737 4.81253 10.68 4.81253C10.5862 4.81253 10.4963 4.77524 10.43 4.70885C10.3637 4.64247 10.3265 4.55244 10.3265 4.45856V2.47C10.1884 2.40796 10.0464 2.35534 9.90125 2.31249C9.69355 2.2519 9.48104 2.20962 9.26606 2.18542Z" fill="#F35507"/>
</svg>
