<svg width="21" height="20" viewBox="0 0 21 20" fill="none" xmlns="http://www.w3.org/2000/svg">
<path d="M11.8125 14.5C11.8125 14.6492 11.7532 14.7923 11.6478 14.8977C11.5423 15.0032 11.3992 15.0625 11.25 15.0625C10.9019 15.0625 10.5681 14.9242 10.3219 14.6781C10.0758 14.4319 9.9375 14.0981 9.9375 13.75V10C9.9375 9.95027 9.91775 9.90258 9.88259 9.86742C9.84742 9.83225 9.79973 9.8125 9.75 9.8125C9.60082 9.8125 9.45775 9.75324 9.35226 9.64775C9.24677 9.54226 9.1875 9.39918 9.1875 9.25C9.1875 9.10082 9.24677 8.95774 9.35226 8.85225C9.45775 8.74676 9.60082 8.6875 9.75 8.6875C10.0981 8.6875 10.4319 8.82578 10.6781 9.07192C10.9242 9.31806 11.0625 9.6519 11.0625 10V13.75C11.0625 13.7997 11.0823 13.8474 11.1174 13.8826C11.1526 13.9177 11.2003 13.9375 11.25 13.9375C11.3992 13.9375 11.5423 13.9968 11.6478 14.1023C11.7532 14.2077 11.8125 14.3508 11.8125 14.5ZM10.125 6.8125C10.3104 6.8125 10.4917 6.75752 10.6459 6.6545C10.8 6.55149 10.9202 6.40507 10.9911 6.23377C11.0621 6.06246 11.0807 5.87396 11.0445 5.6921C11.0083 5.51025 10.919 5.3432 10.7879 5.21209C10.6568 5.08098 10.4898 4.99169 10.3079 4.95551C10.126 4.91934 9.93754 4.93791 9.76624 5.00886C9.59493 5.07982 9.44851 5.19998 9.3455 5.35415C9.24249 5.50832 9.1875 5.68958 9.1875 5.875C9.1875 6.12364 9.28628 6.3621 9.46209 6.53791C9.63791 6.71373 9.87636 6.8125 10.125 6.8125ZM20.0625 10C20.0625 11.8913 19.5017 13.7401 18.4509 15.3126C17.4002 16.8852 15.9067 18.1108 14.1594 18.8346C12.4121 19.5584 10.4894 19.7477 8.63445 19.3788C6.77951 19.0098 5.07564 18.099 3.7383 16.7617C2.40096 15.4244 1.49022 13.7205 1.12125 11.8656C0.752274 10.0106 0.941643 8.08791 1.66541 6.34059C2.38917 4.59327 3.61482 3.09981 5.18736 2.04907C6.75991 0.998331 8.60872 0.4375 10.5 0.4375C13.0352 0.440477 15.4658 1.44891 17.2584 3.24158C19.0511 5.03425 20.0595 7.46478 20.0625 10ZM18.9375 10C18.9375 8.33122 18.4427 6.69992 17.5155 5.31238C16.5884 3.92484 15.2706 2.84338 13.7289 2.20477C12.1871 1.56615 10.4906 1.39906 8.85393 1.72462C7.21722 2.05019 5.7138 2.85378 4.53379 4.03379C3.35379 5.21379 2.55019 6.71721 2.22463 8.35393C1.89907 9.99064 2.06616 11.6871 2.70477 13.2289C3.34338 14.7706 4.42484 16.0884 5.81238 17.0155C7.19992 17.9426 8.83122 18.4375 10.5 18.4375C12.737 18.435 14.8817 17.5453 16.4635 15.9635C18.0453 14.3817 18.935 12.237 18.9375 10Z" fill="#1B75BB"/>
</svg>
