<svg width="21" height="21" viewBox="0 0 21 21" fill="none" xmlns="http://www.w3.org/2000/svg">
<path d="M7.89924 3.78755V2.20941C7.89924 0.989814 8.8793 0 10.0869 0H13.2121C14.4197 0 15.3997 0.989814 15.3997 2.20941V3.78755H17.2748C18.1037 3.78755 18.8986 4.12009 19.4847 4.71201C20.0708 5.30393 20.4 6.10674 20.4 6.94385V14.519C20.4 15.3561 20.0708 16.1589 19.4847 16.7508C18.8986 17.3427 18.1037 17.6752 17.2748 17.6752H11.8007L10.5507 16.4127H17.2748C17.7721 16.4127 18.2491 16.2132 18.6007 15.8581C18.9524 15.5029 19.1499 15.0212 19.1499 14.519V10.7314C18.609 11.1412 17.951 11.3627 17.2748 11.3627H12.8996V11.9939C12.8996 12.1613 12.8337 12.3219 12.7165 12.4403C12.5993 12.5587 12.4403 12.6252 12.2745 12.6252H11.0244C10.8587 12.6252 10.6997 12.5587 10.5825 12.4403C10.4653 12.3219 10.3994 12.1613 10.3994 11.9939V11.3627H10.0794C9.92302 10.9171 9.71221 10.493 9.45184 10.1001H10.3994V9.46888C10.3994 9.30146 10.4653 9.1409 10.5825 9.02251C10.6997 8.90413 10.8587 8.83762 11.0244 8.83762H12.2745C12.4403 8.83762 12.5993 8.90413 12.7165 9.02251C12.8337 9.1409 12.8996 9.30146 12.8996 9.46888V10.1001H17.2748C17.7721 10.1001 18.2491 9.90062 18.6007 9.54547C18.9524 9.19031 19.1499 8.70862 19.1499 8.20636V6.94385C19.1499 6.44159 18.9524 5.9599 18.6007 5.60474C18.2491 5.24959 17.7721 5.05007 17.2748 5.05007H6.02412C5.52681 5.05007 5.04987 5.24959 4.69822 5.60474C4.34656 5.9599 4.14901 6.44159 4.14901 6.94385V7.60919C3.72271 7.65753 3.3033 7.75496 2.89893 7.89957V6.94385C2.89893 6.10674 3.22819 5.30393 3.81428 4.71201C4.40037 4.12009 5.19527 3.78755 6.02412 3.78755H7.89924ZM9.14932 2.20941V3.78755H14.1496V2.20941C14.1496 1.95828 14.0509 1.71743 13.875 1.53985C13.6992 1.36228 13.4607 1.26252 13.2121 1.26252H10.0869C9.83822 1.26252 9.59975 1.36228 9.42393 1.53985C9.2481 1.71743 9.14932 1.95828 9.14932 2.20941ZM4.77405 17.6752C5.75661 17.6752 6.66417 17.347 7.39421 16.7953L10.5819 20.0147C10.6399 20.0734 10.7089 20.12 10.7847 20.1517C10.8606 20.1835 10.9419 20.1999 11.024 20.2C11.1061 20.2001 11.1875 20.1838 11.2634 20.1521C11.3393 20.1204 11.4082 20.0739 11.4663 20.0153C11.5245 19.9567 11.5706 19.8871 11.602 19.8105C11.6335 19.7339 11.6498 19.6518 11.6498 19.5688C11.6499 19.4859 11.6338 19.4037 11.6024 19.3271C11.571 19.2504 11.525 19.1808 11.467 19.1221L8.27927 15.9027C8.86932 15.1057 9.17575 14.131 9.14896 13.1363C9.12216 12.1415 8.7637 11.1851 8.13162 10.4217C7.49954 9.65835 6.63085 9.13282 5.66619 8.9302C4.70154 8.72757 3.69741 8.85973 2.81639 9.30526C1.93537 9.75079 1.22903 10.4836 0.81176 11.3851C0.394487 12.2865 0.290704 13.3038 0.517214 14.2723C0.743724 15.2407 1.28727 16.1036 2.05983 16.7212C2.8324 17.3388 3.78875 17.675 4.77405 17.6752ZM4.77405 16.4127C3.94519 16.4127 3.15029 16.0802 2.5642 15.4883C1.97811 14.8963 1.64885 14.0935 1.64885 13.2564C1.64885 12.4193 1.97811 11.6165 2.5642 11.0246C3.15029 10.4327 3.94519 10.1001 4.77405 10.1001C5.6029 10.1001 6.39781 10.4327 6.98389 11.0246C7.56998 11.6165 7.89924 12.4193 7.89924 13.2564C7.89924 14.0935 7.56998 14.8963 6.98389 15.4883C6.39781 16.0802 5.6029 16.4127 4.77405 16.4127Z" fill="#595959"/>
</svg>
