<?xml version="1.0" encoding="UTF-8"?>
<svg xmlns="http://www.w3.org/2000/svg" xmlns:xlink="http://www.w3.org/1999/xlink" width="117px" height="150px" viewBox="0 0 28 35" version="1.1">
<g id="surface1">
<path style=" stroke:none;fill-rule:nonzero;fill:rgb(65.490196%,66.27451%,67.45098%);fill-opacity:1;" d="M 6.183594 30.886719 C 5.988281 30.886719 5.800781 30.847656 5.617188 30.769531 C 5.101562 30.550781 4.765625 30.050781 4.765625 29.496094 L 4.765625 6.730469 C 4.765625 5.285156 5.964844 4.109375 7.4375 4.109375 L 20.5625 4.109375 C 22.035156 4.109375 23.234375 5.285156 23.234375 6.730469 L 23.234375 29.496094 C 23.234375 30.050781 22.898438 30.546875 22.382812 30.769531 C 21.863281 30.992188 21.261719 30.890625 20.847656 30.515625 L 14.097656 24.34375 C 14.039062 24.292969 13.953125 24.292969 13.898438 24.34375 L 7.144531 30.515625 C 6.882812 30.761719 6.527344 30.890625 6.175781 30.890625 Z M 22 29.304688 Z M 14 22.652344 C 14.449219 22.652344 14.898438 22.8125 15.242188 23.132812 L 21.550781 28.898438 L 21.550781 6.730469 C 21.550781 6.195312 21.109375 5.765625 20.5625 5.765625 L 7.4375 5.765625 C 6.890625 5.765625 6.449219 6.203125 6.449219 6.730469 L 6.449219 28.894531 L 12.757812 23.128906 C 13.109375 22.808594 13.550781 22.648438 14 22.648438 Z M 14 22.652344 "/>
</g>
</svg>
