<svg width="21" height="21" viewBox="0 0 21 21" fill="none" xmlns="http://www.w3.org/2000/svg">
<path d="M9.64981 1.5H13.1498C13.3487 1.5 13.5395 1.57902 13.6801 1.71967C13.8208 1.86032 13.8998 2.05109 13.8998 2.25V4H8.89981V2.25C8.89981 2.05109 8.97883 1.86032 9.11948 1.71967C9.26014 1.57902 9.4509 1.5 9.64981 1.5ZM7.39981 2.25V4H5.64981C4.78786 4 3.96121 4.34241 3.35172 4.9519C2.74222 5.5614 2.39981 6.38805 2.39981 7.25V8.6C3.14981 8.216 3.99981 8 4.89981 8C6.75981 8 8.40481 8.923 9.39981 10.337V10C9.39981 9.73478 9.50517 9.48043 9.69271 9.29289C9.88024 9.10536 10.1346 9 10.3998 9H12.3998C12.665 9 12.9194 9.10536 13.1069 9.29289C13.2945 9.48043 13.3998 9.73478 13.3998 10V10.5H18.6498C19.1139 10.5 19.5591 10.3156 19.8873 9.98744C20.2154 9.65925 20.3998 9.21413 20.3998 8.75V7.25C20.3998 6.38805 20.0574 5.5614 19.4479 4.9519C18.8384 4.34241 18.0118 4 17.1498 4H15.3998V2.25C15.3998 1.65326 15.1628 1.08097 14.7408 0.65901C14.3188 0.237053 13.7466 0 13.1498 0H9.64981C9.05308 0 8.48078 0.237053 8.05882 0.65901C7.63687 1.08097 7.39981 1.65326 7.39981 2.25ZM17.1498 18H11.8748L9.82481 15.95C10.2791 15.037 10.4705 14.0156 10.3778 13H12.3998C12.665 13 12.9194 12.8946 13.1069 12.7071C13.2945 12.5196 13.3998 12.2652 13.3998 12H18.6498C19.2938 12 19.8948 11.813 20.3998 11.49V14.75C20.3998 15.612 20.0574 16.4386 19.4479 17.0481C18.8384 17.6576 18.0118 18 17.1498 18ZM4.89981 18C5.83411 18 6.74526 17.7092 7.50681 17.168L10.1198 19.78C10.1885 19.8537 10.2713 19.9128 10.3633 19.9538C10.4553 19.9948 10.5546 20.0168 10.6553 20.0186C10.756 20.0204 10.856 20.0018 10.9494 19.9641C11.0428 19.9264 11.1276 19.8703 11.1989 19.799C11.2701 19.7278 11.3262 19.643 11.3639 19.5496C11.4017 19.4562 11.4202 19.3562 11.4184 19.2555C11.4166 19.1548 11.3946 19.0555 11.3536 18.9635C11.3126 18.8715 11.2535 18.7887 11.1798 18.72L8.56781 16.107C9.15223 15.2848 9.44342 14.29 9.39464 13.2824C9.34586 12.2748 8.95994 11.3128 8.29883 10.5509C7.63772 9.78894 6.73977 9.27122 5.74912 9.08086C4.75847 8.89049 3.73259 9.0385 2.83615 9.50114C1.93972 9.96377 1.22473 10.7142 0.805963 11.6319C0.387197 12.5497 0.288943 13.5815 0.526973 14.5618C0.765003 15.5421 1.32551 16.414 2.11852 17.0375C2.91153 17.661 3.89104 18 4.89981 18ZM4.89981 16.5C4.10416 16.5 3.3411 16.1839 2.77849 15.6213C2.21588 15.0587 1.89981 14.2956 1.89981 13.5C1.89981 12.7044 2.21588 11.9413 2.77849 11.3787C3.3411 10.8161 4.10416 10.5 4.89981 10.5C5.69546 10.5 6.45853 10.8161 7.02113 11.3787C7.58374 11.9413 7.89981 12.7044 7.89981 13.5C7.89981 14.2956 7.58374 15.0587 7.02113 15.6213C6.45853 16.1839 5.69546 16.5 4.89981 16.5Z" fill="#1B75BB"/>
</svg>
