<svg width="24" height="24" viewBox="0 0 24 24" fill="none" xmlns="http://www.w3.org/2000/svg">
<path d="M8.71464 0.757194C6.39606 1.56153 4.39652 3.08819 3.00972 5.11293C1.62292 7.13766 0.921957 9.55376 1.0098 12.0063C1.09763 14.4589 1.96964 16.8186 3.49773 18.739C5.02582 20.6593 7.12946 22.039 9.49964 22.6754C11.4212 23.1713 13.4344 23.193 15.3663 22.7389C17.1163 22.3458 18.7343 21.5049 20.0617 20.2987C21.4433 19.0049 22.4461 17.359 22.9624 15.538C23.5235 13.5576 23.6234 11.4751 23.2543 9.45016H12.4638V13.9263H18.7129C18.588 14.6402 18.3204 15.3215 17.926 15.9296C17.5316 16.5377 17.0187 17.0599 16.4178 17.4651C15.6547 17.9699 14.7945 18.3095 13.8923 18.4622C12.9876 18.6304 12.0596 18.6304 11.1548 18.4622C10.2378 18.2726 9.37037 17.8941 8.60768 17.3509C7.38241 16.4836 6.4624 15.2514 5.97894 13.8302C5.4873 12.3824 5.4873 10.8128 5.97894 9.36495C6.32308 8.35011 6.89199 7.4261 7.6432 6.66188C8.50288 5.77128 9.59125 5.13467 10.7889 4.82191C11.9866 4.50914 13.2472 4.5323 14.4326 4.88885C15.3586 5.1731 16.2054 5.66974 16.9054 6.33918C17.61 5.63819 18.3135 4.93538 19.0157 4.23075C19.3783 3.85185 19.7735 3.49108 20.1306 3.10312C19.062 2.10869 17.8077 1.33489 16.4395 0.826085C13.948 -0.0785824 11.2219 -0.102894 8.71464 0.757194Z" fill="white"/>
<path d="M8.71494 0.757586C11.222 -0.103086 13.9481 -0.0794141 16.4398 0.824664C17.8082 1.33693 19.062 2.11445 20.1291 3.11257C19.7665 3.50054 19.384 3.86312 19.0142 4.24021C18.3107 4.94242 17.6079 5.64221 16.9057 6.33958C16.2057 5.67013 15.3589 5.17349 14.4329 4.88924C13.2479 4.53144 11.9873 4.50694 10.7893 4.81843C9.59135 5.12992 8.50231 5.76535 7.64169 6.65503C6.89048 7.41924 6.32157 8.34325 5.97743 9.35809L2.21924 6.44835C3.56444 3.78075 5.89358 1.74023 8.71494 0.757586Z" fill="#E33629"/>
<path d="M1.22236 9.33079C1.42435 8.32968 1.75971 7.36019 2.21946 6.44824L5.97765 9.36524C5.48602 10.813 5.48602 12.3827 5.97765 13.8305C4.72553 14.7974 3.4728 15.7691 2.21946 16.7456C1.06853 14.4547 0.717516 11.8444 1.22236 9.33079Z" fill="#F8BD00"/>
<path d="M12.4642 9.44824H23.2547C23.6238 11.4732 23.524 13.5557 22.9628 15.536C22.4466 17.3571 21.4437 19.003 20.0621 20.2968C18.8493 19.3504 17.631 18.4113 16.4182 17.465C17.0195 17.0594 17.5327 16.5366 17.9271 15.9279C18.3215 15.3192 18.5889 14.6371 18.7133 13.9225H12.4642C12.4624 12.4323 12.4642 10.9403 12.4642 9.44824Z" fill="#587DBD"/>
<path d="M2.21777 16.7457C3.47111 15.7789 4.72384 14.8071 5.97596 13.8306C6.46039 15.2523 7.38171 16.4845 8.60833 17.3513C9.3734 17.892 10.2427 18.2674 11.1609 18.4535C12.0657 18.6218 12.9937 18.6218 13.8984 18.4535C14.8005 18.3008 15.6607 17.9612 16.4238 17.4564C17.6367 18.4028 18.855 19.3419 20.0678 20.2882C18.7406 21.4951 17.1226 22.3366 15.3723 22.7302C13.4405 23.1844 11.4273 23.1626 9.50573 22.6668C7.98595 22.261 6.56639 21.5456 5.336 20.5656C4.03371 19.5316 2.97006 18.2287 2.21777 16.7457Z" fill="#319F43"/>
</svg>
