<svg width="23" height="22" viewBox="0 0 23 22" fill="none" xmlns="http://www.w3.org/2000/svg">
<path d="M22.2688 10.8014C22.2688 4.83275 17.4302 -0.00585938 11.4615 -0.00585938C5.4929 -0.00585938 0.654297 4.83275 0.654297 10.8014C0.654297 16.1955 4.60637 20.6666 9.77291 21.4773V13.9254H7.02888V10.8014H9.77291V8.42041C9.77291 5.71185 11.3864 4.21572 13.855 4.21572C15.0374 4.21572 16.2741 4.4268 16.2741 4.4268V7.08639H14.9114C13.5689 7.08639 13.1502 7.91948 13.1502 8.77418V10.8014H16.1475L15.6683 13.9254H13.1502V21.4773C18.3167 20.6666 22.2688 16.1956 22.2688 10.8014Z" fill="#1877F2"/>
<path d="M15.6683 13.9255L16.1474 10.8015H13.1501V8.77428C13.1501 7.9195 13.5688 7.08649 14.9113 7.08649H16.2741V4.4269C16.2741 4.4269 15.0373 4.21582 13.8548 4.21582C11.3863 4.21582 9.77284 5.71195 9.77284 8.42051V10.8015H7.02881V13.9255H9.77284V21.4774C10.3315 21.565 10.896 21.6089 11.4615 21.6087C12.0269 21.6089 12.5915 21.565 13.1501 21.4774V13.9255H15.6683Z" fill="white"/>
</svg>
