<svg width="25" height="24" viewBox="0 0 25 24" fill="none" xmlns="http://www.w3.org/2000/svg">
<path d="M11.06 2.34002C11.417 2.11752 11.8293 1.99957 12.25 1.99957C12.6707 1.99957 13.083 2.11752 13.44 2.34002L21.19 7.17302C21.2673 7.22102 21.341 7.27335 21.411 7.33002L12.25 12.15L3.084 7.33302C3.15533 7.27635 3.23033 7.22302 3.309 7.17302L11.06 2.34002ZM2.298 8.61402C2.26605 8.76797 2.24996 8.92479 2.25 9.08202V16.75C2.25 17.612 2.59241 18.4386 3.2019 19.0481C3.8114 19.6576 4.63805 20 5.5 20H19C19.4268 20 19.8494 19.916 20.2437 19.7526C20.638 19.5893 20.9963 19.3499 21.2981 19.0481C21.5999 18.7463 21.8393 18.388 22.0026 17.9937C22.1659 17.5994 22.25 17.1768 22.25 16.75V9.08202C22.25 8.92135 22.2333 8.76402 22.2 8.61002L12.6 13.66C12.4923 13.7169 12.3724 13.7468 12.2506 13.7469C12.1288 13.7471 12.0088 13.7176 11.901 13.661L2.298 8.61402Z" fill="#F35507"/>
</svg>
