<svg width="18" height="20" viewBox="0 0 18 20" fill="none" xmlns="http://www.w3.org/2000/svg">
<path d="M3.29864 9.57584C3.23741 10.7392 3.3078 11.9775 2.26844 12.757C1.7847 13.1198 1.5 13.6892 1.5 14.2939C1.5 15.1257 2.1515 15.8333 3 15.8333H15C15.8485 15.8333 16.5 15.1257 16.5 14.2939C16.5 13.6892 16.2153 13.1198 15.7316 12.757C14.6922 11.9775 14.7626 10.7392 14.7014 9.57584C14.5418 6.54351 12.0365 4.16666 9 4.16666C5.96348 4.16666 3.45824 6.54351 3.29864 9.57584Z" stroke="#757575" stroke-width="2" stroke-linecap="round" stroke-linejoin="round"/>
<path d="M7.75 2.60416C7.75 3.29451 8.30964 4.16666 9 4.16666C9.69036 4.16666 10.25 3.29451 10.25 2.60416C10.25 1.9138 9.69036 1.66666 9 1.66666C8.30964 1.66666 7.75 1.9138 7.75 2.60416Z" stroke="#757575" stroke-width="2"/>
<path d="M11.5 15.8333C11.5 17.214 10.3807 18.3333 9 18.3333C7.61929 18.3333 6.5 17.214 6.5 15.8333" stroke="#757575" stroke-width="2" stroke-linecap="round" stroke-linejoin="round"/>
</svg>
