<svg width="25" height="24" viewBox="0 0 25 24" fill="none" xmlns="http://www.w3.org/2000/svg">
<path d="M21.6 5C21.6 5.65 21.4126 6.23333 21.038 6.75C20.6633 7.26667 20.184 7.625 19.6 7.825V13C19.6 14.1 19.2083 15.0417 18.425 15.825C17.6416 16.6083 16.7 17 15.6 17C14.5 17 13.5583 16.6083 12.775 15.825C11.9916 15.0417 11.6 14.1 11.6 13V11C11.6 10.45 11.4043 9.979 11.013 9.587C10.6216 9.195 10.1506 8.99933 9.59998 9C9.04931 9.00067 8.57864 9.19633 8.18798 9.587C7.79731 9.97767 7.60131 10.4487 7.59998 11L7.59998 16.175C8.18331 16.3917 8.66264 16.7543 9.03798 17.263C9.41331 17.7717 9.60064 18.3507 9.59998 19C9.59998 19.8333 9.30831 20.5417 8.72498 21.125C8.14164 21.7083 7.43331 22 6.59998 22C5.76664 22 5.05831 21.7083 4.47498 21.125C3.89164 20.5417 3.59998 19.8333 3.59998 19C3.59998 18.35 3.78764 17.7707 4.16298 17.262C4.53831 16.7533 5.01731 16.391 5.59998 16.175L5.59998 11C5.59998 9.9 5.99164 8.95833 6.77498 8.175C7.55831 7.39167 8.49998 7 9.59998 7C10.7 7 11.6416 7.39167 12.425 8.175C13.2083 8.95833 13.6 9.9 13.6 11V13C13.6 13.55 13.796 14.0207 14.188 14.412C14.58 14.8033 15.0506 14.9993 15.6 15C16.1493 15.0007 16.6203 14.8047 17.013 14.412C17.4056 14.0193 17.6013 13.5487 17.6 13V7.825C17.0166 7.60833 16.5376 7.24567 16.163 6.737C15.7883 6.22833 15.6006 5.64933 15.6 5C15.6 4.16667 15.8916 3.45833 16.475 2.875C17.0583 2.29167 17.7666 2 18.6 2C19.4333 2 20.1416 2.29167 20.725 2.875C21.3083 3.45833 21.6 4.16667 21.6 5ZM7.59998 19C7.59998 18.7167 7.50398 18.479 7.31198 18.287C7.11998 18.095 6.88264 17.9993 6.59998 18C6.31731 18.0007 6.07998 18.0967 5.88798 18.288C5.69598 18.4793 5.59998 18.7167 5.59998 19C5.59998 19.2833 5.69598 19.5207 5.88798 19.712C6.07998 19.9033 6.31731 19.9993 6.59998 20C6.88264 20.0007 7.12031 19.9047 7.31298 19.712C7.50564 19.5193 7.60131 19.282 7.59998 19Z" fill="#1B75BB" stroke="#1B75BB"/>
</svg>
