<svg width="20" height="22" viewBox="0 0 20 22" fill="none" xmlns="http://www.w3.org/2000/svg">
<path d="M18.6 4C18.6 4.65 18.4126 5.23333 18.038 5.75C17.6633 6.26667 17.184 6.625 16.6 6.825V12C16.6 13.1 16.2083 14.0417 15.425 14.825C14.6416 15.6083 13.7 16 12.6 16C11.5 16 10.5583 15.6083 9.77498 14.825C8.99164 14.0417 8.59998 13.1 8.59998 12V10C8.59998 9.45 8.40431 8.979 8.01298 8.587C7.62164 8.195 7.15064 7.99933 6.59998 8C6.04931 8.00067 5.57864 8.19633 5.18798 8.587C4.79731 8.97767 4.60131 9.44867 4.59998 10L4.59998 15.175C5.18331 15.3917 5.66264 15.7543 6.03798 16.263C6.41331 16.7717 6.60064 17.3507 6.59998 18C6.59998 18.8333 6.30831 19.5417 5.72498 20.125C5.14164 20.7083 4.43331 21 3.59998 21C2.76664 21 2.05831 20.7083 1.47498 20.125C0.891642 19.5417 0.599976 18.8333 0.599976 18C0.599976 17.35 0.787642 16.7707 1.16298 16.262C1.53831 15.7533 2.01731 15.391 2.59998 15.175L2.59998 10C2.59998 8.9 2.99164 7.95833 3.77498 7.175C4.55831 6.39167 5.49998 6 6.59998 6C7.69998 6 8.64164 6.39167 9.42498 7.175C10.2083 7.95833 10.6 8.9 10.6 10V12C10.6 12.55 10.796 13.0207 11.188 13.412C11.58 13.8033 12.0506 13.9993 12.6 14C13.1493 14.0007 13.6203 13.8047 14.013 13.412C14.4056 13.0193 14.6013 12.5487 14.6 12V6.825C14.0166 6.60833 13.5376 6.24567 13.163 5.737C12.7883 5.22833 12.6006 4.64933 12.6 4C12.6 3.16667 12.8916 2.45833 13.475 1.875C14.0583 1.29167 14.7666 1 15.6 1C16.4333 1 17.1416 1.29167 17.725 1.875C18.3083 2.45833 18.6 3.16667 18.6 4ZM4.59998 18C4.59998 17.7167 4.50398 17.479 4.31198 17.287C4.11998 17.095 3.88264 16.9993 3.59998 17C3.31731 17.0007 3.07998 17.0967 2.88798 17.288C2.69598 17.4793 2.59998 17.7167 2.59998 18C2.59998 18.2833 2.69598 18.5207 2.88798 18.712C3.07998 18.9033 3.31731 18.9993 3.59998 19C3.88264 19.0007 4.12031 18.9047 4.31298 18.712C4.50564 18.5193 4.60131 18.282 4.59998 18Z" stroke="#595959"/>
</svg>
