<svg width="135" height="135" viewBox="0 0 135 135" fill="none" xmlns="http://www.w3.org/2000/svg">
<path d="M96.4992 119.249V123.975C96.4992 127.224 95.4977 129.422 93.4826 130.57C91.4674 131.718 89.0491 131.474 86.2157 129.837L24.4909 94.1996C21.6575 92.5753 19.2393 90.0105 17.2241 86.542C15.209 83.0613 14.2075 79.7027 14.2075 76.454V71.7398C14.2075 68.3934 14.9525 65.7554 16.4547 63.8135C17.1997 62.8486 18.0791 62.1159 19.0805 61.6151C20.0698 61.1144 21.1812 60.8701 22.4269 60.8457C27.7518 60.8701 33.15 61.7006 38.6337 63.3372C44.1173 64.9859 49.6987 67.4408 55.3534 70.7016C61.008 73.9748 66.5894 77.9562 72.0731 82.646C77.5567 87.3358 82.9548 92.7462 88.2797 98.865C90.588 101.576 92.4688 104.605 93.9221 107.976C94.0443 108.232 94.1421 108.477 94.252 108.733C95.7542 112.397 96.4992 115.914 96.4992 119.249Z" fill="#F26422" stroke="white" stroke-width="2.66027" stroke-linecap="round" stroke-linejoin="round"/>
<path d="M75.9326 53.0657C75.9326 54.2015 75.8714 55.2885 75.7493 56.2899C75.163 61.0408 73.2089 64.3628 69.887 66.2558C65.8567 68.5518 61.0082 68.0633 55.3536 64.8024C50.0653 61.737 45.4732 57.0716 41.6016 50.7818C41.5284 50.6719 41.4672 50.562 41.4061 50.4521C41.2107 50.1345 41.0154 49.8048 40.82 49.475C36.7897 42.5258 34.7744 35.8086 34.7744 29.3113C34.7744 22.8139 36.7897 18.4172 40.82 16.1212L41.7726 15.6448C45.6075 13.9228 50.1386 14.5701 55.3536 17.5745C56.7458 18.3806 58.0771 19.2843 59.3717 20.3102C63.3409 23.4612 66.8459 27.6625 69.887 32.9019C73.2578 38.7153 75.2119 44.37 75.7615 49.8536C75.8836 50.9406 75.9326 52.0031 75.9326 53.0657Z" fill="#F26422" stroke="white" stroke-width="2.66027" stroke-linecap="round" stroke-linejoin="round"/>
<path d="M100.359 40.8531C100.359 47.3504 98.3433 51.7471 94.313 54.0432L93.3605 54.5195L82.3443 60.0276L69.8868 66.2563C73.2088 64.3632 75.1629 61.0413 75.7491 56.2904C75.8712 55.2889 75.9324 54.202 75.9324 53.0662C75.9324 52.0036 75.8834 50.9411 75.7613 49.8541C75.2117 44.3704 73.2576 38.7158 69.8868 32.9024C66.8458 27.663 63.3407 23.4617 59.3715 20.3107C58.0769 19.2848 56.7457 18.381 55.3534 17.575C50.1384 14.5706 45.6074 13.9233 41.7725 15.6453L65.246 3.90858C69.2763 1.61252 74.1249 2.10105 79.7795 5.36193C85.4342 8.63504 90.2826 13.7401 94.313 20.6893C98.3433 27.6385 100.359 34.3679 100.359 40.8531Z" fill="#1E75BB" stroke="white" stroke-width="0.145106" stroke-linecap="round" stroke-linejoin="round"/>
<path d="M120.925 107.036V111.762C120.925 115.011 119.924 117.209 117.909 118.357L93.4826 130.57C95.4978 129.422 96.4993 127.224 96.4993 123.975V119.249C96.4993 115.914 95.7542 112.397 94.252 108.733C94.1421 108.477 94.0443 108.232 93.9222 107.976C92.4688 104.605 90.588 101.576 88.2797 98.865C82.9548 92.7462 77.5568 87.3358 72.0731 82.646C66.5894 77.9562 61.0081 73.9748 55.3534 70.7017C49.6988 67.4408 44.1174 64.9859 38.6337 63.3372C33.1501 61.7006 27.7519 60.8701 22.4269 60.8457C21.1812 60.8701 20.0698 61.1144 19.0806 61.6151L41.406 50.4524C41.467 50.5623 41.5282 50.6722 41.6015 50.7821C45.473 57.0719 50.0652 61.7373 55.3534 64.8027C61.0081 68.0636 65.8565 68.5522 69.8868 66.2561L82.3443 60.0274C87.1318 62.983 91.8461 66.4515 96.4993 70.433C101.983 75.1228 107.381 80.5332 112.706 86.6519C115.185 89.5586 117.176 92.8439 118.678 96.5201C120.18 100.184 120.925 103.701 120.925 107.036Z" fill="#1E75BB" stroke="white" stroke-width="0.145106" stroke-linecap="round" stroke-linejoin="round"/>
<path d="M19.0806 61.615L18.9341 61.6883L19.0806 61.615Z" fill="#229EFF"/>
<path d="M19.0806 61.615L18.9341 61.6883" stroke="white" stroke-width="0.145106" stroke-linecap="round" stroke-linejoin="round"/>
</svg>
