<svg width="25" height="24" viewBox="0 0 25 24" fill="none" xmlns="http://www.w3.org/2000/svg">
<path d="M9.94971 4.5H14.4497C14.6486 4.5 14.8394 4.57902 14.98 4.71967C15.1207 4.86032 15.1997 5.05109 15.1997 5.25V7.5H9.19971V5.25C9.19971 5.05109 9.27872 4.86032 9.41938 4.71967C9.56003 4.57902 9.75079 4.5 9.94971 4.5ZM7.69971 5.25V7.5H6.19971C5.40406 7.5 4.641 7.81607 4.07839 8.37868C3.51578 8.94129 3.19971 9.70435 3.19971 10.5V18C3.19971 18.7956 3.51578 19.5587 4.07839 20.1213C4.641 20.6839 5.40406 21 6.19971 21H18.1997C18.9954 21 19.7584 20.6839 20.321 20.1213C20.8836 19.5587 21.1997 18.7956 21.1997 18V10.5C21.1997 9.70435 20.8836 8.94129 20.321 8.37868C19.7584 7.81607 18.9954 7.5 18.1997 7.5H16.6997V5.25C16.6997 4.65326 16.4627 4.08097 16.0407 3.65901C15.6187 3.23705 15.0464 3 14.4497 3H9.94971C9.35297 3 8.78067 3.23705 8.35872 3.65901C7.93676 4.08097 7.69971 4.65326 7.69971 5.25ZM18.1997 9C18.5975 9 18.9791 9.15804 19.2604 9.43934C19.5417 9.72064 19.6997 10.1022 19.6997 10.5V18C19.6997 18.3978 19.5417 18.7794 19.2604 19.0607C18.9791 19.342 18.5975 19.5 18.1997 19.5H6.19971C5.80188 19.5 5.42035 19.342 5.13905 19.0607C4.85774 18.7794 4.69971 18.3978 4.69971 18V10.5C4.69971 10.1022 4.85774 9.72064 5.13905 9.43934C5.42035 9.15804 5.80188 9 6.19971 9H18.1997ZM12.9497 12C12.9497 11.8011 12.8707 11.6103 12.73 11.4697C12.5894 11.329 12.3986 11.25 12.1997 11.25C12.0008 11.25 11.81 11.329 11.6694 11.4697C11.5287 11.6103 11.4497 11.8011 11.4497 12V13.5H9.94971C9.75079 13.5 9.56003 13.579 9.41938 13.7197C9.27872 13.8603 9.19971 14.0511 9.19971 14.25C9.19971 14.4489 9.27872 14.6397 9.41938 14.7803C9.56003 14.921 9.75079 15 9.94971 15H11.4497V16.5C11.4497 16.6989 11.5287 16.8897 11.6694 17.0303C11.81 17.171 12.0008 17.25 12.1997 17.25C12.3986 17.25 12.5894 17.171 12.73 17.0303C12.8707 16.8897 12.9497 16.6989 12.9497 16.5V15H14.4497C14.6486 15 14.8394 14.921 14.98 14.7803C15.1207 14.6397 15.1997 14.4489 15.1997 14.25C15.1997 14.0511 15.1207 13.8603 14.98 13.7197C14.8394 13.579 14.6486 13.5 14.4497 13.5H12.9497V12Z" fill="#595959"/>
</svg>
