<svg width="25" height="24" viewBox="0 0 25 24" fill="none" xmlns="http://www.w3.org/2000/svg">
<path d="M10.4497 3.5H13.9497C14.1486 3.5 14.3394 3.57902 14.48 3.71967C14.6207 3.86032 14.6997 4.05109 14.6997 4.25V6H9.69971V4.25C9.69971 4.05109 9.77873 3.86032 9.91938 3.71967C10.06 3.57902 10.2508 3.5 10.4497 3.5ZM8.19971 4.25V6H6.44971C5.58775 6 4.7611 6.34241 4.15161 6.9519C3.54212 7.5614 3.19971 8.38805 3.19971 9.25V16.75C3.19971 17.612 3.54212 18.4386 4.15161 19.0481C4.7611 19.6576 5.58775 20 6.44971 20H17.9497C18.8117 20 19.6383 19.6576 20.2478 19.0481C20.8573 18.4386 21.1997 17.612 21.1997 16.75V9.25C21.1997 8.38805 20.8573 7.5614 20.2478 6.9519C19.6383 6.34241 18.8117 6 17.9497 6H16.1997V4.25C16.1997 3.65326 15.9627 3.08097 15.5407 2.65901C15.1187 2.23705 14.5464 2 13.9497 2H10.4497C9.85297 2 9.28067 2.23705 8.85872 2.65901C8.43676 3.08097 8.19971 3.65326 8.19971 4.25ZM11.6997 10.75C11.6997 10.5511 11.7787 10.3603 11.9194 10.2197C12.06 10.079 12.2508 10 12.4497 10C12.6486 10 12.8394 10.079 12.98 10.2197C13.1207 10.3603 13.1997 10.5511 13.1997 10.75V12.5H14.9497C15.1486 12.5 15.3394 12.579 15.48 12.7197C15.6207 12.8603 15.6997 13.0511 15.6997 13.25C15.6997 13.4489 15.6207 13.6397 15.48 13.7803C15.3394 13.921 15.1486 14 14.9497 14H13.1997V15.75C13.1997 15.9489 13.1207 16.1397 12.98 16.2803C12.8394 16.421 12.6486 16.5 12.4497 16.5C12.2508 16.5 12.06 16.421 11.9194 16.2803C11.7787 16.1397 11.6997 15.9489 11.6997 15.75V14H9.94971C9.75079 14 9.56003 13.921 9.41938 13.7803C9.27873 13.6397 9.19971 13.4489 9.19971 13.25C9.19971 13.0511 9.27873 12.8603 9.41938 12.7197C9.56003 12.579 9.75079 12.5 9.94971 12.5H11.6997V10.75Z" fill="#F06523"/>
</svg>
