<svg width="40" height="42" viewBox="0 0 40 42" fill="none" xmlns="http://www.w3.org/2000/svg">
<path d="M40 22C40 33.0457 25.5 37.5 20 42C12.5 35.5 0 33.0457 0 22C0 10.9543 8.9543 2 20 2C31.0457 2 40 10.9543 40 22Z" fill="#F35507"/>
<mask id="mask0_831_3596" style="mask-type:alpha" maskUnits="userSpaceOnUse" x="0" y="0" width="40" height="40">
<circle cx="20" cy="20" r="20" fill="black"/>
</mask>
<g mask="url(#mask0_831_3596)">
</g>
<g clip-path="url(#clip0_831_3596)">
<path d="M19.5832 15.3333C18.8096 15.3333 18.0678 15.6406 17.5208 16.1876C16.9738 16.7346 16.6665 17.4764 16.6665 18.25C16.6665 19.0235 16.9738 19.7654 17.5208 20.3124C18.0678 20.8594 18.8096 21.1667 19.5832 21.1667C20.3567 21.1667 21.0986 20.8594 21.6456 20.3124C22.1925 19.7654 22.4998 19.0235 22.4998 18.25C22.4998 17.4764 22.1925 16.7346 21.6456 16.1876C21.0986 15.6406 20.3567 15.3333 19.5832 15.3333ZM14.9998 18.25C14.9998 17.0344 15.4827 15.8686 16.3423 15.0091C17.2018 14.1495 18.3676 13.6667 19.5832 13.6667C20.7987 13.6667 21.9645 14.1495 22.8241 15.0091C23.6836 15.8686 24.1665 17.0344 24.1665 18.25C24.1665 19.4656 23.6836 20.6314 22.8241 21.4909C21.9645 22.3504 20.7987 22.8333 19.5832 22.8333C18.3676 22.8333 17.2018 22.3504 16.3423 21.4909C15.4827 20.6314 14.9998 19.4656 14.9998 18.25ZM29.714 24.575L23.8215 30.4675L20.2857 26.9317L21.464 25.7533L23.8215 28.1108L28.5357 23.3967L29.714 24.575ZM16.6665 25.3333C15.7824 25.3333 14.9346 25.6845 14.3095 26.3096C13.6844 26.9348 13.3332 27.7826 13.3332 28.6667H20.0415V30.3333H11.6665V28.6667C11.6665 27.3406 12.1933 26.0688 13.131 25.1311C14.0687 24.1934 15.3404 23.6667 16.6665 23.6667H19.9998V25.3333H16.6665Z" fill="white" stroke="white"/>
</g>
<defs>
<clipPath id="clip0_831_3596">
<rect width="20" height="20" fill="white" transform="translate(10 12)"/>
</clipPath>
</defs>
</svg>
