<svg width="42" height="42" viewBox="0 0 42 42" fill="none" xmlns="http://www.w3.org/2000/svg">
<path d="M32.8125 2.625L25.3171 8.13349L20.0265 2.76483L14.7333 8.13349L7.875 3.0445L10.6173 13.125H29.9234L32.8125 2.625ZM20.0108 7.44927L22.0872 9.25712L20.0108 11.8564L17.9344 9.25712L20.0108 7.44927ZM12.8641 9.20957C13.5768 9.20957 14.1381 9.74414 14.1381 10.4233C14.1381 11.102 13.5769 11.6343 12.864 11.6343C12.1512 11.6343 11.5897 11.102 11.5897 10.4233C11.5897 9.74454 12.1512 9.20957 12.8641 9.20957ZM27.6085 9.20957C28.3211 9.20957 28.8825 9.74414 28.8825 10.4233C28.8825 11.102 28.3212 11.6343 27.6084 11.6343C26.8955 11.6343 26.334 11.102 26.334 10.4233C26.334 9.74454 26.8956 9.20957 27.6085 9.20957Z" fill="#595959" stroke="#595959" stroke-width="0.75"/>
<path d="M28.949 15.75H21.4798L26.2325 21.9623L28.949 15.75ZM13.1075 15.75L15.824 21.9623L20.5766 15.75H13.1075ZM21.0282 18.1113L17.4153 22.8333H24.6411L21.0282 18.1113ZM30.4528 16.8048L27.8171 22.8333H34.125L30.4528 16.8048ZM11.6036 16.8048L7.875 22.8333H14.2394L11.6036 16.8048ZM14.8569 24.6042H7.93145L20.5089 40.5417H20.5388L14.8569 24.6042ZM27.1995 24.6042L21.5177 40.5417H21.5476L34.125 24.6042H27.1995ZM25.1712 24.6042H16.8852L21.0282 36.1146L25.1712 24.6042Z" fill="#595959" stroke="#595959" stroke-width="0.75"/>
</svg>
