<svg width="28" height="28" viewBox="0 0 28 28" fill="none" xmlns="http://www.w3.org/2000/svg">
<path d="M21.6732 1.75H14.4375L19.0416 7.88922L21.6732 1.75ZM6.3268 1.75L8.95836 7.88922L13.5625 1.75H6.3268ZM14 4.08352L10.5 8.75H17.5L14 4.08352ZM23.1301 2.79234L20.5767 8.75H26.6875L23.1301 2.79234ZM4.86992 2.79234L1.25781 8.75H7.42328L4.86992 2.79234ZM8.02156 10.5H1.3125L13.4969 26.25H13.5259L8.02156 10.5ZM19.9784 10.5L14.4741 26.25H14.5031L26.6875 10.5H19.9784ZM18.0135 10.5H9.98648L14 21.875L18.0135 10.5Z" fill="white"/>
</svg>
