<svg width="20" height="20" viewBox="0 0 20 20" fill="none" xmlns="http://www.w3.org/2000/svg">
<g clip-path="url(#clip0_409_863)">
<path d="M6.48481 14.2592C5.56783 14.7858 3.16357 15.8608 4.62793 17.2061C5.34325 17.8633 6.13994 18.3333 7.14158 18.3333H12.8571C13.8588 18.3333 14.6554 17.8633 15.3708 17.2061C16.8351 15.8608 14.4309 14.7858 13.5139 14.2592C11.3636 13.0246 8.63512 13.0246 6.48481 14.2592Z" stroke="#757575" stroke-width="1.5" stroke-linecap="round" stroke-linejoin="round"/>
<path d="M12.9154 8.33329C12.9154 9.94412 11.6095 11.25 9.9987 11.25C8.38787 11.25 7.08203 9.94412 7.08203 8.33329C7.08203 6.72246 8.38787 5.41663 9.9987 5.41663C11.6095 5.41663 12.9154 6.72246 12.9154 8.33329Z" stroke="#757575" stroke-width="1.5"/>
<path d="M2.37769 13.3333C1.92019 12.3053 1.66602 11.1674 1.66602 9.97043C1.66602 5.38436 5.39698 1.66663 9.99935 1.66663C14.6017 1.66663 18.3327 5.38436 18.3327 9.97043C18.3327 11.1674 18.0785 12.3053 17.621 13.3333" stroke="#757575" stroke-width="1.5" stroke-linecap="round"/>
</g>
<defs>
<clipPath id="clip0_409_863">
<rect width="20" height="20" fill="white"/>
</clipPath>
</defs>
</svg>
