<svg width="40" height="42" viewBox="0 0 40 42" fill="none" xmlns="http://www.w3.org/2000/svg">
<path d="M40 22C40 33.0457 25.5 37.5 20 42C12.5 35.5 0 33.0457 0 22C0 10.9543 8.9543 2 20 2C31.0457 2 40 10.9543 40 22Z" fill="#F35507"/>
<mask id="mask0_820_913" style="mask-type:alpha" maskUnits="userSpaceOnUse" x="0" y="0" width="40" height="40">
<circle cx="20" cy="20" r="20" fill="black"/>
</mask>
<g mask="url(#mask0_820_913)">
</g>
<path d="M23.2016 22.0912C24.4327 22.6724 25.4824 23.5776 26.2381 24.7099C26.9939 25.8423 27.4272 27.1589 27.4916 28.5187C27.5002 28.6433 27.4838 28.7683 27.4434 28.8865C27.403 29.0046 27.3394 29.1135 27.2564 29.2067C27.1733 29.3 27.0725 29.3757 26.9598 29.4294C26.8471 29.4831 26.7248 29.5138 26.6001 29.5196C26.4753 29.5255 26.3507 29.5063 26.2335 29.4633C26.1163 29.4203 26.0088 29.3544 25.9174 29.2693C25.8261 29.1842 25.7526 29.0817 25.7014 28.9679C25.6501 28.854 25.6222 28.7311 25.6191 28.6062C25.5509 27.1619 24.9292 25.7993 23.8829 24.8012C22.8367 23.8032 21.4463 23.2463 20.0003 23.2463C18.5544 23.2463 17.164 23.8032 16.1177 24.8012C15.0714 25.7993 14.4497 27.1619 14.3816 28.6062C14.3647 28.8507 14.2528 29.0789 14.0698 29.2419C13.8869 29.4049 13.6473 29.4897 13.4025 29.4783C13.1577 29.4669 12.9272 29.36 12.7602 29.1807C12.5932 29.0013 12.503 28.7637 12.5091 28.5187C12.5734 27.159 13.0065 25.8425 13.762 24.7102C14.5175 23.5779 15.567 22.6726 16.7978 22.0912C16.0091 21.4334 15.4422 20.5485 15.1741 19.557C14.9061 18.5655 14.95 17.5155 15.2999 16.5498C15.6498 15.5841 16.2886 14.7497 17.1295 14.1599C17.9704 13.5702 18.9726 13.2538 19.9997 13.2538C21.0268 13.2538 22.029 13.5702 22.8699 14.1599C23.7108 14.7497 24.3496 15.5841 24.6995 16.5498C25.0494 17.5155 25.0933 18.5655 24.8253 19.557C24.5572 20.5485 23.9903 21.4334 23.2016 22.0912ZM23.1253 18.25C23.1253 17.4212 22.7961 16.6263 22.21 16.0403C21.624 15.4542 20.8291 15.125 20.0003 15.125C19.1715 15.125 18.3767 15.4542 17.7906 16.0403C17.2046 16.6263 16.8753 17.4212 16.8753 18.25C16.8753 19.0788 17.2046 19.8737 17.7906 20.4597C18.3767 21.0458 19.1715 21.375 20.0003 21.375C20.8291 21.375 21.624 21.0458 22.21 20.4597C22.7961 19.8737 23.1253 19.0788 23.1253 18.25Z" fill="white" stroke="white" stroke-width="0.8"/>
</svg>
