<svg width="40" height="42" viewBox="0 0 40 42" fill="none" xmlns="http://www.w3.org/2000/svg">
<path d="M40 22C40 33.0457 25.5 37.5 20 42C12.5 35.5 0 33.0457 0 22C0 10.9543 8.9543 2 20 2C31.0457 2 40 10.9543 40 22Z" fill="#F35507"/>
<mask id="mask0_855_3771" style="mask-type:alpha" maskUnits="userSpaceOnUse" x="0" y="0" width="40" height="40">
<circle cx="20" cy="20" r="20" fill="black"/>
</mask>
<g mask="url(#mask0_855_3771)">
</g>
<path d="M17.8 18.35C18.36 18.35 18.81 17.9 18.81 17.34C18.81 16.78 18.36 16.33 17.8 16.33C17.24 16.33 16.79 16.78 16.79 17.34C16.79 17.9 17.24 18.35 17.8 18.35Z" fill="white"/>
<path fill-rule="evenodd" clip-rule="evenodd" d="M19.83 20.55C19.83 19.47 18.92 18.69 17.8 18.69C16.68 18.69 15.77 19.47 15.77 20.55V21.06C15.77 21.15 15.81 21.24 15.87 21.3C15.93 21.36 16.02 21.4 16.11 21.4H19.49C19.58 21.4 19.67 21.36 19.73 21.3C19.79 21.24 19.83 21.15 19.83 21.06V20.55ZM15.75 23.5C15.75 23.3011 15.829 23.1103 15.9697 22.9697C16.1103 22.829 16.3011 22.75 16.5 22.75H23.5C23.6989 22.75 23.8897 22.829 24.0303 22.9697C24.171 23.1103 24.25 23.3011 24.25 23.5C24.25 23.6989 24.171 23.8897 24.0303 24.0303C23.8897 24.171 23.6989 24.25 23.5 24.25H16.5C16.3011 24.25 16.1103 24.171 15.9697 24.0303C15.829 23.8897 15.75 23.6989 15.75 23.5ZM15.75 26.5C15.75 26.3011 15.829 26.1103 15.9697 25.9697C16.1103 25.829 16.3011 25.75 16.5 25.75H23.5C23.6989 25.75 23.8897 25.829 24.0303 25.9697C24.171 26.1103 24.25 26.3011 24.25 26.5C24.25 26.6989 24.171 26.8897 24.0303 27.0303C23.8897 27.171 23.6989 27.25 23.5 27.25H16.5C16.3011 27.25 16.1103 27.171 15.9697 27.0303C15.829 26.8897 15.75 26.6989 15.75 26.5Z" fill="white"/>
<path fill-rule="evenodd" clip-rule="evenodd" d="M12.5 14.5C12.5 13.398 13.398 12.5 14.5 12.5H21.19C21.752 12.5 22.282 12.738 22.655 13.131L22.661 13.138L26.973 17.84C27.332 18.223 27.5 18.724 27.5 19.2V29.5C27.5 30.602 26.602 31.5 25.5 31.5H14.5C13.398 31.5 12.5 30.602 12.5 29.5V14.5ZM21.189 14.5H14.5V29.5H25.5V19.192L21.204 14.507L21.201 14.506L21.189 14.5Z" fill="white"/>
<path fill-rule="evenodd" clip-rule="evenodd" d="M21.1899 12.5C21.4552 12.5 21.7095 12.6054 21.897 12.7929C22.0846 12.9804 22.1899 13.2348 22.1899 13.5V18.2H26.4999C26.6313 18.2 26.7613 18.2259 26.8826 18.2761C27.004 18.3264 27.1142 18.4 27.2071 18.4929C27.2999 18.5858 27.3736 18.696 27.4238 18.8173C27.4741 18.9386 27.4999 19.0687 27.4999 19.2C27.4999 19.3313 27.4741 19.4614 27.4238 19.5827C27.3736 19.704 27.2999 19.8142 27.2071 19.9071C27.1142 20 27.004 20.0736 26.8826 20.1239C26.7613 20.1741 26.6313 20.2 26.4999 20.2H21.1899C20.9247 20.2 20.6704 20.0946 20.4828 19.9071C20.2953 19.7196 20.1899 19.4652 20.1899 19.2V13.5C20.1899 13.2348 20.2953 12.9804 20.4828 12.7929C20.6704 12.6054 20.9247 12.5 21.1899 12.5Z" fill="white"/>
</svg>
