<svg width="18" height="15" viewBox="0 0 18 15" fill="none" xmlns="http://www.w3.org/2000/svg">
<path d="M14.8333 3.83337H3.16667C2.24619 3.83337 1.5 4.57957 1.5 5.50004V12.1667C1.5 13.0872 2.24619 13.8334 3.16667 13.8334H14.8333C15.7538 13.8334 16.5 13.0872 16.5 12.1667V5.50004C16.5 4.57957 15.7538 3.83337 14.8333 3.83337Z" stroke="#757575" stroke-width="2" stroke-linecap="round" stroke-linejoin="round"/>
<path d="M7.33333 8.00004L7.50917 8.08837C7.97205 8.31984 8.48247 8.44034 9 8.44034C9.51753 8.44034 10.0279 8.31984 10.4908 8.08837L10.6667 8.00004M6.5 3.00004C6.5 2.55801 6.6756 2.13409 6.98816 1.82153C7.30072 1.50897 7.72464 1.33337 8.16667 1.33337H9.83333C10.2754 1.33337 10.6993 1.50897 11.0118 1.82153C11.3244 2.13409 11.5 2.55801 11.5 3.00004V3.83337H6.5V3.00004Z" stroke="#757575" stroke-width="2" stroke-linecap="round" stroke-linejoin="round"/>
</svg>
