<svg width="24" height="24" viewBox="0 0 24 24" fill="none" xmlns="http://www.w3.org/2000/svg">
<path d="M12 14.6001L14 16.6001" stroke="#595959" stroke-width="1.5" stroke-linejoin="round"/>
<path d="M14.6907 19.2201C14.036 18.758 14.036 18.0087 14.6907 17.5466C15.3454 17.0844 16.4069 17.0844 17.0616 17.5466L20.5087 19.9798C21.1634 20.4419 21.1634 21.1912 20.5087 21.6533C19.854 22.1155 18.7925 22.1155 18.1378 21.6533L14.6907 19.2201Z" stroke="#595959" stroke-width="1.5" stroke-linecap="round"/>
<path d="M12 10C12 7.23858 9.76142 5 7 5C4.23858 5 2 7.23858 2 10C2 12.7614 4.23858 15 7 15C9.76142 15 12 12.7614 12 10Z" stroke="#595959" stroke-width="1.5" stroke-linejoin="round"/>
</svg>
