<svg width="24" height="24" viewBox="0 0 24 24" fill="none" xmlns="http://www.w3.org/2000/svg">
<path d="M12.0002 14.6001L14.0002 16.6001" stroke="#1B75BB" stroke-width="1.5" stroke-linejoin="round"/>
<path d="M14.691 19.2201C14.0363 18.758 14.0363 18.0087 14.691 17.5466C15.3457 17.0844 16.4071 17.0844 17.0618 17.5466L20.5089 19.9798C21.1636 20.4419 21.1636 21.1912 20.5089 21.6533C19.8542 22.1155 18.7928 22.1155 18.1381 21.6533L14.691 19.2201Z" fill="#1B75BB" stroke="#1B75BB" stroke-width="1.5" stroke-linecap="round"/>
<path d="M12.0002 10C12.0002 7.23858 9.76167 5 7.00024 5C4.23882 5 2.00024 7.23858 2.00024 10C2.00024 12.7614 4.23882 15 7.00024 15C9.76167 15 12.0002 12.7614 12.0002 10Z" fill="#1B75BB" stroke="#1B75BB" stroke-width="1.5" stroke-linejoin="round"/>
</svg>
