<svg width="30" height="30" viewBox="0 0 30 30" fill="none" xmlns="http://www.w3.org/2000/svg">
<g clip-path="url(#clip0_491_956)">
<path d="M29.5312 0.184152C29.8996 0.452009 30.0502 0.809152 29.9833 1.25558L25.6975 26.9699C25.6417 27.2935 25.4632 27.5446 25.1618 27.7232C25.0056 27.8125 24.8326 27.8571 24.6429 27.8571C24.5201 27.8571 24.3862 27.8292 24.2411 27.7734L16.6574 24.6763L12.606 29.615C12.4051 29.8717 12.1317 30 11.7857 30C11.6406 30 11.5179 29.9777 11.4174 29.933C11.2054 29.8549 11.0352 29.7238 10.9068 29.5396C10.7785 29.3555 10.7143 29.1518 10.7143 28.9286V23.0859L25.1786 5.35714L7.28236 20.8426L0.669641 18.1306C0.256695 17.9743 0.0334807 17.6674 -1.45321e-06 17.2098C-0.0223229 16.7634 0.156249 16.4342 0.535713 16.2221L28.3929 0.15067C28.5603 0.0502232 28.7388 0 28.9286 0C29.1518 0 29.3527 0.0613839 29.5312 0.184152Z" fill="black"/>
</g>
<defs>
<clipPath id="clip0_491_956">
<rect width="30" height="30" fill="white"/>
</clipPath>
</defs>
</svg>
