<?xml version="1.0" encoding="UTF-8"?>
<svg xmlns="http://www.w3.org/2000/svg" xmlns:xlink="http://www.w3.org/1999/xlink" width="px" height="px" viewBox="0 0 50 28" version="1.1">
<g id="surface1">
<path style=" stroke:none;fill-rule:nonzero;fill:rgb(65.490196%,66.27451%,67.45098%);fill-opacity:1;" d="M 47.148438 9.632812 C 46.753906 8.773438 46.136719 8.175781 45.355469 7.90625 C 44.488281 7.605469 43.457031 7.726562 42.445312 8.25 L 35.582031 11.230469 L 26.84375 11.46875 C 25.929688 11.488281 25.410156 11.484375 25.269531 11.113281 L 25.246094 11.042969 L 33.050781 10.796875 C 34.957031 10.734375 35.800781 9.1875 35.773438 7.765625 C 35.753906 6.363281 34.863281 4.855469 32.953125 4.855469 C 32.734375 4.855469 21.421875 5.277344 20.816406 5.203125 C 18.5625 4.929688 15.804688 6.296875 14.679688 8.25 L 6.28125 20.488281 C 6.050781 20.808594 6.117188 21.257812 6.433594 21.492188 C 6.546875 21.570312 6.671875 21.605469 6.800781 21.613281 C 6.917969 21.679688 7.050781 21.71875 7.195312 21.71875 L 16.648438 21.71875 C 16.878906 21.71875 17.09375 21.621094 17.242188 21.460938 C 17.285156 21.425781 17.324219 21.382812 17.355469 21.335938 L 19.71875 18.085938 C 19.90625 17.828125 20.191406 17.671875 20.492188 17.664062 C 26.925781 17.464844 34.796875 17.148438 35.769531 16.765625 C 36.675781 16.40625 46.117188 11.710938 46.519531 11.511719 C 47.203125 11.164062 47.480469 10.332031 47.152344 9.625 Z M 47.148438 9.632812 "/>
</g>
</svg>
