<svg width="25" height="24" viewBox="0 0 25 24" fill="none" xmlns="http://www.w3.org/2000/svg">
<path d="M3.80005 21H5.80005V15H3.80005V21ZM13.26 22L10.33 21.36L7.40005 20.67C7.23046 20.6369 7.0781 20.5448 6.97005 20.41C6.85748 20.2796 6.79695 20.1122 6.80005 19.94V15.94C6.80288 15.7688 6.8627 15.6034 6.97005 15.47C7.08174 15.3394 7.23251 15.2482 7.40005 15.21L12.18 14.62L16.97 14.02L17.12 14.58L17.27 15.13C17.2727 15.3144 17.2205 15.4954 17.12 15.65C17.0281 15.8117 16.8884 15.941 16.72 16.02L14.72 16.52L12.72 17.02L14.34 17.68L15.97 18.33L18.24 17.69L20.45 17C20.6464 16.9503 20.8544 16.979 21.03 17.08C21.1185 17.1278 21.1961 17.1933 21.2581 17.2724C21.32 17.3516 21.3649 17.4427 21.39 17.54L21.58 18.31L21.78 19.07C21.8254 19.2601 21.7968 19.4602 21.7 19.63C21.5972 19.8013 21.4325 19.9265 21.24 19.98L17.61 20.98L13.98 21.98C13.8605 21.9955 13.7395 21.9955 13.62 21.98C13.502 22.0064 13.3803 22.0132 13.26 22ZM9.80005 4L7.80005 6L5.80005 8L7.80005 10L9.80005 12L10.5 11.3L11.2 10.6L9.90005 9.3L8.60005 8L9.90005 6.7L11.2 5.4L10.5 4.7L9.80005 4ZM15.8 4L15.1 4.7L14.4 5.4L15.7 6.7L17 8L15.7 9.3L14.4 10.6L15.1 11.3L15.8 12L17.8 10L19.8 8L17.8 6L15.8 4Z" fill="#1B75BB"/>
</svg>
