<svg width="25" height="24" viewBox="0 0 25 24" fill="none" xmlns="http://www.w3.org/2000/svg">
<path d="M9.80005 4L7.80005 6L5.80005 8L7.80005 10L9.80005 12L10.5 11.3L11.2 10.6L9.90005 9.3L8.60005 8L9.90005 6.7L11.2 5.4L10.5 4.7L9.80005 4ZM15.8 4L15.1 4.7L14.4 5.4L15.7 6.7L17 8L15.7 9.3L14.4 10.6L15.1 11.3L15.8 12L17.8 10L19.8 8L17.8 6L15.8 4ZM21.777 19.09L21.389 17.558C21.3641 17.4604 21.3196 17.3688 21.2585 17.2888C21.1973 17.2087 21.1206 17.1418 21.033 17.092C20.945 17.0414 20.8477 17.0089 20.7468 16.9966C20.646 16.9842 20.5437 16.9922 20.446 17.02L15.894 18.304L12.8 17L16.715 15.997C16.9815 15.7578 17.1749 15.4483 17.273 15.104L16.966 14L8.80005 15H3.80005V21H8.80005L13.255 21.964C13.4972 21.986 13.7411 21.9803 13.982 21.947L21.242 19.993C21.4323 19.9415 21.595 19.8182 21.696 19.649C21.7962 19.4804 21.8253 19.28 21.777 19.09ZM6.80005 20H4.80005V16H6.80005V20ZM13.722 20.982C13.6769 20.9933 13.6306 20.9994 13.584 21C13.5454 21.0005 13.5068 20.9964 13.469 20.988L8.80005 19.963V16.02L16.129 15.112L10.8 17L15.521 19.232L15.838 19.359L16.166 19.266L20.482 18.049L20.746 19.091L13.722 20.982Z" fill="#595959"/>
</svg>
