<svg width="25" height="24" viewBox="0 0 25 24" fill="none" xmlns="http://www.w3.org/2000/svg">
<path d="M12.25 15C13.0456 15 13.8087 14.6839 14.3713 14.1213C14.9339 13.5587 15.25 12.7956 15.25 12C15.25 11.2044 14.9339 10.4413 14.3713 9.87868C13.8087 9.31607 13.0456 9 12.25 9C11.4544 9 10.6913 9.31607 10.1287 9.87868C9.56607 10.4413 9.25 11.2044 9.25 12C9.25 12.7956 9.56607 13.5587 10.1287 14.1213C10.6913 14.6839 11.4544 15 12.25 15V15Z" stroke="#757575" stroke-width="1.5" stroke-miterlimit="10" stroke-linecap="round" stroke-linejoin="round"/>
<path d="M2.25 12.88V11.12C2.25 10.08 3.1 9.22 4.15 9.22C5.96 9.22 6.7 7.94 5.79 6.37C5.27 5.47 5.58 4.3 6.49 3.78L8.22 2.79C9.01 2.32 10.03 2.6 10.5 3.39L10.61 3.58C11.51 5.15 12.99 5.15 13.9 3.58L14.01 3.39C14.48 2.6 15.5 2.32 16.29 2.79L18.02 3.78C18.93 4.3 19.24 5.47 18.72 6.37C17.81 7.94 18.55 9.22 20.36 9.22C21.4 9.22 22.26 10.07 22.26 11.12V12.88C22.26 13.92 21.41 14.78 20.36 14.78C18.55 14.78 17.81 16.06 18.72 17.63C19.24 18.54 18.93 19.7 18.02 20.22L16.29 21.21C15.5 21.68 14.48 21.4 14.01 20.61L13.9 20.42C13 18.85 11.52 18.85 10.61 20.42L10.5 20.61C10.03 21.4 9.01 21.68 8.22 21.21L6.49 20.22C6.0541 19.969 5.73558 19.5553 5.60435 19.0698C5.47311 18.5842 5.53988 18.0664 5.79 17.63C6.7 16.06 5.96 14.78 4.15 14.78C3.1 14.78 2.25 13.92 2.25 12.88V12.88Z" stroke="#757575" stroke-width="1.5" stroke-miterlimit="10" stroke-linecap="round" stroke-linejoin="round"/>
</svg>
