<svg width="18" height="18" viewBox="0 0 18 18" fill="none" xmlns="http://www.w3.org/2000/svg">
<path fill-rule="evenodd" clip-rule="evenodd" d="M9.25317 8.92542L12.0039 11.68L11.4044 12.281L8.40483 9.27726V5.0297H9.25317V8.92542ZM8.829 16.3565C4.92453 16.3565 1.75952 13.1871 1.75952 9.27726C1.75952 5.36738 4.92453 2.198 8.829 2.198C12.7335 2.198 15.8985 5.36738 15.8985 9.27726C15.8985 13.1871 12.7335 16.3565 8.829 16.3565ZM8.829 15.507C10.479 15.507 12.0613 14.8507 13.228 13.6823C14.3947 12.514 15.0501 10.9295 15.0501 9.27726C15.0501 7.62502 14.3947 6.04047 13.228 4.87216C12.0613 3.70386 10.479 3.04751 8.829 3.04751C7.17905 3.04751 5.59668 3.70386 4.42999 4.87216C3.2633 6.04047 2.60786 7.62502 2.60786 9.27726C2.60786 10.9295 3.2633 12.514 4.42999 13.6823C5.59668 14.8507 7.17905 15.507 8.829 15.507Z" fill="#F16522"/>
</svg>
