<svg width="40" height="42" viewBox="0 0 40 42" fill="none" xmlns="http://www.w3.org/2000/svg">
<path d="M40 22C40 33.0457 25.5 37.5 20 42C12.5 35.5 0 33.0457 0 22C0 10.9543 8.9543 2 20 2C31.0457 2 40 10.9543 40 22Z" fill="#F35507"/>
<mask id="mask0_821_1179" style="mask-type:alpha" maskUnits="userSpaceOnUse" x="0" y="0" width="40" height="40">
<circle cx="20" cy="20" r="20" fill="black"/>
</mask>
<g mask="url(#mask0_821_1179)">
</g>
<g clip-path="url(#clip0_821_1179)">
<path d="M29.2853 27V29.8571C29.2853 30.236 29.1348 30.5994 28.8669 30.8673C28.599 31.1352 28.2356 31.2857 27.8567 31.2857H24.9996M24.9996 12.7143H27.8567C28.2356 12.7143 28.599 12.8648 28.8669 13.1327C29.1348 13.4006 29.2853 13.764 29.2853 14.1429V17M10.7139 17V14.1429C10.7139 13.764 10.8644 13.4006 11.1323 13.1327C11.4002 12.8648 11.7636 12.7143 12.1424 12.7143H14.9996M14.9996 31.2857H12.1424C11.7636 31.2857 11.4002 31.1352 11.1323 30.8673C10.8644 30.5994 10.7139 30.236 10.7139 29.8571V27M19.9996 21.2857C20.7573 21.2857 21.4841 20.9847 22.0199 20.4489C22.5557 19.9131 22.8567 19.1863 22.8567 18.4286C22.8567 17.6708 22.5557 16.9441 22.0199 16.4083C21.4841 15.8724 20.7573 15.5714 19.9996 15.5714C19.2418 15.5714 18.5151 15.8724 17.9793 16.4083C17.4435 16.9441 17.1424 17.6708 17.1424 18.4286C17.1424 19.1863 17.4435 19.9131 17.9793 20.4489C18.5151 20.9847 19.2418 21.2857 19.9996 21.2857ZM25.4324 27.7143C25.0632 26.5636 24.3381 25.5599 23.3617 24.8477C22.3854 24.1356 21.2081 23.7519 19.9996 23.7519C18.7911 23.7519 17.6138 24.1356 16.6374 24.8477C15.661 25.5599 14.936 26.5636 14.5667 27.7143H25.4324Z" stroke="white" stroke-width="2" stroke-linecap="round" stroke-linejoin="round"/>
</g>
<defs>
<clipPath id="clip0_821_1179">
<rect width="20" height="20" fill="white" transform="translate(10 12)"/>
</clipPath>
</defs>
</svg>
