<svg width="21" height="20" viewBox="0 0 21 20" fill="none" xmlns="http://www.w3.org/2000/svg">
<path d="M3.3999 10H1.3999L10.3999 1L19.3999 10H17.3999M3.3999 10V17C3.3999 17.5304 3.61062 18.0391 3.98569 18.4142C4.36076 18.7893 4.86947 19 5.3999 19H15.3999C15.9303 19 16.439 18.7893 16.8141 18.4142C17.1892 18.0391 17.3999 17.5304 17.3999 17V10" stroke="#595959" stroke-width="1.7" stroke-linecap="round" stroke-linejoin="round"/>
<path d="M7.3999 19V13C7.3999 12.4696 7.61062 11.9609 7.98569 11.5858C8.36076 11.2107 8.86947 11 9.3999 11H11.3999C11.9303 11 12.439 11.2107 12.8141 11.5858C13.1892 11.9609 13.3999 12.4696 13.3999 13V19" stroke="#595959" stroke-width="1.8" stroke-linecap="round" stroke-linejoin="round"/>
</svg>
