<svg width="25" height="24" viewBox="0 0 25 24" fill="none" xmlns="http://www.w3.org/2000/svg">
<path d="M13.1069 2.293L22.1069 11.293C22.7369 11.923 22.2909 13 21.3999 13H20.3999V19C20.3999 19.7956 20.0839 20.5587 19.5213 21.1213C18.9587 21.6839 18.1956 22 17.3999 22H16.3999V15C16.4 14.2348 16.1076 13.4985 15.5827 12.9417C15.0577 12.385 14.3398 12.0499 13.5759 12.005L13.3999 12H11.3999C10.6043 12 9.84123 12.3161 9.27862 12.8787C8.71601 13.4413 8.39994 14.2044 8.39994 15V22H7.39994C6.60429 22 5.84123 21.6839 5.27862 21.1213C4.71601 20.5587 4.39994 19.7956 4.39994 19V13H3.39994C2.50994 13 2.06294 11.923 2.69294 11.293L11.6929 2.293C11.8805 2.10553 12.1348 2.00021 12.3999 2.00021C12.6651 2.00021 12.9194 2.10553 13.1069 2.293ZM13.3999 14C13.6652 14 13.9195 14.1054 14.107 14.2929C14.2946 14.4804 14.3999 14.7348 14.3999 15V22H10.3999V15C10.4 14.7551 10.4899 14.5187 10.6527 14.3356C10.8154 14.1526 11.0397 14.0357 11.2829 14.007L11.3999 14H13.3999Z" fill="#F06523"/>
</svg>
