<svg width="16" height="17" viewBox="0 0 16 17" fill="none" xmlns="http://www.w3.org/2000/svg">
<path d="M7.92095 1.04395C3.86752 1.04395 0.576172 4.33626 0.576172 8.3897C0.576172 12.443 3.86755 15.7353 7.92086 15.7353C11.9742 15.7353 15.2666 12.443 15.2666 8.3897C15.2666 4.33626 11.9742 1.04395 7.92095 1.04395ZM11.4961 2.64845C13.41 3.84188 14.6826 5.96532 14.6826 8.3897C14.6826 8.92541 14.6204 9.44666 14.503 9.94626L13.4326 9.38188L14.1201 11.0967C13.8247 11.7732 13.4213 12.3914 12.9326 12.9307L11.584 11.9639L9.56442 13.4552L7.63767 13.6729L7.20311 12.3673L5.64936 13.2061L3.52145 12.6143L3.80761 13.7579C2.9198 13.0769 2.20667 12.1808 1.74511 11.1465L2.53908 10.0147L3.54689 10.5498L5.39752 10.2412L5.48636 8.96285L4.31936 8.90916L4.47264 8.35154L5.43452 7.56051L4.65036 7.07223L6.75098 5.8662L5.33395 4.93941L3.25192 6.19526L1.70702 5.71776C2.13864 4.71338 2.80733 3.83588 3.64158 3.15326L3.52439 4.53998L4.87989 3.4736L7.12989 4.16798L6.42677 3.31151L7.28127 2.86132L8.11917 3.75095L10.3379 4.0586L10.2285 2.98141L11.5244 3.37695L11.4961 2.64845H11.4961ZM11.5322 6.39938L8.68752 6.73345L9.59083 8.08401L9.68945 10.0986L10.6016 10.5313L10.959 9.64454L12.917 11.165L12.3681 9.68751L12.5684 8.17676L11.2012 7.46676L11.5322 6.39941L11.5322 6.39938ZM6.90627 6.5137L5.91895 7.17582L7.05864 7.6377L7.58008 7.17582L6.90627 6.5137ZM7.59964 11.0352L8.18361 12.6788L8.80173 11.3486L7.59964 11.0352Z" fill="black"/>
</svg>
